<?xml version="1.0" encoding="UTF-8" standalone="no"?>
<!-- Created with Inkscape (http://www.inkscape.org/) -->

<svg
   xmlns:dc="http://purl.org/dc/elements/1.1/"
   xmlns:cc="http://creativecommons.org/ns#"
   xmlns:rdf="http://www.w3.org/1999/02/22-rdf-syntax-ns#"
   xmlns:svg="http://www.w3.org/2000/svg"
   xmlns="http://www.w3.org/2000/svg"
   xmlns:sodipodi="http://sodipodi.sourceforge.net/DTD/sodipodi-0.dtd"
   xmlns:inkscape="http://www.inkscape.org/namespaces/inkscape"
   width="210mm"
   height="297mm"
   viewBox="0 0 744.09448819 1052.3622047"
   id="svg2"
   version="1.1"
   inkscape:version="0.48.4 r9939"
   sodipodi:docname="circulo.svg">
  <defs
     id="defs4" />
  <sodipodi:namedview
     id="base"
     pagecolor="#ffffff"
     bordercolor="#666666"
     borderopacity="1.0"
     inkscape:pageopacity="0.0"
     inkscape:pageshadow="2"
     inkscape:zoom="0.83125"
     inkscape:cx="322.59398"
     inkscape:cy="696.54832"
     inkscape:document-units="px"
     inkscape:current-layer="layer1"
     showgrid="false"
     inkscape:window-width="1280"
     inkscape:window-height="776"
     inkscape:window-x="0"
     inkscape:window-y="24"
     inkscape:window-maximized="1" />
  <metadata
     id="metadata7">
    <rdf:RDF>
      <cc:Work
         rdf:about="">
        <dc:format>image/svg+xml</dc:format>
        <dc:type
           rdf:resource="http://purl.org/dc/dcmitype/StillImage" />
        <dc:title />
      </cc:Work>
    </rdf:RDF>
  </metadata>
  <g
     inkscape:label="Capa 1"
     inkscape:groupmode="layer"
     id="layer1">
    <path
       style="font-size:medium;font-style:normal;font-variant:normal;font-weight:normal;font-stretch:normal;text-indent:0;text-align:start;text-decoration:none;line-height:normal;letter-spacing:normal;word-spacing:normal;text-transform:none;direction:ltr;block-progression:tb;writing-mode:lr-tb;text-anchor:start;baseline-shift:baseline;opacity:0.75;color:#000000;fill:#4d4d4d;fill-opacity:1;fill-rule:nonzero;stroke:none;visibility:visible;display:inline;overflow:visible;enable-background:accumulate;font-family:sans-serif"
       d="M 122.19922,4.962891 C 104.35176,5.66532 86.44607,10.218649 69.769531,18.904297 16.404614,46.698366 -8.794118,108.78289 10.396484,165.36133 29.587083,221.93977 87.48016,256.42553 147,246.83203 c 59.51984,-9.59349 103.35352,-60.50618 103.35352,-120.1875 l 0,-5.43555 -5.43555,0 -101.36719,0 85.24414,-63.605464 -3.33789,-4.369141 C 200.44822,20.509574 161.46363,3.417545 122.19922,4.962891 z m 0.44726,10.849609 c 34.05734,-1.346809 67.78368,12.769648 90.63282,39.802734 l -102.47461,76.464846 128.42969,0 c -2.56306,51.97951 -41.40365,95.54764 -93.96485,104.01953 C 90.87732,244.86663 38.178547,213.42539 20.691406,161.86914 3.204262,110.3129 26.053504,53.93085 74.791016,28.546875 90.02149,20.614382 106.36332,16.456424 122.64648,15.8125 z"
       id="path4138"
       inkscape:connector-curvature="0" />
  </g>
</svg>
