<?xml version="1.0" encoding="UTF-8" standalone="no"?>
<!-- Created with Inkscape (http://www.inkscape.org/) -->

<svg
   xmlns:dc="http://purl.org/dc/elements/1.1/"
   xmlns:cc="http://creativecommons.org/ns#"
   xmlns:rdf="http://www.w3.org/1999/02/22-rdf-syntax-ns#"
   xmlns:svg="http://www.w3.org/2000/svg"
   xmlns="http://www.w3.org/2000/svg"
   xmlns:sodipodi="http://sodipodi.sourceforge.net/DTD/sodipodi-0.dtd"
   xmlns:inkscape="http://www.inkscape.org/namespaces/inkscape"
   width="100mm"
   height="100mm"
   viewBox="0 0 354.33071 354.33071"
   id="svg2"
   version="1.1"
   inkscape:version="0.91 r"
   sodipodi:docname="pedro.svg">
  <defs
     id="defs4" />
  <sodipodi:namedview
     id="base"
     pagecolor="#ffffff"
     bordercolor="#666666"
     borderopacity="1.0"
     inkscape:pageopacity="0.0"
     inkscape:pageshadow="2"
     inkscape:zoom="1.4"
     inkscape:cx="273.08163"
     inkscape:cy="140.99871"
     inkscape:document-units="px"
     inkscape:current-layer="layer1"
     showgrid="false"
     inkscape:window-width="1280"
     inkscape:window-height="776"
     inkscape:window-x="0"
     inkscape:window-y="24"
     inkscape:window-maximized="1"
     inkscape:snap-others="false" />
  <metadata
     id="metadata7">
    <rdf:RDF>
      <cc:Work
         rdf:about="">
        <dc:format>image/svg+xml</dc:format>
        <dc:type
           rdf:resource="http://purl.org/dc/dcmitype/StillImage" />
        <dc:title />
      </cc:Work>
    </rdf:RDF>
  </metadata>
  <g
     inkscape:label="Capa 1"
     inkscape:groupmode="layer"
     id="layer1"
     transform="translate(0,-698.0315)">
    <path
       style="fill:#000000"
       d="m 123.65894,1048.2646 c -1.57412,-2.2424 -3.73359,-5.2887 -4.79878,-6.77 -1.06523,-1.4812 -1.93918,-2.8363 -1.94212,-3.0114 -0.003,-0.175 -0.51764,-1.0127 -1.1438,-1.8615 -1.46494,-1.9857 -7.70684,-13.5254 -9.79643,-18.1112 -0.88646,-1.9452 -2.02002,-4.7934 -2.51899,-6.3292 -0.499,-1.5359 -1.15707,-3.4625 -1.46237,-4.2817 -0.85398,-2.291 -1.73084,-5.3553 -2.23728,-7.8183 -0.252623,-1.22877 -0.718327,-3.32296 -1.034885,-4.65402 -0.316568,-1.33105 -0.670574,-3.42525 -0.786665,-4.65383 -0.269282,-2.84974 -1.369833,-12.42847 -1.72177,-14.98555 -0.147963,-1.07505 -0.381383,-1.95287 -0.518719,-1.95069 -0.137355,0.002 -1.16965,0.68101 -2.294009,1.5085 -1.124386,0.8275 -2.872266,2.02744 -3.884193,2.66652 -1.01194,0.63912 -2.409838,1.60818 -3.106433,2.1535 -2.881026,2.25527 -15.129548,7.44305 -17.573367,7.44305 -0.303865,0 -1.340873,0.22872 -2.304444,0.50829 -3.358046,0.97424 -6.29116,1.36722 -12.54963,1.68134 -6.149009,0.30865 -6.359923,0.29424 -8.790539,-0.60067 -6.229897,-2.29378 -15.157867,-7.36286 -23.34236,-13.25321 -3.276864,-2.35835 -9.058227,-7.9983 -10.589766,-10.33078 -1.8361161,-2.79629 -4.5938204,-10.19903 -5.1903825,-13.933 -0.2290125,-1.4334 -0.5899298,-3.32064 -0.8020231,-4.19384 -0.5064332,-2.08503 -0.4890275,-12.08111 0.02797,-16.09712 0.2240985,-1.74055 0.5933793,-4.75628 0.8206188,-6.7016 0.6379639,-5.46109 0.6910807,-5.77566 1.9935258,-11.80568 0.6726905,-3.11441 1.3950805,-5.9626 1.6053033,-6.3293 0.2102219,-0.3667 0.6904709,-2.06779 1.0672279,-3.78016 0.603846,-2.74456 0.613692,-3.18568 0.08308,-3.72312 C 9.9341814,898.10441 4.0687529,890.40237 3.4427392,889.30001 1.6927889,886.21852 0.00616517,877.29002 1.6752947e-5,871.07539 -0.00547526,865.05812 1.3400559,855.62361 2.97452,850.22596 c 2.0609598,-6.80611 5.7543086,-15.32411 8.148353,-18.79264 0.27922,-0.40456 1.110681,-1.62964 1.847664,-2.72237 0.736983,-1.09277 2.799882,-3.36819 4.584224,-5.0565 3.809617,-3.60459 6.90067,-5.03796 11.553645,-5.35763 l 2.758798,-0.18954 2.33172,-3.15836 c 1.282449,-1.73708 2.963078,-3.59944 3.734748,-4.13853 0.771656,-0.5391 2.018784,-1.45513 2.771379,-2.03564 1.659583,-1.2801 4.82873,-2.09955 8.132014,-2.1027 3.023729,-0.002 4.994933,0.47651 7.485103,1.82034 l 1.918738,1.03548 2.044316,-1.04021 c 2.499419,-1.27177 6.496864,-1.74327 9.18193,-1.08303 1.389002,0.34155 2.5214,1.0846 4.761574,3.12453 4.038452,3.67742 5.373714,6.84801 4.631915,10.99839 -0.571168,3.19563 -2.201613,5.74235 -6.057181,9.46112 -7.149614,6.89596 -7.819573,8.04704 -7.810733,13.4202 0.0079,4.81514 0.06513,4.93228 2.536573,5.19882 3.369011,0.36334 6.976144,2.12133 8.650891,4.21612 2.72806,3.4123 4.12299,8.0001 4.574183,15.04396 0.25989,4.05744 0.221067,4.37163 -0.834823,6.75628 -1.006854,2.27396 -2.825138,4.97418 -4.933543,7.32645 -1.387215,1.54769 -8.057782,8.36993 -9.257759,9.46827 -0.87702,0.80273 -1.096531,1.28853 -0.925245,2.0477 0.273659,1.21288 0.979668,3.64232 1.425319,4.90455 0.180738,0.51195 0.63919,2.14546 1.018779,3.63004 0.379589,1.48459 0.822793,2.69925 0.984885,2.69925 0.527154,0 3.86498,-2.1565 5.750135,-3.71504 1.011928,-0.83662 2.667818,-2.04717 3.679746,-2.69011 1.011954,-0.64297 2.693369,-1.81039 3.736523,-2.59428 1.043127,-0.7839 2.021919,-1.42528 2.175067,-1.42528 0.153148,0 1.04756,-0.47859 1.987569,-1.06356 0.940022,-0.58496 4.067624,-2.27666 6.950204,-3.75929 4.783889,-2.46058 6.408853,-3.67904 5.339377,-4.00368 -1.703371,-0.51702 -6.089301,-3.32896 -8.365272,-5.36317 -4.261871,-3.80917 -5.628935,-7.14995 -5.110582,-12.48907 0.15592,-1.60598 0.293051,-3.29136 0.304728,-3.74531 0.01177,-0.45394 0.323387,-0.90858 0.692658,-1.01033 1.040762,-0.28669 5.89042,-0.89928 6.804353,-0.8595 1.787582,0.0778 3.066495,-0.11545 3.066495,-0.46353 0,-0.2015 -1.166345,-1.75126 -2.591812,-3.44388 -3.432058,-4.0752 -5.733351,-7.27443 -7.837768,-10.89602 -2.738757,-4.71326 -5.505535,-11.49126 -5.512949,-13.50557 -0.0065,-1.73437 3.717431,-7.44528 10.615018,-16.27934 2.472056,-3.16605 7.371716,-10.27183 7.371011,-10.68988 -4.03e-4,-0.26369 -0.925191,-1.05317 -2.055024,-1.75439 -3.049909,-1.89288 -4.221548,-3.93409 -5.524709,-9.62509 -0.764996,-3.34072 -0.876026,-11.71232 -0.183027,-13.80076 2.547923,-7.67852 6.380881,-10.34926 16.353182,-11.39458 1.23874,-0.12986 2.51221,-0.38237 2.82991,-0.56118 0.60492,-0.34044 0.61912,-0.0898 -0.81304,-14.35007 -0.35678,-3.5525 -2.30624,-14.27602 -2.66394,-14.65349 -0.14713,-0.15528 -5.915532,1.61334 -14.889961,4.5653 -5.454657,1.79422 -9.407105,2.58507 -9.407105,1.88226 0,-0.11072 0.335482,-0.65517 0.745486,-1.20999 0.410017,-0.55485 1.604932,-2.18158 2.655357,-3.61496 5.076243,-6.92695 17.487003,-16.67527 26.813233,-21.06111 1.88738,-0.88757 3.23649,-1.673 2.99805,-1.74537 -0.76565,-0.23241 -12.24169,2.0789 -18.407961,3.70741 -2.350512,0.62077 -3.085919,0.69089 -3.475356,0.33131 -0.387342,-0.35764 -0.185108,-0.69858 0.937081,-1.57984 0.787068,-0.61807 2.074979,-1.67148 2.862037,-2.34091 1.5276,-1.29927 4.088519,-2.47431 11.255769,-5.16452 12.19104,-4.57587 17.16862,-5.86949 33.71913,-8.76323 3.05979,-0.53499 16.94484,-0.17552 20.85199,0.53983 7.03987,1.28892 22.62522,5.39062 25.34947,6.67141 0.56221,0.26429 2.1261,0.95591 3.47534,1.53693 1.34927,0.58104 4.52305,2.27122 7.05289,3.756 2.52984,1.48477 4.59631,2.49119 4.59218,2.23649 -0.006,-0.2547 -0.27036,-1.81577 -0.5916,-3.46905 -0.90424,-4.65387 -0.28094,-9.64629 1.82526,-14.61956 0.84091,-1.9856 1.64844,-3.272 2.29685,-3.65887 1.3834,-0.8254 1.58024,-0.44675 0.64282,1.2366 -0.43867,0.78775 -1.32544,2.85633 -1.97061,4.59689 -1.07211,2.89234 -1.17247,3.61314 -1.16649,8.377 0.006,3.28715 0.18274,5.48738 0.48358,5.95697 0.47704,0.74464 0.47704,0.74464 0.75904,0 3.62129,-9.56233 9.39857,-16.52298 16.44004,-19.80752 3.83337,-1.78811 5.94304,-2.28016 6.84702,-1.59698 0.9758,0.73744 0.7229,1.0309 -1.12885,1.30995 -2.74858,0.41421 -5.47886,1.48576 -7.67966,3.01408 -2.56589,1.78183 -7.28597,7.08122 -8.91267,10.00656 -1.47393,2.65061 -3.841,8.37702 -3.46271,8.37702 0.14592,0 1.58372,-0.98535 3.19509,-2.18968 5.09514,-3.80797 13.85138,-7.50695 20.37022,-8.60517 3.19984,-0.53906 6.45146,-0.3261 11.90249,0.7795 5.05204,1.02468 7.93501,2.51966 12.17785,6.31485 2.89033,2.58535 3.86326,3.75536 5.1108,6.14612 1.45899,2.796 1.53912,3.14077 1.50831,6.48982 -0.0179,1.9613 -0.36308,4.86386 -0.77446,6.51547 -0.73705,2.95897 -3.76076,9.47026 -5.32593,11.46888 -2.8218,3.60326 -5.85843,6.78811 -6.55196,6.87176 -1.55108,0.18712 -7.57833,-4.66748 -9.8836,-7.96071 -0.68829,-0.98325 -1.1789,-0.22202 -1.50994,2.34275 -0.2984,2.31192 -1.70038,5.06596 -3.5614,6.99605 -1.36874,1.41956 -2.8311,1.71268 -3.72425,0.74658 -0.28999,-0.31365 -1.17727,-1.21097 -1.97178,-1.99406 -0.79452,-0.78308 -1.7884,-2.11811 -2.20863,-2.9667 -0.42023,-0.84858 -0.89096,-1.5429 -1.04608,-1.5429 -0.15513,0 -0.5123,0.71205 -0.79368,1.58232 -0.2814,0.87028 -1.04647,2.61154 -1.70018,3.86942 -0.65369,1.25791 -1.18855,2.43757 -1.18855,2.62145 0,0.1839 1.09363,3.42696 2.43028,7.20683 4.47918,12.66655 7.8717,24.01152 8.42083,28.16034 0.1578,1.19227 0.55231,2.75415 0.87666,3.47086 0.67474,1.4909 3.1921,12.19749 3.58911,15.26475 0.14577,1.12626 0.62363,4.39327 1.0619,7.26007 0.43828,2.86678 0.86483,5.76358 0.94789,6.43733 0.0831,0.67373 0.2418,1.30763 0.35278,1.40869 0.11114,0.10116 2.75609,-0.56853 5.87801,-1.48797 3.12193,-0.91943 7.14814,-2.02987 8.94715,-2.46763 1.79899,-0.43778 4.3592,-1.11523 5.68937,-1.50548 3.28922,-0.96501 4.5664,-0.91989 5.36466,0.18947 0.58382,0.81137 0.58719,1.16164 0.0345,3.59292 -0.4007,1.76294 -1.0449,3.24247 -1.86403,4.28115 -0.68847,0.87296 -1.25177,1.79239 -1.25177,2.04316 0,0.25079 -0.68994,1.15652 -1.53321,2.01272 -0.8433,0.85621 -2.58855,2.80168 -3.87834,4.32322 -1.28981,1.52156 -3.18492,3.63055 -4.21138,4.68667 l -1.86629,1.92019 3.80253,1.7546 c 8.58397,3.96093 11.36646,5.45223 11.36646,6.09191 0,0.35169 -0.64397,1.2078 -1.43103,1.90246 -0.78704,0.69463 -1.43101,1.44806 -1.43101,1.67423 0,0.22617 0.78194,0.78676 1.73766,1.24573 2.15344,1.03416 2.10795,1.0094 9.31172,5.06993 7.16734,4.03998 10.17621,5.95226 12.86908,8.17894 1.12438,0.92973 2.13631,1.69165 2.24876,1.69318 0.11245,10e-4 0.58833,-0.64146 1.05758,-1.42888 0.6529,-1.09555 0.79683,-1.81589 0.61313,-3.06848 -0.4311,-2.93948 0.24986,-9.17369 1.19652,-10.95443 0.82012,-1.54271 0.83042,-1.70784 0.22293,-3.5707 -0.79771,-2.446 -0.82507,-6.36384 -0.0539,-7.72174 0.52356,-0.92199 0.49776,-1.19538 -0.25319,-2.68077 -0.48346,-0.9563 -0.92498,-2.79807 -1.04657,-4.36586 -0.19371,-2.49745 -0.3272,-2.82071 -1.6889,-4.0897 -0.81324,-0.75786 -2.39855,-1.8043 -3.52291,-2.32548 -1.90409,-0.88256 -2.05282,-1.05295 -2.16817,-2.48391 -0.10082,-1.25036 0.0493,-1.6468 0.80651,-2.12973 1.33605,-0.85216 3.02004,-0.73251 4.74917,0.33741 0.98448,0.60919 2.07183,0.93161 3.14698,0.93323 2.10947,0.002 3.8195,1.03696 4.97821,3.00959 0.50152,0.85381 1.32853,1.74157 1.83779,1.97277 1.71191,0.77718 3.23055,3.23835 3.48406,5.64635 0.20026,1.90234 0.44924,2.42295 1.77084,3.70283 0.8458,0.81907 1.74486,1.85785 1.99792,2.30841 0.699,1.24446 1.04545,6.17056 0.5289,7.51989 -0.39211,1.02423 -0.30295,1.37372 0.7467,2.92746 1.41603,2.09604 2.02274,5.09681 2.31382,11.44444 0.41537,9.05761 0.29159,10.63651 -1.08939,13.89734 -0.69429,1.63946 -1.63376,3.41076 -2.08771,3.93625 -0.92002,1.06507 -0.8476,1.27221 1.20119,3.43598 1.77412,1.87366 9.65522,11.57725 11.81336,14.5451 3.28852,4.5224 6.11787,10.05612 5.45178,10.66268 -0.58824,0.53563 -1.31113,-0.14185 -3.35097,-3.14054 -2.69473,-3.96136 -5.40423,-7.65503 -7.89275,-10.75958 -2.78392,-3.47303 -3.83569,-4.87252 -5.52615,-7.35312 -1.33186,-1.95437 -2.4734,-2.5472 -2.4734,-1.28449 0,0.3686 -0.198,0.85047 -0.44,1.07083 -0.3141,0.28604 0.13929,0.92819 1.58454,2.24424 3.65159,3.32515 6.7643,8.63467 7.24683,12.36125 0.0953,0.73607 0.36943,2.42729 0.60915,3.75831 0.9781,5.4302 1.10311,6.64392 1.18451,11.50017 0.0527,3.15092 -0.1648,6.59544 -0.57536,9.10688 -0.6298,3.85292 -0.62621,4.06272 0.0782,4.54899 0.40606,0.28036 0.85284,0.51508 0.99284,0.52159 0.5269,0.0244 5.49204,3.84235 6.78271,5.2154 1.4979,1.59351 1.61031,1.87036 0.7595,1.87036 -0.65768,0 -2.21584,-0.85945 -6.2478,-3.4462 -1.5181,-0.97394 -2.94586,-1.71445 -3.17279,-1.64557 -0.22696,0.0689 -0.61408,0.78199 -0.86028,1.58465 -0.32948,1.07421 -0.6913,1.49201 -1.37089,1.58293 -0.73003,0.0978 -0.87733,-0.0191 -0.70395,-0.55846 1.07692,-3.3492 2.08434,-13.82763 1.74025,-18.10064 -0.15196,-1.88693 -0.37365,-4.77109 -0.49266,-6.40928 -0.45003,-6.19527 -2.58182,-13.50804 -4.63487,-15.89924 -0.40363,-0.47011 -1.21044,-1.71391 -1.7929,-2.76404 -1.93644,-3.49119 -3.89792,-4.77385 -8.97696,-5.87021 -4.1328,-0.89208 -6.76942,-1.02566 -12.16572,-0.61628 -5.27082,0.39987 -7.7358,0.91363 -10.46177,2.18048 -2.73642,1.27174 -3.20176,2.01317 -3.36907,5.36793 -0.0986,1.97663 0.009,3.07508 0.31932,3.24953 0.25753,0.14492 1.61193,0.11887 3.0098,-0.0578 12.20478,-1.54308 16.90141,0.20896 21.14042,7.88624 0.86644,1.56919 1.69649,3.51137 1.84457,4.31594 0.14808,0.80458 0.50581,2.04928 0.79497,2.76597 0.28915,0.7167 0.65082,1.93136 0.80371,2.69926 0.25999,1.30582 0.21244,1.39617 -0.73513,1.39617 -1.04604,0 -1.19503,-0.23049 -1.68456,-2.60619 -0.58288,-2.82866 -2.41598,-7.54649 -3.73075,-9.60179 -2.74148,-4.28563 -5.62994,-5.77661 -11.18972,-5.77602 -3.62755,3.7e-4 -9.28832,0.7586 -9.65075,1.29261 -0.1156,0.17032 -0.64466,0.30968 -1.17565,0.30968 -1.33219,0 -7.79145,2.11373 -9.40798,3.07866 -3.76807,2.24921 -5.0659,7.54324 -2.81161,11.46904 0.80966,1.41001 1.24088,1.81414 1.73766,1.62852 0.36344,-0.13579 1.68711,-0.47153 2.94151,-0.74609 4.29214,-0.93945 8.60661,0.19984 12.47328,3.29372 3.38822,2.71105 8.2638,9.24153 6.85779,9.18551 -0.6546,-0.0261 -3.27625,-2.39719 -4.80193,-4.34305 -0.83531,-1.06535 -2.47541,-2.72419 -3.64467,-3.68632 -4.9179,-4.04668 -9.18903,-4.24735 -16.23168,-0.76253 -1.2368,0.61198 -2.98469,1.43969 -3.88421,1.83935 -4.30315,1.91194 -9.31571,5.96161 -9.87047,7.97444 -0.45379,1.64639 0.59851,7.05633 1.85887,9.55642 2.00001,3.96732 4.64558,5.41252 8.56025,4.67619 2.63331,-0.49531 5.71154,-1.8118 7.89189,-3.37521 2.3032,-1.65148 3.2024,-1.33857 2.10148,0.73132 -0.62866,1.18201 -0.61574,1.23815 0.53988,2.34509 0.65121,0.62375 1.96594,1.55392 2.92166,2.06704 2.80337,1.5051 2.00182,2.53525 -1.12437,1.44508 -0.5168,-0.18022 -0.61737,0.32818 -0.63922,3.23165 -0.0223,2.95866 -0.18378,3.74497 -1.14291,5.56479 -0.61431,1.1656 -1.96294,2.97612 -2.99698,4.0234 -1.36166,1.37911 -1.75663,2.01645 -1.4325,2.31162 0.54881,0.49975 3.65037,0.98762 6.46819,1.01746 2.10102,0.0221 3.36569,0.69253 2.82095,1.49512 -0.14508,0.21375 -1.19847,0.38862 -2.34088,0.38862 l -2.07712,0 0.23008,1.76847 c 0.24958,1.91821 2.49476,8.63911 3.38918,10.14549 0.30395,0.51193 0.81985,1.69046 1.14645,2.61896 1.31445,3.73693 5.1319,10.88386 7.50226,14.04564 0.961,1.2817 1.74724,2.43056 1.74724,2.55286 0,0.1223 0.75428,1.0839 1.6762,2.1371 1.43435,1.6385 1.56876,1.9345 0.93142,2.0511 -0.79094,0.1448 -3.19833,-2.0944 -5.55006,-5.16243 -3.4623,-4.51673 -9.0402,-15.82407 -11.75435,-23.8279 -2.30956,-6.81075 -2.02847,-6.36728 -4.50077,-7.10119 l -2.17664,-0.64612 -2.70316,1.50667 c -4.25871,2.37373 -7.74092,3.51374 -12.83913,4.20324 -1.74082,0.23547 -2.04725,0.42292 -2.75436,1.68504 -0.43758,0.78104 -1.13131,1.64058 -1.54162,1.91007 -1.31091,0.86105 -1.32559,1.27893 -0.15789,4.50282 1.58115,4.36534 3.40554,6.99994 7.23032,10.44123 4.52311,4.06952 9.601,7.00124 14.51465,8.37977 1.13779,0.3193 10.27568,1.534 11.72212,1.5583 0.18662,0 0.0632,0.1681 -0.27399,0.3666 -1.24825,0.7345 -7.48932,0.4217 -11.21817,-0.5622 -7.03284,-1.8559 -12.35532,-4.8228 -17.3183,-9.65393 -3.03373,-2.95318 -4.24276,-4.94855 -6.44291,-10.63334 -1.34605,-3.47797 -1.8065,-4.28156 -2.45317,-4.28156 -0.43784,0 -0.76643,0.16754 -0.73015,0.3723 0.0362,0.20479 0.16748,1.96722 0.29155,3.91656 0.12409,1.94935 0.49271,4.23369 0.81921,5.07635 1.72898,4.46239 5.11166,9.09686 8.94401,12.2538 3.41575,2.81382 9.50735,4.99442 13.98585,5.00682 1.13335,0 2.33662,0.1681 2.67395,0.3667 0.42083,0.2476 -0.55571,0.3627 -3.11185,0.3666 -3.65708,0 -8.02443,-0.8959 -10.81603,-2.2325 -1.12738,-0.5399 -4.66921,-3.09151 -5.90196,-4.252 -3.23915,-3.04928 -7.16999,-9.24482 -7.98828,-12.59071 -0.28797,-1.17743 -0.60025,-2.14078 -0.69399,-2.14078 -0.0938,0 -1.21437,0.72951 -2.49031,1.62118 -4.10292,2.86717 -7.30408,3.93272 -9.67459,3.22032 -1.26742,-0.3809 -1.51556,-0.31346 -3.2289,0.87743 -2.14362,1.49005 -6.67741,3.15611 -11.80287,4.3376 -5.10151,1.17582 -10.98669,0.9794 -14.25309,-0.47583 -4.28355,-1.9084 -10.44223,-8.20733 -11.85064,-12.12048 -0.27111,-0.75322 -0.72745,-1.70458 -1.0141,-2.11412 -1.33986,-1.91423 -3.02474,-11.02533 -3.06033,-16.54898 -0.0242,-3.73669 0.60037,-9.66242 1.26727,-12.02589 0.21666,-0.76789 0.58954,-2.10821 0.8286,-2.97851 0.45468,-1.6552 0.53402,-1.83167 3.16974,-7.04954 2.7823,-5.50812 5.29168,-7.65935 10.92847,-9.36876 4.90789,-1.48835 6.95028,-1.33623 14.03434,1.04538 1.66753,0.5606 1.85845,0.55719 2.86204,-0.0511 0.59142,-0.35854 2.14977,-1.11858 3.46301,-1.68897 2.6399,-1.14661 5.68919,-1.35283 9.71741,-0.6572 1.53378,0.26488 2.24319,0.2607 2.34367,-0.0137 0.0792,-0.21647 0.5603,-0.84812 1.06904,-1.40369 0.83904,-0.91626 0.94888,-1.52892 1.18225,-6.59476 0.23052,-5.00467 0.51432,-7.1098 1.8641,-13.82788 0.34532,-1.71868 2.44948,-8.1008 3.297,-10.00006 3.46426,-7.76335 4.45627,-9.62745 5.07866,-9.54346 0.1933,0.0261 0.40691,2.24656 0.47468,4.93442 0.11011,4.36511 0.76697,8.14601 1.41527,8.14601 0.12932,0 0.4781,-1.04712 0.77488,-2.32693 1.63626,-7.05549 4.26276,-14.99985 6.18535,-18.70863 0.42456,-0.8191 1.52586,-2.99712 2.44729,-4.84005 0.92141,-1.84294 2.87106,-5.19375 4.33253,-7.44622 4.31902,-6.65657 5.37294,-8.03446 9.44111,-12.34326 l 2.16292,-2.29084 -3.85874,-2.09675 c -4.32248,-2.34871 -8.8365,-4.30511 -9.93093,-4.30404 -0.39847,3.6e-4 -1.82841,1.00798 -3.17767,2.23911 -4.61819,4.21388 -17.76316,14.0011 -23.50961,17.50429 -7.51285,4.58009 -20.67482,11.90237 -21.39475,11.90237 -0.15903,0 -1.89585,0.82417 -3.85961,1.83147 -1.96375,1.00729 -4.5792,2.19301 -5.81212,2.63489 -1.23292,0.44188 -3.16479,1.18605 -4.29307,1.65371 -4.82604,2.00041 -14.27597,5.60831 -15.8505,6.05158 -0.55549,0.15641 -0.71551,-0.0164 -0.71551,-0.77274 0,-0.53581 0.13989,-0.9742 0.31087,-0.9742 0.29008,0 3.1085,-3.29417 5.99891,-7.01151 0.68981,-0.88713 1.77921,-2.18557 2.42093,-2.88541 0.6417,-0.69983 1.0726,-1.27242 0.95755,-1.27242 -0.32594,0 -5.59706,2.58446 -7.64394,3.74789 -2.56483,1.45782 -8.84345,3.72812 -13.6969,4.95273 -2.24875,0.5674 -4.5486,1.15058 -5.11079,1.29595 -0.78844,0.20389 -0.99439,0.4746 -0.90078,1.18394 0.27764,2.10326 0.0877,3.74106 -0.56843,4.90065 -0.87245,1.54198 -5.86611,6.27144 -8.4457,7.99889 -1.06817,0.7153 -1.94171,1.4957 -1.94123,1.73421 4.1e-4,0.23855 1.11431,1.94155 2.47518,3.78447 4.83576,6.54876 11.12521,16.93738 13.69513,22.62106 0.5779,1.27809 1.49952,3.20796 2.04805,4.28861 0.54853,1.08064 0.99732,2.04583 0.99732,2.14484 0,0.0991 0.34682,0.89026 0.7707,1.75831 1.55493,3.18416 3.93528,10.07472 4.72521,13.67837 0.33665,1.53579 0.8692,3.88134 1.18343,5.21236 0.53449,2.26394 0.87379,4.28804 1.91917,11.44857 0.23166,1.58697 0.49383,4.72676 0.58258,6.97729 0.17577,4.45756 -0.69339,13.45912 -1.35802,14.06435 -0.59803,0.54457 -2.73527,-1.2041 -5.06325,-4.14266 -1.35053,-1.70473 -1.95141,-2.22776 -1.97267,-1.71707 -0.0168,0.40391 -0.0131,2.99618 0.008,5.76058 0.0338,4.32541 -0.27378,9.11428 -1.02805,16.00932 -0.29219,2.671 -2.83203,12.05 -4.48658,16.5679 -1.93368,5.2799 -5.5821,13.6344 -6.52869,14.95 -1.34471,1.8688 -1.62464,1.5282 -6.939,-8.4346 -1.69299,-3.174 -3.41905,-6.3572 -3.83566,-7.0739 -0.69136,-1.1893 -2.88536,-6.0899 -5.50074,-12.2863 -1.35996,-3.2222 -4.7208,-16.16 -5.44011,-20.94242 -0.28689,-1.90743 -0.75145,-2.26925 -1.19515,-0.93078 -0.15274,0.46073 -0.82601,1.6611 -1.49622,2.66748 -0.88206,1.32453 -1.15536,2.11731 -0.98984,2.87101 0.1258,0.57263 0.0791,1.12542 -0.10382,1.22823 -0.62593,0.35237 -2.5037,-2.83161 -3.35239,-5.68422 -1.79842,-6.04491 -3.52454,-13.3216 -3.31344,-13.96836 0.0574,-0.17619 -0.28844,-2.43797 -0.76878,-5.02619 -0.79487,-4.28291 -0.85235,-5.60932 -0.63942,-14.75826 0.27646,-11.879 1.25652,-18.77903 3.65918,-25.76145 0.55006,-1.59856 1.1298,-3.4929 1.28826,-4.20959 0.86533,-3.91327 5.85042,-15.00361 8.21721,-18.2808 0.68834,-0.95314 0.67433,-0.99726 -0.89161,-2.80997 -2.30011,-2.66257 -5.4676,-8.84552 -5.48073,-10.69839 -0.0162,-2.28033 -0.005,-2.27572 -5.63808,-2.29598 -5.36657,-0.0192 -7.79501,-0.48224 -14.34876,-2.73552 -2.262695,-0.77793 -2.903886,-0.74705 -2.903886,0.13982 0,0.27848 -0.263075,0.98064 -0.584605,1.56032 -0.321529,0.57974 -0.980074,2.31059 -1.46338,3.84639 -0.483351,1.53579 -1.249896,3.96511 -1.703472,5.3985 -2.529679,7.99442 -4.45388,21.24058 -3.835951,26.40677 l 0.308431,2.57887 1.49851,-2.59317 c 0.824175,-1.42621 2.553927,-3.83005 3.843897,-5.34184 1.289988,-1.51178 2.345441,-2.96143 2.345441,-3.22146 0,-0.26001 0.196687,-0.58345 0.437095,-0.71874 0.30664,-0.17258 0.35656,1.12559 0.1673,4.34987 -0.14839,2.52772 -0.33816,4.6966 -0.421695,4.8197 -0.772184,1.13766 -1.452149,33.78195 -0.844678,40.54984 0.101089,1.12624 0.398261,5.23099 0.660413,9.12164 0.26213,3.89065 0.73796,8.58177 1.05742,10.4247 0.31946,1.84295 0.86653,5.4451 1.21567,8.00474 1.20812,8.85646 2.31196,13.89596 4.04087,18.44806 2.15677,5.6786 2.59939,6.7245 3.6547,8.6357 0.53765,0.9736 1.85327,3.3618 2.92358,5.3072 1.64751,2.9944 4.12785,7.161 5.54085,9.3078 0.20216,0.307 0.75811,1.2286 1.23545,2.0477 2.0149,3.4576 5.04191,8.2184 5.44845,8.5692 1.14414,0.9874 1.91056,2.0138 2.07133,2.774 0.097,0.459 0.53497,1.3877 0.97314,2.0638 l 0.79672,1.2296 -0.88365,0.2159 c -0.48598,0.1187 -0.97563,0.2071 -1.08806,0.1963 -0.11246,-0.012 -1.49233,-1.8544 -3.06646,-4.0966 z m 24.61156,-13.4653 c 1.28635,-1.5577 5.90943,-14.2854 6.86307,-18.895 0.3601,-1.7405 0.81987,-3.5268 1.02172,-3.9698 0.37425,-0.821 1.15234,-4.9594 2.12362,-11.2947 0.58428,-3.81135 0.74676,-18.68112 0.23732,-21.7173 -0.31729,-1.89091 0.19822,-2.26143 1.09344,-0.78592 0.24092,0.39714 1.4291,2.14635 2.64036,3.88712 2.40749,3.45995 4.0808,5.28725 4.58289,5.00468 0.7267,-0.40897 0.84927,-3.94509 0.38355,-11.06685 -0.27069,-4.13972 -0.83209,-9.28595 -1.24753,-11.43604 -1.28765,-6.6642 -3.2542,-14.22974 -4.05139,-15.58611 -0.24132,-0.41065 -0.4388,-1.17256 -0.4388,-1.69315 0,-0.91542 -2.16402,-6.59093 -3.7313,-9.78597 -0.4214,-0.85903 -0.76618,-1.69807 -0.76618,-1.86451 0,-0.16645 -0.43489,-1.05521 -0.96645,-1.97505 -0.53156,-0.91985 -1.20122,-2.3426 -1.48813,-3.16169 -0.28694,-0.81908 -1.1083,-2.66202 -1.82527,-4.09543 -0.71698,-1.43339 -1.5652,-3.18341 -1.88497,-3.88891 -2.72127,-6.00385 -9.98361,-17.51897 -11.04882,-17.51897 -0.18649,0 -1.21938,0.51081 -2.29535,1.13514 -1.67479,0.97178 -2.22108,1.10473 -3.79618,0.9238 -1.01196,-0.11628 -2.05811,-0.0792 -2.32481,0.0821 -1.5873,0.9606 -6.84347,12.26078 -8.87515,19.08066 -0.80109,2.68895 -2.6681,10.26888 -2.88456,11.71097 -0.0936,0.62358 -0.5628,2.93015 -1.04272,5.12572 -0.80369,3.67694 -0.8591,4.88147 -0.70221,15.26476 0.18977,12.56225 0.71486,17.27491 2.70698,24.29562 0.69598,2.45279 1.26543,4.6618 1.26543,4.90889 0,0.24707 0.18733,0.89787 0.41628,1.44625 l 0.41628,0.99702 0.9664,-1.29678 c 2.91517,-3.91173 3.14803,-4.50243 3.06807,-7.78364 -0.0669,-2.74574 0.30417,-6.59523 0.67065,-6.95718 0.0726,-0.0718 0.32822,-0.0199 0.56807,0.11508 0.27323,0.15377 0.43588,2.07935 0.43556,5.15656 -4e-4,5.229 -0.0452,4.99907 3.74705,19.24514 0.89941,3.37879 2.46953,8.32109 3.48913,10.98309 1.0196,2.6619 2.40939,6.3478 3.08839,8.1908 0.679,1.8431 1.54938,4.021 1.93414,4.8402 0.38477,0.8191 0.95789,2.075 1.27356,2.7911 0.3157,0.7162 1.26629,2.4753 2.11243,3.9093 0.84614,1.434 1.95008,3.3991 2.45318,4.367 0.9757,1.8769 1.20719,2.0445 1.81225,1.3119 z m 49.67911,-42.02703 c 1.19168,-0.23173 2.94274,-0.90621 3.89129,-1.49903 2.53907,-1.58669 6.65706,-7.17336 6.65706,-9.03124 0,-0.23967 -0.8361,-0.63941 -1.85801,-0.88828 -1.44095,-0.35094 -2.51925,-1.0577 -4.80413,-3.1488 -4.32246,-3.95588 -6.50044,-7.90803 -8.41352,-15.2671 -1.5433,-5.93665 1.09778,-17.35029 4.76526,-20.5937 1.3891,-1.22846 1.40607,-1.27896 0.74051,-2.20392 -1.58438,-2.20189 -7.15595,-5.03128 -9.85109,-5.00264 -3.59033,0.0383 -5.80259,1.75346 -8.51731,6.6041 -3.06467,5.47598 -3.96471,9.75284 -3.97449,18.88609 -0.005,5.06352 0.17629,7.307 0.83452,10.3045 2.16261,9.84807 4.74745,15.22359 9.16564,19.06127 1.84071,1.59879 3.67453,2.44409 6.17141,2.8445 2.46453,0.3952 2.84664,0.39037 5.19286,-0.0661 z m 14.30167,-3.53294 c 5.07246,-2.30379 6.0179,-3.70214 7.52129,-11.12449 2.18549,-10.78983 -1.93082,-28.74833 -8.49685,-37.06936 -0.96558,-1.22369 -2.31511,-2.93345 -2.99893,-3.7995 -1.5521,-1.96568 -4.90202,-3.82816 -7.90845,-4.3969 -3.14446,-0.59486 -8.79526,-0.25975 -11.09452,0.65795 l -1.8323,0.73132 2.93359,0.22711 c 3.17211,0.2456 4.53885,0.75745 7.69686,2.88247 5.30373,3.56893 9.44525,9.69422 11.98977,17.73282 1.56039,4.9295 1.89505,7.605 1.90339,15.21555 0.009,8.41034 -0.60332,11.89454 -2.59359,14.75229 -0.62682,0.90003 -1.47508,2.43615 -1.885,3.41354 -0.40993,0.97743 -0.90504,1.867 -1.10023,1.97686 -0.19517,0.1099 -0.2486,0.35629 -0.1186,0.54764 0.35903,0.52896 2.075,0.0283 5.98367,-1.7473 z M 61.611204,986.28014 c 11.759462,-2.16817 19.612018,-4.99109 26.082929,-9.37662 1.434118,-0.97195 3.91079,-2.60488 5.503735,-3.62873 l 2.896206,-1.86155 -0.314911,-5.58466 c -0.173218,-3.07157 -0.30714,-6.25484 -0.297593,-7.07393 0.03368,-2.89234 0.5932,-16.05325 0.823132,-19.36018 0.128146,-1.84294 0.309199,-4.52359 0.40238,-5.95697 0.0931,-1.43339 0.448806,-4.43244 0.790281,-6.66453 0.34152,-2.23213 0.551598,-4.12151 0.466875,-4.19864 -0.442857,-0.40328 -2.774696,3.2592 -4.728841,7.42719 -2.319199,4.94675 -4.500164,0.83676 -3.965361,-7.47267 0.327337,-5.08602 0.606711,-8.00985 0.914301,-9.56847 0.121347,-0.61429 0.373522,-2.0384 0.560668,-3.16463 0.448632,-2.70002 1.715837,-7.24287 3.724426,-13.35195 0.899644,-2.73622 1.55203,-5.05116 1.449732,-5.14432 -0.476522,-0.43391 -4.939859,2.01431 -10.897725,5.97765 -1.686568,1.12193 -4.126887,2.68032 -5.422947,3.46307 -1.296059,0.78275 -4.239864,2.60376 -6.54181,4.04669 -4.859293,3.04596 -4.762202,2.78021 -2.986303,8.17349 0.606841,1.84295 1.378781,4.18851 1.715389,5.21237 0.922996,2.80736 1.757584,5.88836 1.764906,6.51544 0.0052,0.49247 -1.962606,-2.97542 -3.803808,-6.70161 -0.872928,-1.7666 -3.491632,-8.68734 -4.15585,-10.98318 -0.296228,-1.02386 -0.813156,-2.78301 -1.14873,-3.90924 -0.335577,-1.12625 -0.808241,-3.03204 -1.050374,-4.23511 -0.242118,-1.20304 -0.690737,-2.64466 -0.996954,-3.2036 -0.770627,-1.40668 0.01961,-2.69534 3.857008,-6.28962 5.420953,-5.07754 9.979486,-10.15254 11.405208,-12.69731 1.335708,-2.38418 1.558316,-5.3756 0.778545,-10.46277 -0.817995,-5.33651 -1.178428,-6.73245 -2.203327,-8.53358 -3.153507,-5.54187 -5.819691,-6.99339 -12.005944,-6.53631 -5.240059,0.38716 -10.380399,1.44749 -11.966801,2.46847 -4.326782,2.78463 -6.933321,7.56715 -6.652758,12.20662 0.251832,4.1647 3.457537,5.92041 9.954836,5.45215 3.502884,-0.25246 5.676723,0.12718 5.152344,0.8998 -0.11409,0.16806 -1.974611,0.52649 -4.134576,0.79653 -3.824324,0.47814 -3.965036,0.53059 -5.372357,2.00273 -1.609664,1.68377 -3.668339,5.33659 -4.050525,7.18704 -0.340867,1.65041 0.01111,2.65797 1.46502,4.19094 1.306696,1.37798 1.51501,1.86155 0.80187,1.86155 -1.694601,0 -5.697203,-4.54256 -5.697203,-6.46577 0,-2.94457 1.036988,-4.44104 4.884491,-7.04888 l 2.226885,-1.50939 -1.6432,-0.63546 c -1.882765,-0.72815 -4.421162,-3.24302 -5.064222,-5.01732 -0.655328,-1.80816 0.09955,-6.46248 1.465519,-9.03584 1.641276,-3.09202 3.974215,-5.47362 6.431846,-6.56594 1.231341,-0.54728 4.0157,-1.23609 6.622167,-1.63821 4.313686,-0.66552 4.493746,-0.73037 4.405717,-1.58641 -0.251311,-2.44364 -0.05885,-7.70034 0.331299,-9.04925 0.706087,-2.44127 2.06145,-4.22713 6.666162,-8.78343 4.435877,-4.38925 5.643463,-6.11928 6.390742,-9.15572 0.33441,-1.35881 0.293299,-2.15359 -0.188546,-3.64419 -1.366501,-4.22751 -7.402377,-9.16647 -11.202293,-9.16647 -2.029191,0 -5.380921,1.26672 -5.380921,2.03361 0,0.26285 0.389802,1.28034 0.866215,2.26109 1.02195,2.10374 0.850871,4.82676 -0.474669,7.55548 -0.956661,1.96936 -4.086306,6.37657 -5.039866,7.09719 -0.366788,0.27719 -0.66689,0.66273 -0.66689,0.85672 0,0.194 -0.563387,1.09838 -1.251989,2.00974 -2.021177,2.67508 -3.752445,6.40204 -4.02344,8.66143 -0.220179,1.83569 -0.355212,2.08547 -1.065886,1.97169 -1.184582,-0.18965 -1.485085,-0.79835 -1.222356,-2.47588 0.27177,-1.73514 4.709384,-8.99521 7.910297,-12.94144 4.035586,-4.97526 5.106318,-7.83102 4.153034,-11.07649 -0.751231,-2.55757 -3.152863,-4.44327 -7.037215,-5.52545 -4.541643,-1.2653 -6.437092,-0.95774 -10.23213,1.66037 -2.874247,1.98287 -6.292127,5.17036 -7.180136,6.69614 -0.411943,0.70782 -0.271882,0.85429 1.523468,1.59316 3.46306,1.42519 4.988962,4.61007 3.694316,7.71085 -0.232018,0.55568 -2.0259,2.9233 -3.986401,5.26139 -5.21856,6.22354 -5.813322,7.36626 -5.813322,11.16905 0,2.94914 -0.0407,3.09115 -0.782636,2.72958 -0.62488,-0.30452 -0.813625,-0.88884 -0.936278,-2.89851 -0.134178,-2.19728 0.0097,-2.84824 1.135562,-5.12327 0.709066,-1.4334 2.68307,-4.22637 4.386698,-6.20658 6.122452,-7.11648 6.331735,-9.28836 1.103011,-11.44693 -1.011941,-0.41776 -2.426434,-0.76322 -3.143311,-0.76774 -2.033142,-0.0128 -6.583745,1.05672 -8.750317,2.05644 -1.735185,0.80066 -6.50519,4.74575 -6.50519,5.38015 0,0.13161 -0.752133,1.14914 -1.671407,2.26118 -3.973914,4.80717 -8.3150427,14.38271 -9.1029252,20.07896 -0.099144,0.71669 -0.3883342,1.81375 -0.6426727,2.43792 -0.2543398,0.62415 -0.8022024,2.96969 -1.2174551,5.21235 -1.0005419,5.40355 -1.1816028,20.19543 -0.2982732,24.3685 1.3012133,6.14727 5.4134409,13.45868 9.5440972,16.96913 1.676033,1.42437 1.758353,1.58548 1.331593,2.60617 -1.071575,2.56304 -4.5450518,18.0329 -5.0510133,22.49584 -0.1044005,0.92147 -0.5021391,3.43458 -0.8837168,5.58468 -0.6941955,3.91165 -0.9461672,15.02153 -0.405311,17.87093 0.1361153,0.71669 0.5312753,2.64341 0.87829,4.28158 0.3470288,1.63816 0.7266679,3.47861 0.843674,4.08989 0.3025653,1.58082 2.0007931,5.63739 3.2754341,7.82405 2.067151,3.54627 6.796612,8.50014 10.38399,10.8767 0.993441,0.65813 2.975946,1.99845 4.405588,2.97849 5.807645,3.98123 7.3437,4.9722 10.216346,6.59089 2.879468,1.62257 6.482227,3.00485 8.649586,3.31863 3.505046,0.50743 10.126425,0.19584 15.022868,-0.70695 z M 27.371802,896.58336 c 0,-0.30458 0.697742,-0.95488 1.550525,-1.44509 2.155229,-1.2389 4.04964,-3.30536 4.55783,-4.97176 0.626334,-2.05378 0.528119,-6.75315 -0.202037,-9.66716 -1.039633,-4.14911 -6.951212,-14.41926 -10.063063,-17.48245 -1.054562,-1.03808 -0.21968,-1.60187 0.94762,-0.63992 1.230386,1.01394 4.852313,5.49874 7.178591,8.88879 1.914323,2.7897 3.87038,7.11181 4.379,9.67586 0.301474,1.51982 0.354549,6.49801 0.08073,7.5799 -0.682439,2.69712 -3.437929,6.22583 -6.021204,7.7108 -1.81489,1.04327 -2.408059,1.12974 -2.408059,0.35103 z m 196.006438,89.55303 c 1.02545,-0.40026 2.83458,-1.30116 4.0203,-2.00198 4.12649,-2.43897 4.81057,-3.66795 2.31903,-4.16627 -2.41706,-0.48343 -3.18851,-3.91477 -1.38157,-6.145 1.14054,-1.40771 1.7036,-1.76318 3.5612,-2.2483 1.66211,-0.43407 4.79461,0.24928 5.76065,1.25671 0.91845,0.95779 1.14557,0.69882 2.3867,-2.72141 1.10204,-3.03692 1.46895,-9.68949 0.75777,-13.73887 -0.95875,-5.45907 -2.60182,-9.04694 -6.63927,-14.49777 -6.03999,-8.1544 -12.36005,-11.61645 -19.29563,-10.56993 -2.98906,0.45103 -7.18719,2.03695 -7.18719,2.71511 0,0.23992 1.01293,1.43251 2.25097,2.65019 7.92358,7.7933 12.27469,18.2676 13.07502,31.47501 0.30112,4.96936 -0.44347,9.79225 -2.26709,14.6845 -0.66103,1.77336 -1.20188,3.40688 -1.20188,3.63004 0,0.62971 1.78641,0.47992 3.84099,-0.32203 z m 6.37006,-18.65032 c -0.69376,-1.18041 0.24038,-4.62797 1.64064,-6.05503 1.02425,-1.04386 1.27597,-1.1308 2.31495,-0.79936 1.6759,0.53458 2.2369,2.68934 1.16987,4.49357 -1.69799,2.87113 -4.15926,4.0048 -5.12546,2.36082 z m 3.61158,-3.98445 c 0.14681,-1.84764 -0.28069,-2.01706 -1.26416,-0.50102 -0.99607,1.53545 -0.91535,2.34896 0.21849,2.20231 0.76475,-0.0988 0.94114,-0.3859 1.04567,-1.70129 z m -23.95815,15.33357 c 0.65381,-2.13195 0.4167,-11.34325 -0.42694,-16.58674 -0.93989,-5.84187 -2.55951,-10.5739 -5.32852,-15.56832 -2.31235,-4.17082 -2.88411,-4.62846 -4.28517,-3.4299 -1.65715,1.41764 -2.97852,5.42049 -3.33601,10.10592 -0.13279,1.74056 -0.33131,3.83479 -0.44114,4.65389 -0.18442,1.37529 0.3215,4.28374 1.45137,8.3438 0.82744,2.97325 4.73211,9.39033 6.84628,11.2514 1.80537,1.58923 3.85694,2.61916 4.7985,2.40894 0.21261,-0.0476 0.53736,-0.578 0.72163,-1.17899 z m 22.77979,-2.01195 c 0.69881,-0.26358 1.89146,-0.38749 2.6503,-0.27536 1.2844,0.1898 1.39745,0.12338 1.63569,-0.96133 0.3269,-1.48837 -1.1555,-2.99433 -2.94754,-2.99433 -2.54468,0 -5.57854,3.26322 -4.59297,4.9402 0.56686,0.96447 1.38964,1.15552 1.71453,0.39813 0.14818,-0.34544 0.84117,-0.84373 1.53999,-1.10731 z m 16.11275,-5.74751 c 3.47867,-1.10688 5.42736,-2.32819 9.26342,-5.80564 3.65219,-3.3108 5.12335,-5.64873 5.79339,-9.20678 0.55912,-2.9691 0.0689,-5.93816 -1.23731,-7.4933 l -0.73648,-0.87686 -1.60128,0.74271 c -2.3083,1.0707 -5.77835,1.94181 -7.73506,1.94181 -2.68684,0 -5.79231,-1.66405 -7.64297,-4.09543 -1.20219,-1.57944 -1.75301,-2.85657 -2.40861,-5.58468 -0.90265,-3.75594 -0.84019,-5.91682 0.2252,-7.79284 0.57022,-1.00413 3.643,-3.88272 5.37742,-5.03757 0.72756,-0.48444 0.72899,-0.53595 0.0344,-1.23492 -1.17691,-1.18422 -5.64566,-3.0587 -7.85036,-3.29295 -4.02093,-0.42724 -9.03024,1.48947 -13.31456,5.09452 -1.10979,0.93384 -2.01654,1.93907 -2.015,2.23386 9.2e-4,0.29478 0.69067,0.95482 1.53145,1.46674 2.39331,1.45726 4.90349,3.66717 7.61215,6.70161 1.3709,1.5358 2.80921,3.10891 3.19619,3.49579 1.43311,1.43282 4.47442,7.60194 5.52666,11.2105 0.91553,3.13971 1.08348,4.48153 1.07182,8.56316 -0.009,3.31169 -0.22638,5.54075 -0.6869,7.05907 -0.98819,3.25793 -0.97125,3.30474 1.09438,3.02268 0.97212,-0.13274 2.99808,-0.63293 4.50211,-1.11148 z m -1.46542,-8.81394 c -0.92111,-0.48852 -0.97259,-3.61898 -0.0979,-5.95391 1.21784,-3.25102 4.61061,-5.29946 5.35139,-3.23096 0.52271,1.45954 0.28077,5.24716 -0.43854,6.8656 -1.02849,2.31413 -3.0179,3.27239 -4.81491,2.31927 z m 3.09887,-2.66442 c 0.88649,-1.08227 1.53181,-5.49662 0.80351,-5.49662 -1.07952,0 -2.66021,2.56105 -3.13251,5.07533 -0.36891,1.96385 0.88035,2.18982 2.329,0.42129 z m 3.54929,2.14574 c -0.43496,-1.04181 0.3781,-3.60858 1.50102,-4.73845 1.63058,-1.64074 3.61979,0.001 3.16166,2.61056 -0.33634,1.91538 -1.47291,3.04869 -3.05743,3.04869 -0.92244,0 -1.31475,-0.22502 -1.60525,-0.9208 z m 3.26676,-2.6884 c 0,-0.56911 -0.19513,-0.86269 -0.51108,-0.76898 -0.75774,0.22477 -1.64208,2.09509 -1.33265,2.81848 0.23723,0.55461 0.36208,0.52506 1.05638,-0.25002 0.43304,-0.48341 0.78735,-1.29319 0.78735,-1.79948 z m -4.19132,-34.161 c 4.55628,-2.11898 4.39692,-1.91016 3.43804,-4.50413 -0.7981,-2.15908 -0.86083,-2.21972 -2.40663,-2.32778 -0.92682,-0.0648 -2.37205,0.19545 -3.47381,0.62549 -2.00536,0.78275 -5.22331,3.19274 -5.22331,3.91185 0,0.23676 0.63415,0.74145 1.40921,1.12152 0.77504,0.38009 1.81905,1.08834 2.32001,1.57391 0.50095,0.48559 0.97054,0.88286 1.0435,0.88286 0.0729,0 1.3748,-0.57766 2.89299,-1.28372 z m -21.71541,-1.22091 c 3.58519,-1.74132 3.66508,-1.76012 7.52125,-1.76847 l 3.89755,-0.008 1.48162,-1.34889 c 2.44628,-2.22717 5.90435,-3.83388 8.71325,-4.04841 l 2.45318,-0.18736 0.25228,-1.88213 c 0.59037,-4.40421 3.72103,-7.70587 9.15157,-9.65139 4.43437,-1.58863 4.25173,-1.43692 3.75802,-3.12121 -0.68981,-2.35333 0.27321,-6.43171 1.85015,-7.83565 1.26553,-1.12667 4.91122,-2.6808 7.88767,-3.36248 1.26468,-0.28962 1.82147,-0.6841 2.43868,-1.72773 0.60458,-1.02229 4.01233,-4.05463 5.46855,-4.86613 0.18727,-0.10436 2.09321,-7.24914 2.10071,-7.87493 0.009,-0.77382 -2.6507,-2.83682 -8.64777,-6.70703 -6.36223,-4.10588 -17.62771,-10.49341 -18.50689,-10.49341 -0.54211,0 -2.3695,1.85307 -4.03868,4.09542 -3.59561,4.83034 -4.77257,6.63988 -7.54785,11.60472 -4.25914,7.61947 -5.30697,9.96018 -7.38843,16.50478 -1.76409,5.54669 -2.02158,6.64708 -2.74206,11.71811 -0.85409,6.0114 -1.02709,6.26513 -2.56888,3.76713 -1.44147,-2.3354 -2.56854,-5.95743 -2.81693,-9.05242 -0.12684,-1.58121 -0.38318,-2.78913 -0.56953,-2.68425 -0.39074,0.2199 -3.34335,8.74953 -3.98644,11.51618 -0.238,1.02387 -0.63227,3.4532 -0.87618,5.39852 -0.24387,1.9453 -0.6147,4.7935 -0.82402,6.32928 -0.77869,5.71313 -0.89213,7.44621 -0.48739,7.44621 0.22158,0 2.03353,-0.79199 4.02657,-1.75999 z M 135.4956,905.28785 c 2.49816,-0.63157 10.63801,-7.23669 13.34579,-10.82953 1.83094,-2.42933 1.95217,-3.24447 0.71001,-4.77439 -1.19558,-1.47254 -4.61136,-2.66936 -12.82248,-4.49273 -0.90699,-0.20141 -3.75881,-0.31849 -6.33736,-0.26018 l -4.6883,0.106 0.14521,0.9308 c 0.14009,0.89805 0.11742,0.90789 -0.6455,0.27923 -0.43487,-0.35836 -0.98056,-0.65156 -1.21263,-0.65156 -0.79197,0 -0.9677,3.76664 -0.27747,5.94824 2.40093,7.58885 4.05464,10.68455 6.75265,12.64067 2.26572,1.64274 2.60369,1.71686 5.03008,1.10344 z m 167.52682,-14.3244 c 0.8506,-4.36012 -0.0515,-6.29456 -3.75694,-8.0565 -1.82948,-0.86991 -2.56861,-1.02764 -3.9644,-0.84595 -2.29286,0.29847 -6.31012,1.75969 -8.73777,3.17822 -2.0664,1.20748 -4.87893,3.79326 -4.87893,4.48562 0,0.27861 1.23744,0.33264 3.98641,0.174 5.18937,-0.29943 14.22344,1.0982 15.8281,2.44869 0.70086,0.58984 1.23272,0.10659 1.52353,-1.38408 z m -182.25896,-1.1262 c 0.50245,-0.17556 0.64674,-0.79365 0.64674,-2.77035 0,-1.39941 0.19399,-2.65355 0.43108,-2.78698 0.95138,-0.53542 -1.56981,-3.01498 -9.80939,-9.64731 -2.27572,-1.8318 -4.41759,-3.36796 -4.75972,-3.41367 -0.34213,-0.0458 -1.39597,-0.73276 -2.34189,-1.52672 -3.11555,-2.6151 -9.644399,-4.53871 -15.47868,-4.56056 l -3.542668,-0.0132 -0.285309,2.77252 c -0.394418,3.83264 0.242537,5.96511 2.644188,8.85274 4.200399,5.05033 10.864813,9.19545 18.072939,11.24102 4.82529,1.36934 12.85423,2.40065 14.42271,1.85257 z m 33.96905,-4.01773 c 2.47364,-0.72519 6.0614,-1.92332 7.97283,-2.66256 1.91143,-0.73923 5.31522,-2.02821 7.56397,-2.8644 2.24874,-0.83619 4.57699,-1.82803 5.17389,-2.20411 0.5969,-0.37609 1.19049,-0.68378 1.31907,-0.68378 0.12867,0 2.74907,-1.34031 5.82325,-2.97847 7.34356,-3.91324 7.86091,-3.91697 3.93607,-0.0286 -5.98834,5.93288 -7.07807,7.03576 -8.67302,8.77776 -0.93743,1.02386 -1.97136,2.31934 -2.29762,2.87882 l -0.59323,1.01726 3.17542,-1.33631 c 1.74651,-0.73497 3.81942,-1.58036 4.60647,-1.87867 2.98724,-1.13218 5.0831,-2.07327 9.52375,-4.27636 2.52009,-1.25027 6.14591,-3.02262 8.05734,-3.93855 1.91146,-0.9159 3.75132,-1.87934 4.08864,-2.14097 0.33731,-0.26164 0.98127,-0.57747 1.43101,-0.70186 0.44976,-0.1245 2.01366,-0.9787 3.47533,-1.89846 2.65197,-1.66875 4.73484,-2.94433 11.61394,-7.11266 8.64663,-5.23933 9.20738,-5.62064 17.2109,-11.70313 5.36292,-4.07569 13.7414,-11.85263 16.84346,-15.63414 1.59577,-1.94533 3.49871,-4.20713 4.22873,-5.02621 1.41971,-1.593 4.48171,-7.16302 4.48171,-8.15264 0,-0.32818 -0.15455,-0.59668 -0.34346,-0.59668 -1.63501,0 -22.53478,6.24724 -27.25477,8.14686 -1.12438,0.45249 -2.76805,1.10825 -3.65263,1.45721 -3.11155,1.22753 -12.31834,5.55991 -14.54177,6.84285 -1.2368,0.71364 -2.52471,1.40929 -2.86203,1.54584 -0.33731,0.13657 -1.99319,1.07908 -3.67977,2.0945 -1.68656,1.0154 -4.26236,2.46899 -5.72407,3.23022 -1.46168,0.76121 -3.11758,1.67244 -3.67975,2.02494 -0.56218,0.3525 -3.21689,1.957 -5.89937,3.56554 -4.74842,2.84742 -8.86683,5.39667 -15.03444,9.30615 -4.42116,2.80245 -12.48745,8.32289 -14.8417,10.15741 -1.12436,0.87616 -2.50427,1.93623 -3.06646,2.3557 -0.56217,0.4195 -2.13291,1.70109 -3.49049,2.84801 -1.35759,1.14689 -4.42977,3.6589 -6.82706,5.58218 -2.39729,1.92333 -4.47034,3.76185 -4.60678,4.08563 -0.27062,0.64215 0.91627,1.65669 1.61975,1.38457 0.23397,-0.0904 2.44927,-0.75787 4.92289,-1.48304 z m -7.9728,-0.57037 c 0,-0.34285 4.146,-4.07286 12.06553,-10.85499 3.65137,-3.12697 7.10384,-5.83873 13.46833,-10.57884 1.09979,-0.81909 2.90589,-2.24318 4.01354,-3.16464 1.10765,-0.92149 3.16515,-2.42934 4.57212,-3.3508 1.40703,-0.92148 4.05293,-2.68066 5.87982,-3.90927 1.82688,-1.22862 4.26004,-2.82027 5.40705,-3.53695 1.14697,-0.7167 2.97166,-1.92131 4.05477,-2.6769 l 1.96937,-1.37383 1.25569,-4.76932 c 1.49169,-5.66556 2.30741,-12.5681 2.30152,-19.4756 -0.005,-5.14478 -0.45885,-8.02462 -1.93897,-12.28628 -1.05368,-3.03385 -1.59353,-3.82743 -4.17892,-6.14313 -2.42654,-2.17337 -2.68995,-2.36501 -6.83021,-4.96932 -5.20958,-3.27692 -21.12873,-9.64197 -30.48929,-12.19072 -2.99081,-0.81436 -3.78198,-1.17316 -3.78198,-1.71514 0,-0.55637 0.2116,-0.64113 1.12438,-0.45052 1.87849,0.39233 8.39346,2.37412 9.89104,3.0088 0.77394,0.32796 3.76633,1.40708 6.64975,2.39799 8.59729,2.95453 18.7097,8.03697 24.22118,12.17345 2.65402,1.9919 2.91565,2.32601 3.99614,5.1031 0.63591,1.63439 1.34916,3.6418 1.58496,4.46091 2.09651,7.28157 2.07777,19.8659 -0.0436,29.16615 -0.48283,2.11696 -0.7993,3.92055 -0.70327,4.008 0.096,0.0874 1.62835,-0.70564 3.40521,-1.76234 6.45413,-3.83837 16.33469,-8.29078 23.06047,-10.39159 1.46168,-0.45656 3.874,-1.32208 5.36074,-1.9234 l 2.70312,-1.09326 -0.17174,-2.67251 c -0.0944,-1.46986 -0.33654,-3.42642 -0.53799,-4.34787 -0.20144,-0.92148 -0.47841,-2.76443 -0.61548,-4.09544 -0.95472,-9.27111 -5.5401,-28.26985 -9.39231,-38.91558 -0.74279,-2.05269 -1.6631,-4.90087 -2.04516,-6.32927 -0.75431,-2.82012 -3.26222,-10.53335 -3.96161,-12.18416 -0.47572,-1.12284 -0.48643,-1.12648 -2.32775,-0.79116 -0.94902,0.17285 -1.27823,0.43623 -1.27974,1.02387 -9.2e-4,0.71879 -0.094,0.68899 -1.00712,-0.32576 -1.34638,-1.49617 -2.27168,-4.07706 -3.06758,-8.55612 l -0.6603,-3.71607 -1.38767,1.85452 c -0.76318,1.01998 -3.01372,3.31482 -5.00114,5.09964 -2.78853,2.50429 -4.31516,3.54835 -6.68694,4.57324 -1.6904,0.73047 -3.58885,1.42197 -4.21876,1.53668 -1.08194,0.19705 -1.19427,0.0882 -2.0306,-1.96705 -3.07482,-7.55624 -2.82705,-15.88697 0.68209,-22.93432 1.48472,-2.9818 3.35473,-4.91986 5.86438,-6.07792 1.08839,-0.50222 1.97888,-1.01887 1.97888,-1.14811 0,-0.30912 -16.13937,0.20069 -19.87192,0.62772 -1.59726,0.18275 -5.36905,0.4356 -8.3817,0.56187 -3.01263,0.12629 -7.50139,0.48254 -9.97502,0.79166 -2.47361,0.30912 -5.7854,0.70335 -7.35952,0.87609 -12.71239,1.39491 -20.60009,2.62673 -28.5288,4.45528 -3.32274,0.7663 -6.14244,1.48533 -6.26596,1.59782 -0.12357,0.1125 0.15719,0.31492 0.62389,0.44979 1.00815,0.29137 1.11174,1.39423 0.19597,2.08629 -0.3589,0.27125 -1.66311,1.71585 -2.89825,3.21024 -1.2351,1.49439 -2.40139,2.71707 -2.59171,2.71707 -1.13387,0 -2.44358,-0.80843 -2.44358,-1.5083 0,-0.89128 3.14142,-4.77348 4.57009,-5.64776 0.52225,-0.31959 0.82856,-0.6956 0.68068,-0.83559 -0.351,-0.33222 -9.39137,1.94374 -10.04804,2.52965 -0.35228,0.31433 -0.39903,0.84042 -0.15512,1.74594 1.27284,4.72581 2.65044,14.28503 3.11093,21.587 0.39646,6.28679 0.41033,6.32928 2.0644,6.32928 0.77687,0 1.4125,-0.0999 1.4125,-0.22193 0,-0.12212 -0.30412,-1.16919 -0.67587,-2.32694 -1.01752,-3.16914 -1.02577,-13.34024 -0.0131,-15.88053 1.75431,-4.39971 6.17857,-6.33833 9.11121,-3.99232 2.16269,1.73008 4.18719,4.31765 5.67997,7.25972 2.13676,4.21126 2.77419,7.16615 2.5687,11.90747 l -0.17359,4.00552 1.46172,0.3318 c 0.80395,0.1825 1.96771,0.43556 2.58612,0.56236 0.61839,0.12684 1.12436,0.40076 1.12436,0.60871 0,0.43441 -6.20643,0.18719 -11.03931,-0.43972 -4.09218,-0.53085 -17.29048,-0.16102 -21.26082,0.59576 -6.757086,1.2879 -7.930507,2.00988 -10.340296,6.36208 -2.501357,4.51762 -2.334518,16.20904 0.313676,21.98047 1.116377,2.43304 3.613654,4.72617 6.207296,5.69989 4.303634,1.61573 12.680164,1.45251 20.582654,-0.40103 3.39109,-0.79538 10.15169,-3.06897 12.06147,-4.05629 2.66012,-1.37519 7.85235,-4.22666 9.37332,-5.14761 2.66949,-1.6164 7.84021,-6.25798 9.27996,-8.33039 1.58031,-2.27468 1.99392,-2.59909 2.66606,-2.09113 0.90801,0.68621 -0.4235,3.17874 -3.12493,5.84976 -2.69139,2.66109 -10.33279,8.19072 -13.83749,10.01341 -1.11714,0.58096 -4.96522,3.66112 -8.55136,6.84478 -3.58612,3.18364 -8.66311,7.34829 -11.28226,9.25476 -2.61912,1.90648 -4.76202,3.58367 -4.76202,3.7271 0,0.476 7.63906,1.1248 13.2434,1.1248 10.98783,0 21.34985,-2.85839 30.03863,-8.28618 5.67946,-3.54793 16.8208,-13.68239 16.8208,-15.3007 0,-0.4053 -0.443,-0.71264 -1.23512,-0.85689 -2.67111,-0.48648 -1.87101,-1.77748 0.86213,-1.3911 1.4065,0.19884 2.23195,0.64143 3.7461,2.0086 1.06815,0.96444 1.94209,1.94503 1.94209,2.17905 0,0.6294 -1.50945,0.51687 -1.7833,-0.13298 -0.12944,-0.30714 -0.48913,-0.55847 -0.79934,-0.55847 -0.43547,0 -0.6194,1.03923 -0.80723,4.56081 -0.25531,4.78715 -0.52458,6.30482 -2.19649,12.37934 -2.56646,9.32482 -7.83531,15.28148 -17.10553,19.33843 -6.64975,2.91017 -16.99309,5.72443 -23.96487,6.52045 -5.86447,0.6696 -12.49178,0.43225 -16.00145,-0.5731 -0.50891,-0.14578 -0.71551,-10e-4 -0.71551,0.50058 0,0.92185 1.72223,4.76559 3.72262,8.3083 0.87592,1.55126 1.59261,2.94513 1.59261,3.09745 0,0.15232 -0.40354,0.22341 -0.89675,0.15798 -1.59407,-0.21149 -4.43448,-5.31688 -6.25077,-11.23526 -0.3681,-1.19943 -0.56754,-2.27344 -0.44316,-2.38669 0.12435,-0.1132 1.19317,-0.0106 2.37514,0.22902 5.074,1.02681 13.72464,1.32459 16.71419,0.57531 0.55847,-0.13997 3.01467,-3.60376 5.11974,-7.22 2.30941,-3.96723 5.63038,-11.77636 5.12665,-12.05504 -0.15387,-0.0851 -2.30362,0.16267 -4.77724,0.55063 -6.10131,0.95692 -11.24501,1.15915 -16.69532,0.65635 -2.51106,-0.23165 -6.16144,-0.46468 -8.11197,-0.51787 -5.39695,-0.14718 -5.79868,-0.80678 -1.871,-3.07193 1.40546,-0.81053 4.12377,-2.54285 6.04068,-3.84956 4.06405,-2.77035 13.59295,-10.40405 13.3094,-10.66228 -0.1067,-0.0972 -0.80137,0.0222 -1.54369,0.26511 -2.12184,0.69447 -7.05528,1.81566 -10.90757,2.47887 -3.98933,0.68682 -11.42996,0.50436 -15.13657,-0.37118 l -2.117043,-0.50005 -1.094226,1.71759 c -0.601832,0.94469 -3.170705,4.52057 -5.708577,7.94644 -2.537887,3.42584 -4.614348,6.35189 -4.614348,6.50233 0,0.15045 -0.366904,0.61451 -0.815313,1.03126 -1.296347,1.20476 -2.616808,2.84608 -3.904421,4.85314 -2.110876,3.29034 -1.582429,6.85911 2.122529,14.33397 0.76123,1.53579 1.561963,3.04363 1.779407,3.35081 0.217484,0.30716 1.149189,1.64748 2.070485,2.97847 4.341946,6.27284 9.387813,11.54688 13.222497,13.82035 1.59579,0.94611 3.45346,2.26019 4.12806,2.92017 0.67462,0.65998 2.14655,1.76313 3.27091,2.45148 2.42704,1.48582 7.14148,5.55858 11.09125,9.58164 l 2.84524,2.89797 3.91793,-0.42076 c 4.80821,-0.51635 8.21875,-0.10671 13.80957,1.6583 4.20765,1.32842 5.3381,1.53957 5.3381,0.99712 z m 57.27271,-103.47409 c -0.32508,-0.5531 -0.15766,-0.90454 0.8425,-1.76848 2.92485,-2.52647 5.93597,-6.69429 6.51312,-9.01503 0.67279,-2.70534 -3.40571,-4.93423 -9.37425,-5.123 -3.29455,-0.10412 -4.54437,-0.64088 -2.8547,-1.22586 1.0731,-0.37153 5.62933,-0.27695 7.82629,0.16243 2.90326,0.58067 6.82779,4.74771 6.82779,7.24968 0,1.77474 -2.33797,5.46241 -5.12498,8.0836 -2.58343,2.4297 -3.91465,2.89769 -4.65577,1.63666 z m -51.95751,-1.62844 c -1.23406,-0.56739 -1.8829,-1.12177 -1.97052,-1.68363 -0.15223,-0.97603 0.0909,-1.01251 2.22577,-0.33432 2.45097,0.77855 7.61955,0.41826 10.36004,-0.7222 3.08097,-1.28215 8.2692,-6.18306 9.35483,-8.83673 0.84617,-2.06844 2.10845,-2.83679 2.10845,-1.28342 0,1.33576 -1.79381,4.33083 -3.90949,6.52755 -5.35714,5.5623 -13.5978,8.43454 -18.16908,6.33275 z m -10.63042,-4.21905 c -2.58723,-1.08821 -3.31446,-1.79558 -4.76169,-4.63156 -2.06192,-4.04058 -2.63763,-6.54929 -2.69137,-11.72782 -0.0415,-3.99601 0.11311,-5.37634 0.88535,-7.91549 0.51452,-1.69149 1.09883,-3.16736 1.29843,-3.27968 0.19959,-0.11238 0.36292,-0.49455 0.36292,-0.84938 0,-0.82701 3.12355,-3.615 4.62633,-4.12933 1.7181,-0.58806 3.39975,-0.47933 5.14807,0.33287 3.83421,1.78121 5.96254,4.32388 8.02892,9.592 4.10318,10.46102 1.01887,20.86387 -6.81386,22.982 -2.85425,0.77184 -3.44613,0.7355 -6.0831,-0.37361 z m 5.55669,-0.71239 c 3.18573,-1.2121 4.52463,-2.88251 5.94066,-7.41151 1.31456,-4.20443 1.19096,-8.22788 -0.39348,-12.80999 -1.11752,-3.23181 -1.65963,-4.18939 -3.47147,-6.13183 -1.32967,-1.42558 -2.97056,-2.69366 -4.31002,-3.33086 -2.02051,-0.96116 -2.2401,-0.99258 -3.33481,-0.47706 -2.26047,1.06441 -3.74248,3.46482 -5.27047,8.53645 -0.97096,3.22279 -1.05947,5.50189 -0.37316,9.60785 0.47262,2.82741 1.15508,4.13899 0.82858,1.5924 -0.4255,-3.31906 1.50252,-6.52552 3.92375,-6.52552 1.6648,0 3.99535,2.54682 4.9759,5.43765 1.00594,2.96574 1.04536,4.26896 0.17674,5.84325 -1.50292,2.72389 -4.42679,3.34597 -6.49358,1.38155 -1.65064,-1.56888 -1.7663,-1.09754 -0.25645,1.04505 1.56703,2.22365 2.4674,2.99271 3.99042,3.4083 1.72927,0.47191 2.4709,0.44168 4.06739,-0.16573 z m -3.56746,-5.5412 c 1.83542,-1.77905 1.48682,-4.89069 -0.94018,-8.39157 -0.90301,-1.30261 -1.28118,-1.55384 -2.19444,-1.45786 -3.43667,0.36119 -1.98826,10.72682 1.49891,10.72682 0.40178,0 1.13785,-0.39483 1.63571,-0.87739 z m 8.23233,-31.02277 c -1.01194,-0.94153 -2.79053,-2.09904 -3.95246,-2.57226 -1.28021,-0.52139 -2.22122,-1.17206 -2.38829,-1.65143 -0.36969,-1.06068 -0.21048,-1.14694 2.14731,-1.16357 3.48697,-0.0246 6.95781,2.18247 8.07159,5.13264 0.64749,1.71505 0.51141,2.00254 -0.93804,1.98203 -0.75479,-0.0106 -1.67789,-0.55302 -2.94011,-1.72741 z m 154.39096,143.07388 c 2.49805,-4.78997 2.18183,-9.17115 -0.8985,-12.4481 -2.73704,-2.91176 -6.55232,-2.94227 -11.16593,-0.0892 -2.61184,1.61509 -2.71211,1.77969 -4.52556,7.42772 -1.45837,4.54214 -1.58256,5.83135 -0.52532,5.45282 1.26053,-0.45132 6.66521,-1.31286 8.21322,-1.30925 1.60385,0.004 5.03034,1.58209 6.36479,2.93183 0.42837,0.43328 0.85143,0.78779 0.94006,0.78779 0.0887,0 0.80742,-1.23907 1.59724,-2.7535 z m -5.33129,-3.78855 c -1.14727,-1.04469 -0.81097,-3.05912 0.74762,-4.47836 0.76457,-0.69622 1.66198,-1.26586 1.99425,-1.26586 1.87927,0 2.247,3.84137 0.5184,5.41542 -1.15369,1.05057 -2.33665,1.16988 -3.26027,0.3288 z m 2.86848,-1.83224 c 0.42127,-0.58546 0.57197,-1.27569 0.40823,-1.86976 -0.22093,-0.80155 -0.37913,-0.88341 -1.063,-0.55014 -0.95021,0.46306 -2.17748,2.46966 -1.82662,2.98659 0.45768,0.67439 1.8107,0.36538 2.48139,-0.56669 z m -5.57212,-10.24317 c 0.79631,-0.20145 1.9078,-0.36627 2.46999,-0.36627 1.52079,0 4.14004,0.73412 4.81628,1.34989 0.3266,0.29741 0.80248,0.47393 1.05748,0.39225 0.79651,-0.25516 0.38586,-4.56688 -0.7514,-7.88967 -1.21076,-3.53753 -2.63555,-5.02595 -4.81114,-5.02595 -1.94744,0 -5.49339,1.1477 -6.93731,2.2454 -1.14443,0.87 -1.35459,1.32939 -1.7334,3.78903 -0.23709,1.53948 -0.37129,4.05878 -0.29823,5.59842 l 0.13279,2.79938 2.30356,-1.2631 c 1.26692,-0.69472 2.95506,-1.42794 3.75135,-1.62938 z m -1.23596,-12.26579 c 0.67462,-0.38422 2.04229,-0.56725 4.23885,-0.56725 l 3.2429,0 -0.19077,-2.42789 c -0.40371,-5.13795 -3.57568,-7.80861 -7.98911,-6.72644 -2.9495,0.72321 -4.22917,3.87077 -3.35611,8.25494 0.25939,1.30259 0.55423,2.49005 0.65517,2.63878 0.19808,0.29183 1.79652,-0.25938 3.39907,-1.17214 z m -0.17824,-10.97537 c 3.28355,-0.40949 3.47627,-0.51069 3.46635,-1.81996 -0.0187,-2.46082 -2.59061,-5.83881 -4.44563,-5.83881 -1.02377,0 -2.77475,1.67739 -3.31927,3.17977 -0.38476,1.06162 -0.37934,1.72486 0.0251,3.08844 0.67752,2.28355 0.73091,2.35201 1.53833,1.97124 0.37989,-0.17916 1.61062,-0.44045 2.73501,-0.58068 z m -158.61262,-0.96353 c 8.53109,-2.08179 16.419,-5.43134 22.19278,-9.42402 1.93959,-1.34127 2.09215,-1.54186 1.3602,-1.7884 -2.46782,-0.8313 -12.74412,0.92855 -17.22922,2.95056 -3.08049,1.38875 -7.10734,4.39463 -8.81176,6.57763 -2.17149,2.78121 -2.12803,2.81065 2.488,1.68423 z m 155.31616,-7.69378 c 1.60981,-0.47056 1.69143,-0.92403 0.41499,-2.3054 -0.81489,-0.88183 -1.41104,-1.16378 -2.46067,-1.16378 -2.54403,0 -3.4154,2.9196 -1.27821,4.28271 0.71534,0.45627 0.95108,0.46258 1.48653,0.0399 0.34994,-0.2763 1.17678,-0.66036 1.83736,-0.85344 z m -150.88197,-1.39355 c 3.97547,-2.05656 9.06377,-3.18961 15.36953,-3.42244 2.81096,-0.10376 5.51699,-0.2635 6.01349,-0.35489 3.20333,-0.58965 7.9505,-13.05228 8.57002,-22.49853 l 0.20754,-3.16465 -2.55158,2.60618 c -7.13603,7.28874 -12.44038,11.09127 -20.72336,14.85583 -2.81326,1.27862 -4.59971,2.30869 -4.59971,2.65223 0,0.30893 -1.09579,2.45517 -2.4351,4.76942 -2.56988,4.4406 -3.49785,6.35002 -2.98558,6.14326 0.17045,-0.0689 1.58108,-0.7827 3.13475,-1.58641 z m 145.09193,-1.66252 c 0.68482,-1.05564 0.67824,-1.08796 -0.34495,-1.69845 -1.34823,-0.80443 -2.39029,-0.60821 -2.56064,0.48214 -0.13918,0.89083 0.92818,2.29243 1.74573,2.29243 0.25397,0 0.77591,-0.48424 1.15986,-1.07612 z M 127.62419,769.89983 c 0.25833,-0.56313 0.54728,-2.37628 0.64216,-4.02921 0.28913,-5.0387 -2.14932,-10.96053 -6.01522,-14.60809 -1.86934,-1.76375 -2.25372,-1.96401 -3.57298,-1.86155 -1.12583,0.0874 -1.76392,0.43715 -2.6761,1.46662 -1.51274,1.70726 -1.92937,3.35456 -1.94163,7.67676 -0.009,3.36567 0.46504,4.53982 0.94737,2.34383 0.60147,-2.73854 4.80868,-2.81061 6.22405,-0.1066 0.90069,1.72077 1.27522,6.64344 0.63307,8.32084 -0.5954,1.55524 -0.18762,1.80805 2.92852,1.81557 2.19186,0.005 2.39475,-0.0677 2.83076,-1.01814 z m -7.65551,-1.19153 c 0.92382,-1.62675 0.76765,-3.88309 -0.42806,-6.18467 -1.05959,-2.03956 -2.05701,-2.5705 -2.92917,-1.55927 -1.29405,1.50035 -0.73623,5.8711 0.98734,7.73633 1.27543,1.38027 1.58981,1.38127 2.36989,0.007 z m 77.33389,-10.72242 c 3.59725,-1.78497 9.03263,-6.68908 11.96668,-10.79703 1.20662,-1.68936 2.41409,-3.07156 2.68322,-3.07156 0.31005,0 0.49261,0.64811 0.49813,1.76848 0.0131,2.63051 1.16439,9.00889 1.92328,10.65425 0.65436,1.41871 0.67856,1.43084 1.67171,0.83829 2.99836,-1.78897 6.59021,-6.73434 7.14385,-9.83587 0.38458,-2.15456 1.36428,-1.9494 2.1777,0.45603 1.41618,4.18797 3.38474,6.91584 4.9908,6.91584 0.67729,0 2.89889,-2.90011 4.19931,-5.48185 0.81756,-1.62311 1.08897,-2.76684 1.10665,-4.66352 0.0138,-1.42053 0.20115,-2.50831 0.43229,-2.50225 0.22489,0.006 1.22903,1.03912 2.23141,2.29601 2.44634,3.06746 5.74211,6.26964 7.76982,7.54924 1.62737,1.02694 1.67813,1.03417 2.50087,0.35615 1.45634,-1.20012 4.32449,-5.42346 6.73146,-9.91202 2.07184,-3.86358 2.38397,-4.7594 2.88954,-8.29301 0.49756,-3.47779 0.48983,-4.31146 -0.0632,-6.82684 -0.89039,-4.04878 -2.57338,-6.99494 -5.38914,-9.43398 -3.75193,-3.24997 -7.36135,-4.9853 -12.23734,-5.88342 -2.28407,-0.4207 -5.10525,-0.76491 -6.26928,-0.76491 -5.76806,0 -17.03426,4.24955 -23.5909,8.89838 -2.20325,1.56216 -4.24715,3.29858 -4.54196,3.85872 -0.30199,0.57374 -0.87057,1.01842 -1.30223,1.01842 -0.74758,0 -1.83894,-0.75036 -2.11694,-1.45553 -0.28243,-0.71639 -8.89881,-5.17603 -14.24447,-7.37259 -6.86061,-2.81907 -11.16615,-4.20336 -18.29185,-5.88105 -7.32132,-1.72374 -16.58914,-2.39107 -24.22986,-1.74469 -6.76084,0.57196 -13.79356,1.3992 -17.60718,2.07109 -3.80501,0.67036 -15.4486,4.00415 -16.5329,4.73367 -0.22485,0.15131 -2.2487,0.94571 -4.49748,1.76535 -3.95423,1.44126 -10.223844,4.25276 -11.01882,4.9412 -0.642207,0.55614 0.518015,0.39858 5.4992,-0.74685 2.58604,-0.59466 6.26581,-1.3319 8.17723,-1.6383 1.91146,-0.30639 6.29379,-1.00861 9.73851,-1.56049 3.44477,-0.55188 6.37513,-0.90148 6.51197,-0.77689 0.33398,0.30414 -1.16201,1.30907 -1.97088,1.32394 -0.99648,0.0182 -6.08354,1.66252 -8.78354,2.83893 -9.01924,3.92974 -23.189403,14.24069 -27.358756,19.90765 -0.668351,0.90839 -1.635519,2.12656 -2.149269,2.70702 -1.195204,1.35038 -0.850502,1.85222 0.824506,1.20038 5.001639,-1.94635 6.854915,-2.58277 11.943756,-4.10155 3.148243,-0.93958 6.000053,-1.81341 6.337383,-1.94184 0.33729,-0.12842 0.98127,-0.29055 1.43101,-0.36026 0.44973,-0.0697 2.19764,-0.46114 3.88418,-0.86983 4.95834,-1.20154 11.18941,-2.51464 18.39885,-3.87729 3.71041,-0.70132 8.12613,-1.53821 9.8127,-1.85975 6.39934,-1.22004 21.21096,-2.80245 35.3666,-3.7784 1.57413,-0.1086 3.66049,-0.28815 4.63638,-0.39919 2.57597,-0.2931 28.59404,-0.24191 29.12573,0.0572 0.8189,0.46087 -0.31981,1.02319 -2.65666,1.31196 -9.14501,1.13006 -13.82871,7.71107 -13.89241,19.52006 -0.0224,4.16294 0.10683,5.1785 0.92496,7.25921 0.52308,1.33055 1.0366,2.54521 1.14115,2.69927 0.35769,0.52703 1.26246,0.27918 4.07437,-1.11608 z m -16.63198,276.20392 c 0.41144,-0.7 -0.47347,-3.4961 -2.83281,-8.9506 -0.88492,-2.0458 -0.99009,-2.413 -2.4066,-8.4041 -0.43575,-1.8429 -1.10742,-4.5734 -1.49259,-6.0678 -0.38516,-1.4943 -0.58408,-2.8227 -0.44199,-2.952 1.14648,-1.044 12.97334,8.0648 14.15928,10.9051 0.6145,1.4719 0.54877,4.7392 -0.13806,6.8641 -0.61734,1.9098 -3.12709,5.9258 -5.17693,8.284 -1.04513,1.2022 -2.33371,1.4502 -1.67024,0.3213 z m 2.5718,-3.8156 c 3.42374,-5.6783 3.80173,-6.9576 2.94463,-9.9658 -0.65892,-2.3126 -1.07381,-2.9352 -3.51363,-5.2722 -1.76204,-1.6877 -6.55942,-5.1889 -7.11007,-5.1889 -0.47971,0 0.17367,2.8397 1.61558,7.0214 0.75134,2.1791 1.77124,5.3023 2.26645,6.9404 1.41134,4.6688 2.54177,8.0047 2.71249,8.0047 0.086,0 0.57401,-0.6927 1.08455,-1.5396 z m -71.60569,-19.453 c -0.6641,-0.7287 -1.5859,-3.9277 -2.29974,-7.9813 -0.33616,-1.9088 -0.81262,-4.25452 -1.05879,-5.21243 -0.48513,-1.88786 -0.7591,-16.07568 -0.31043,-16.07568 0.15048,0 0.87302,0.87958 1.60564,1.95464 2.70756,3.97305 3.43318,4.95443 4.3447,5.87585 0.51291,0.51848 1.67253,2.24484 2.5769,3.83617 1.75937,3.09603 2.02469,4.71604 1.0983,6.70655 -0.82747,1.778 -1.47575,3.412 -3.01343,7.5955 -1.3802,3.7551 -1.94832,4.3922 -2.94315,3.3007 z m 1.86049,-5.7208 c 0.34727,-0.7679 0.87398,-1.8988 1.17046,-2.5129 2.35548,-4.88059 1.58803,-8.01168 -3.4757,-14.18017 l -2.04763,-2.49437 0.006,2.19408 c 0.0117,3.43756 2.75994,18.38956 3.38034,18.38956 0.18359,0 0.61793,-0.6282 0.96519,-1.3962 z m 64.59452,-79.86068 c -0.21353,-3.08351 -1.07619,-18.39551 -1.20941,-21.46671 -0.0736,-1.69346 0.51224,-2.33702 1.31989,-1.45033 2.06676,2.26897 4.41094,5.1269 7.07829,8.6296 2.99961,3.93905 3.15486,4.24372 3.16869,6.21894 0.0175,2.49065 -0.87495,3.87837 -5.3081,8.25468 -2.04515,2.0189 -3.21025,2.88539 -3.87978,2.88539 -0.90877,0 -0.96761,-0.15446 -1.16958,-3.07157 z m 5.83167,-4.1885 c 0.88488,-1.22862 1.83274,-2.93113 2.10636,-3.78335 0.44227,-1.37761 0.40116,-1.7287 -0.37069,-3.16465 -0.4775,-0.88835 -2.08697,-3.10942 -3.57658,-4.93576 -2.23875,-2.74483 -2.7749,-3.21236 -3.09206,-2.69631 -0.21103,0.34338 -0.29811,0.75039 -0.19352,0.90447 0.17784,0.26203 0.29686,1.94679 0.89585,12.68125 0.12946,2.31988 0.34197,4.47097 0.47227,4.78021 0.28194,0.66903 1.25802,-0.31418 3.75837,-3.78586 z"
       id="path4201"
       inkscape:connector-curvature="0" />
  </g>
</svg>
