<?xml version="1.0" encoding="UTF-8" standalone="no"?>
<!-- Created with Inkscape (http://www.inkscape.org/) -->

<svg
   xmlns:dc="http://purl.org/dc/elements/1.1/"
   xmlns:cc="http://creativecommons.org/ns#"
   xmlns:rdf="http://www.w3.org/1999/02/22-rdf-syntax-ns#"
   xmlns:svg="http://www.w3.org/2000/svg"
   xmlns="http://www.w3.org/2000/svg"
   xmlns:sodipodi="http://sodipodi.sourceforge.net/DTD/sodipodi-0.dtd"
   xmlns:inkscape="http://www.inkscape.org/namespaces/inkscape"
   width="100mm"
   height="100mm"
   viewBox="0 0 354.33071 354.33071"
   id="svg2"
   version="1.1"
   inkscape:version="0.91 r"
   sodipodi:docname="pedro.svg">
  <defs
     id="defs4" />
  <sodipodi:namedview
     id="base"
     pagecolor="#ffffff"
     bordercolor="#666666"
     borderopacity="1.0"
     inkscape:pageopacity="0.0"
     inkscape:pageshadow="2"
     inkscape:zoom="0.35"
     inkscape:cx="937.85714"
     inkscape:cy="402.85714"
     inkscape:document-units="px"
     inkscape:current-layer="layer1"
     showgrid="false"
     inkscape:window-width="1280"
     inkscape:window-height="776"
     inkscape:window-x="0"
     inkscape:window-y="24"
     inkscape:window-maximized="1"
     inkscape:snap-others="false" />
  <metadata
     id="metadata7">
    <rdf:RDF>
      <cc:Work
         rdf:about="">
        <dc:format>image/svg+xml</dc:format>
        <dc:type
           rdf:resource="http://purl.org/dc/dcmitype/StillImage" />
        <dc:title></dc:title>
      </cc:Work>
    </rdf:RDF>
  </metadata>
  <g
     inkscape:label="Capa 1"
     inkscape:groupmode="layer"
     id="layer1"
     transform="translate(0,-698.0315)">
    <path
       style="fill:#000000"
       d="m 147.14391,1024.8866 c -1.2038,-1.8996 -2.85525,-4.4804 -3.66986,-5.7352 -0.81462,-1.2548 -1.48298,-2.4028 -1.48523,-2.5511 -0.002,-0.1483 -0.39587,-0.8579 -0.87472,-1.577 -1.12031,-1.6822 -5.89379,-11.4581 -7.49181,-15.34283 -0.67791,-1.64797 -1.5448,-4.06081 -1.92639,-5.36186 -0.38161,-1.30103 -0.88487,-2.93325 -1.11835,-3.62713 -0.65308,-1.94094 -1.32366,-4.53695 -1.71095,-6.62348 -0.1932,-1.04084 -0.54934,-2.81497 -0.79143,-3.94254 -0.24209,-1.12757 -0.51282,-2.90172 -0.6016,-3.94255 -0.20593,-2.41413 -1.04758,-10.52876 -1.31672,-12.69499 -0.11315,-0.91073 -0.29166,-1.65437 -0.39669,-1.65253 -0.10504,0.002 -0.89449,0.57692 -1.75434,1.27793 -0.85987,0.70102 -2.19656,1.71755 -2.97043,2.25895 -0.77388,0.54142 -1.84292,1.36236 -2.37564,1.82433 -2.20326,1.91056 -11.5703,6.30539 -13.43921,6.30539 -0.23238,0 -1.02543,0.19376 -1.76232,0.43059 -2.56806,0.82534 -4.811154,1.15825 -9.597309,1.42436 -4.702446,0.26147 -4.863743,0.24926 -6.722552,-0.50886 -4.764305,-1.94318 -11.591957,-6.23745 -17.851035,-11.22747 -2.505976,-1.99787 -6.927265,-6.77576 -8.098508,-8.75172 -1.404167,-2.36888 -3.513117,-8.64012 -3.969337,-11.80336 -0.175137,-1.2143 -0.451148,-2.81308 -0.613345,-3.55281 -0.387294,-1.76633 -0.373983,-10.23452 0.02139,-13.63669 0.171379,-1.4745 0.453786,-4.02928 0.627567,-5.67726 0.487882,-4.62636 0.528503,-4.89285 1.524546,-10.00119 0.514439,-2.63837 1.066885,-5.05122 1.227653,-5.36187 0.160767,-0.31065 0.528036,-1.75173 0.816161,-3.20236 0.46179,-2.32506 0.46932,-2.69875 0.06353,-3.15405 -0.713912,-0.80099 -5.199489,-7.32579 -5.678232,-8.25965 -1.33827,-2.61048 -2.628113,-10.17427 -2.632815,-15.43899 -0.0042,-5.09754 1.024793,-13.08999 2.274747,-17.66262 1.576116,-5.7658 4.400598,-12.98182 6.23144,-15.92019 0.213533,-0.34272 0.849392,-1.38055 1.412998,-2.30626 0.563607,-0.92574 2.141206,-2.85336 3.505778,-4.28361 2.9134,-3.05364 5.277278,-4.26792 8.835632,-4.53873 l 2.109787,-0.16056 1.78318,-2.67561 c 0.980751,-1.47157 2.266009,-3.04927 2.856143,-3.50596 0.590123,-0.4567 1.543862,-1.23272 2.119408,-1.72449 1.269163,-1.08444 3.692764,-1.77864 6.218945,-1.78131 2.312392,-0.002 3.819868,0.40368 5.724222,1.5421 l 1.467352,0.87721 1.563388,-0.88121 c 1.911426,-1.07738 4.968466,-1.47682 7.021866,-0.91749 1.06224,0.28934 1.92824,0.91882 3.64141,2.64695 3.0884,3.11533 4.10954,5.80129 3.54225,9.31729 -0.4368,2.70718 -1.68368,4.86463 -4.63222,8.01499 -5.46766,5.84192 -5.98001,6.81706 -5.97325,11.36893 0.006,4.07915 0.0498,4.17839 1.93984,4.40419 2.57645,0.3078 5.335,1.79708 6.61576,3.57169 2.08628,2.89073 3.15305,6.77728 3.4981,12.7445 0.19875,3.43726 0.16906,3.70343 -0.63843,5.72358 -0.76999,1.92639 -2.16052,4.21388 -3.77292,6.20661 -1.06087,1.31112 -6.16218,7.09059 -7.07986,8.02105 -0.6707,0.68004 -0.83857,1.09158 -0.70758,1.73471 0.20928,1.0275 0.7492,3.08559 1.09001,4.1549 0.13822,0.43369 0.48882,1.81752 0.77911,3.07518 0.29029,1.25768 0.62923,2.28668 0.75319,2.28668 0.40314,0 2.95574,-1.82688 4.39741,-3.1472 0.77387,-0.70874 2.04021,-1.73426 2.81408,-2.27893 0.77389,-0.54469 2.05975,-1.53368 2.8575,-2.19775 0.79773,-0.66408 1.54626,-1.20742 1.66338,-1.20742 0.11712,0 0.80112,-0.40544 1.51999,-0.901 0.71888,-0.49555 3.11071,-1.92867 5.31516,-3.18469 3.65847,-2.08447 4.90116,-3.11669 4.08328,-3.39171 -1.30265,-0.438 -4.65679,-2.82014 -6.39733,-4.54342 -3.25926,-3.22693 -4.30472,-6.05708 -3.90831,-10.58012 0.11924,-1.36051 0.22411,-2.78828 0.23304,-3.17284 0.009,-0.38456 0.24731,-0.76971 0.52971,-0.8559 0.79592,-0.24287 4.50469,-0.76183 5.20362,-0.72813 1.36705,0.0659 2.34509,-0.0978 2.34509,-0.39268 0,-0.1707 -0.89195,-1.48358 -1.98208,-2.91749 -2.62466,-3.4523 -4.38457,-6.16254 -5.99392,-9.23057 -2.09446,-3.99283 -4.21035,-9.73482 -4.21602,-11.44125 -0.005,-1.46927 2.8429,-6.30727 8.11782,-13.79105 1.8905,-2.68212 5.63751,-8.70179 5.63697,-9.05594 -3.1e-4,-0.22339 -0.70754,-0.89219 -1.57158,-1.48623 -2.33241,-1.60356 -3.22842,-3.33277 -4.22501,-8.1539 -0.58503,-2.8301 -0.66994,-9.9221 -0.13997,-11.69133 1.94852,-6.50486 4.87977,-8.76738 12.50607,-9.65292 0.94733,-0.11001 1.92121,-0.32393 2.16417,-0.47541 0.46262,-0.2884 0.47347,-0.0761 -0.62177,-12.15667 -0.27284,-3.0095 -1.7637,-12.09393 -2.03724,-12.41371 -0.11252,-0.13155 -4.5239,1.36674 -11.38708,3.86749 -4.17144,1.51998 -7.19407,2.18995 -7.19407,1.59457 0,-0.0938 0.25656,-0.55503 0.57011,-1.02505 0.31356,-0.47004 1.22737,-1.84812 2.03068,-3.06242 3.88205,-5.86817 13.37316,-14.12646 20.50538,-17.84193 1.44337,-0.7519 2.4751,-1.41728 2.29275,-1.47859 -0.58553,-0.19689 -9.36181,1.76114 -14.07746,3.14074 -1.79755,0.52589 -2.35995,0.58528 -2.65777,0.28067 -0.29622,-0.30298 -0.14156,-0.59181 0.71663,-1.33837 0.60191,-0.5236 1.58684,-1.41599 2.18874,-1.9831 1.16823,-1.10068 3.12669,-2.09611 8.60784,-4.37513 9.32308,-3.87644 13.12967,-4.97234 25.78664,-7.42377 2.33998,-0.45322 12.95855,-0.14869 15.94654,0.45732 5.38372,1.0919 17.3026,4.56666 19.38597,5.65168 0.42994,0.2239 1.62593,0.80981 2.65776,1.30202 1.03185,0.49222 3.45899,1.92406 5.39369,3.18189 1.93468,1.25783 3.51502,2.11041 3.51185,1.89465 -0.004,-0.21577 -0.20675,-1.53823 -0.45242,-2.93881 -0.69152,-3.94253 -0.21484,-8.17186 1.39587,-12.38497 0.64308,-1.6821 1.26064,-2.77188 1.75651,-3.09962 1.05795,-0.69924 1.20849,-0.37846 0.4916,1.04759 -0.33548,0.66734 -1.01363,2.41974 -1.50703,3.89426 -0.81989,2.45025 -0.89664,3.06087 -0.89206,7.09658 0.004,2.78471 0.13975,4.64864 0.36981,5.04645 0.36481,0.63082 0.36481,0.63082 0.58047,0 2.76938,-8.10073 7.18755,-13.99745 12.5725,-16.77995 2.93157,-1.5148 4.54493,-1.93164 5.23625,-1.35288 0.74624,0.62472 0.55284,0.87332 -0.86328,1.10972 -2.10198,0.3509 -4.18996,1.25866 -5.87302,2.55338 -1.96226,1.50948 -5.57193,5.99886 -6.81595,8.47707 -1.12719,2.24546 -2.9374,7.09659 -2.6481,7.09659 0.11159,0 1.21114,-0.83474 2.44344,-1.85498 3.8965,-3.22593 10.59282,-6.35952 15.57809,-7.28988 2.44708,-0.45666 4.93374,-0.27626 9.10241,0.66035 3.86353,0.86806 6.06828,2.13454 9.31299,5.34963 2.21038,2.19018 2.95442,3.18136 3.90848,5.20669 1.11576,2.36864 1.17704,2.66071 1.15347,5.49786 -0.0137,1.66151 -0.27766,4.12042 -0.59226,5.51958 -0.56366,2.50669 -2.87604,8.02274 -4.073,9.71587 -2.15797,3.0525 -4.48022,5.75055 -5.0106,5.82142 -1.18619,0.15851 -5.79552,-3.95406 -7.55847,-6.74392 -0.52637,-0.83297 -0.90156,-0.18809 -1.15473,1.98466 -0.2282,1.95854 -1.30035,4.29163 -2.72356,5.92671 -1.04674,1.20258 -2.16508,1.4509 -2.84812,0.63246 -0.22176,-0.26571 -0.90031,-1.02588 -1.50791,-1.68927 -0.60761,-0.66339 -1.36768,-1.79436 -1.68905,-2.51324 -0.32137,-0.71888 -0.68136,-1.30707 -0.79999,-1.30707 -0.11863,0 -0.39177,0.60322 -0.60696,1.34047 -0.2152,0.73725 -0.80029,2.21236 -1.30021,3.27798 -0.49991,1.06563 -0.90894,2.06498 -0.90894,2.22076 0,0.15579 0.83635,2.90315 1.85855,6.10527 3.42545,10.73047 6.01987,20.34137 6.43982,23.85605 0.12068,1.01003 0.42237,2.33318 0.67043,2.94034 0.516,1.26302 2.44115,10.33311 2.74476,12.93154 0.11147,0.95411 0.47691,3.72177 0.81208,6.15037 0.33517,2.4286 0.66137,4.88263 0.72489,5.45339 0.0635,0.57075 0.18492,1.10777 0.26979,1.19338 0.085,0.0857 2.10772,-0.48163 4.4952,-1.26053 2.38749,-0.7789 5.46653,-1.71961 6.84232,-2.09046 1.37578,-0.37086 3.33369,-0.94477 4.35094,-1.27537 2.51543,-0.81751 3.49215,-0.77929 4.10261,0.16051 0.44648,0.68735 0.44906,0.98408 0.0264,3.04375 -0.30643,1.49347 -0.79908,2.74686 -1.42551,3.62677 -0.52651,0.73954 -0.95729,1.51843 -0.95729,1.73087 0,0.21245 -0.52763,0.97974 -1.17252,1.70508 -0.64491,0.72534 -1.97959,2.37344 -2.96596,3.66241 -0.98638,1.28899 -2.43566,3.07563 -3.22064,3.97032 l -1.42724,1.62669 2.90797,1.48641 c 6.56458,3.35551 8.69249,4.61886 8.69249,5.16076 0,0.29794 -0.49247,1.0232 -1.09438,1.61167 -0.60189,0.58846 -1.09436,1.22673 -1.09436,1.41833 0,0.1916 0.59799,0.66651 1.32887,1.05532 1.64684,0.87609 1.61205,0.85511 7.12113,4.295 5.48121,3.42246 7.78223,5.04246 9.8416,6.92879 0.85987,0.78762 1.63375,1.43308 1.71974,1.43438 0.086,8.7e-4 0.44993,-0.54342 0.80878,-1.21048 0.4993,-0.9281 0.60938,-1.53833 0.46889,-2.59946 -0.32968,-2.49019 0.19108,-7.7715 0.91504,-9.28005 0.62719,-1.30691 0.63506,-1.4468 0.17048,-3.02492 -0.61005,-2.07213 -0.63097,-5.39114 -0.0412,-6.54149 0.4004,-0.78106 0.38067,-1.01266 -0.19362,-2.27101 -0.36972,-0.81013 -0.70737,-2.37038 -0.80036,-3.69854 -0.14814,-2.11571 -0.25023,-2.38956 -1.29159,-3.46459 -0.62192,-0.64202 -1.83428,-1.52852 -2.69413,-1.97003 -1.45616,-0.74766 -1.5699,-0.89201 -1.65811,-2.10425 -0.0771,-1.05924 0.0377,-1.39509 0.61677,-1.8042 1.02175,-0.72191 2.30958,-0.62055 3.63193,0.28583 0.75288,0.51608 1.58443,0.78922 2.40665,0.79059 1.61321,0.002 2.92095,0.87846 3.80707,2.54958 0.38354,0.72331 1.01599,1.47537 1.40545,1.67123 1.30918,0.65839 2.47056,2.74337 2.66443,4.78331 0.15315,1.61157 0.34356,2.05261 1.35425,3.13685 0.64682,0.69388 1.33438,1.57389 1.5279,1.95557 0.53456,1.05425 0.79951,5.2274 0.40448,6.37048 -0.29986,0.86768 -0.23168,1.16376 0.57104,2.48 1.08291,1.77567 1.54688,4.31777 1.76949,9.69517 0.31765,7.67316 0.22299,9.01072 -0.83312,11.77314 -0.53095,1.38887 -1.24941,2.88943 -1.59657,3.3346 -0.70358,0.90227 -0.6482,1.07775 0.91861,2.91079 1.35675,1.58727 7.38382,9.80767 9.03425,12.32189 2.51489,3.83116 4.67864,8.51905 4.16924,9.0329 -0.44986,0.45376 -1.00268,-0.12017 -2.56265,-2.66051 -2.06078,-3.35587 -4.13287,-6.48497 -6.03597,-9.11499 -2.129,-2.94218 -2.93333,-4.12776 -4.22611,-6.2292 -1.01854,-1.65564 -1.89153,-2.15786 -1.89153,-1.08816 0,0.31226 -0.15142,0.72048 -0.33649,0.90716 -0.24021,0.24232 0.10652,0.78632 1.21178,1.90121 2.79254,2.8169 5.17299,7.31486 5.54199,10.47183 0.0729,0.62357 0.28253,2.05629 0.46586,3.18386 0.74799,4.6002 0.8436,5.6284 0.90585,9.74238 0.0403,2.6693 -0.12603,5.58733 -0.44,7.7149 -0.48165,3.264 -0.4789,3.44173 0.0598,3.85368 0.31053,0.23751 0.6522,0.43635 0.75927,0.44187 0.40294,0.0207 4.20003,3.25505 5.18706,4.41822 1.14552,1.34994 1.23149,1.58448 0.58083,1.58448 -0.50296,0 -1.69456,-0.72809 -4.778,-2.91945 -1.16096,-0.82508 -2.25284,-1.4524 -2.42639,-1.39405 -0.17356,0.0584 -0.46961,0.66246 -0.65789,1.34244 -0.25197,0.91002 -0.52867,1.26396 -1.04838,1.34098 -0.5583,0.0828 -0.67095,-0.0162 -0.53835,-0.4731 0.82358,-2.83728 1.594,-11.71408 1.33085,-15.33396 -0.11621,-1.59852 -0.28575,-4.04184 -0.37676,-5.42963 -0.34416,-5.24833 -1.97444,-11.44335 -3.54451,-13.46905 -0.30867,-0.39826 -0.92568,-1.45195 -1.37112,-2.34156 -1.48089,-2.95757 -2.98093,-4.04417 -6.86512,-4.97295 -3.16054,-0.75573 -5.1769,-0.86889 -9.30371,-0.52208 -4.03085,0.33874 -5.91594,0.77397 -8.00062,1.84719 -2.09268,1.07735 -2.44855,1.70546 -2.57649,4.54744 -0.0754,1.67451 0.007,2.60506 0.24419,2.75284 0.19695,0.12277 1.23272,0.1007 2.30175,-0.049 9.33358,-1.30722 12.92532,0.17702 16.1671,6.68083 0.66261,1.32934 1.29739,2.97466 1.41063,3.65625 0.11324,0.6816 0.38682,1.73605 0.60796,2.34319 0.22112,0.60716 0.49771,1.63616 0.61463,2.28668 0.19883,1.10623 0.16246,1.18277 -0.56219,1.18277 -0.79996,0 -0.9139,-0.19526 -1.28827,-2.20783 -0.44575,-2.3963 -1.84761,-6.39302 -2.85308,-8.13417 -2.09654,-3.63057 -4.30548,-4.89366 -8.55732,-4.89315 -2.77416,3e-4 -7.10323,0.64264 -7.3804,1.09503 -0.0884,0.14428 -0.493,0.26235 -0.89908,0.26235 -1.01878,0 -5.95849,1.79064 -7.19474,2.60808 -2.88162,1.90542 -3.87413,6.39026 -2.15017,9.71601 0.61919,1.19449 0.94896,1.53685 1.32887,1.3796 0.27794,-0.11504 1.29022,-0.39946 2.24952,-0.63205 3.28241,-0.79585 6.58189,0.1693 9.53892,2.79027 2.59114,2.29667 6.31973,7.82897 5.24449,7.78152 -0.5006,-0.0221 -2.50551,-2.03078 -3.67227,-3.67922 -0.63881,-0.90251 -1.89307,-2.3078 -2.78726,-3.12287 -3.76095,-3.42815 -7.02729,-3.59814 -12.41315,-0.64598 -0.94584,0.51844 -2.28254,1.21964 -2.97044,1.55821 -3.29083,1.6197 -7.12418,5.05038 -7.54843,6.75555 -0.34703,1.39474 0.45771,5.97778 1.42157,8.09573 1.5295,3.36092 3.5527,4.58522 6.54644,3.96144 2.01382,-0.41961 4.36789,-1.53487 6.03531,-2.85931 1.76137,-1.39906 2.44902,-1.13398 1.6071,0.61953 -0.48077,1.00134 -0.47089,1.0489 0.41288,1.98665 0.498,0.52841 1.50344,1.3164 2.23433,1.75109 2.14387,1.27505 1.53089,2.14774 -0.85987,1.2242 -0.39521,-0.15267 -0.47212,0.27802 -0.48884,2.7377 -0.0171,2.50643 -0.14054,3.17255 -0.87403,4.71421 -0.4698,0.98744 -1.50116,2.52123 -2.29194,3.40843 -1.04133,1.16831 -1.34338,1.70824 -1.0955,1.95829 0.4197,0.42336 2.79161,0.83666 4.94654,0.86194 1.60674,0.0187 2.5739,0.58667 2.15731,1.26659 -0.11094,0.18108 -0.91652,0.32922 -1.79018,0.32922 l -1.58848,0 0.17596,1.49817 c 0.19087,1.625 1.90786,7.31862 2.59186,8.59475 0.23246,0.43368 0.62699,1.43207 0.87676,2.21866 1.00522,3.16574 3.92461,9.22029 5.73733,11.89872 0.73493,1.08588 1.3362,2.05909 1.3362,2.16266 0,0.10357 0.57684,0.91833 1.28188,1.81051 1.09691,1.38812 1.1997,1.63883 0.7123,1.73763 -0.60487,0.1226 -2.44592,-1.77439 -4.2444,-4.37341 -2.64778,-3.82637 -6.91348,-13.40537 -8.98912,-20.18582 -1.76623,-5.76974 -1.55127,-5.39405 -3.44196,-6.01579 l -1.66458,-0.54736 -2.06724,1.27638 c -3.25684,2.01091 -5.91985,2.97667 -9.81871,3.56078 -1.33129,0.19947 -1.56563,0.35828 -2.10639,1.42748 -0.33463,0.66166 -0.86516,1.38982 -1.17895,1.61812 -1.00252,0.72944 -1.01374,1.08345 -0.12075,3.81456 1.20918,3.69811 2.60439,5.93001 5.52938,8.8453 3.45904,3.44754 7.34236,5.9311 11.10006,7.09895 0.87012,0.27043 7.85831,1.29948 8.96447,1.32005 0.14272,0.002 0.0484,0.14243 -0.20953,0.31059 -0.9546,0.62228 -5.72745,0.35732 -8.57908,-0.47625 -5.37836,-1.57219 -9.44871,-4.08563 -13.24414,-8.17837 -2.32004,-2.50175 -3.24465,-4.19213 -4.9272,-9.008 -1.0294,-2.94637 -1.38152,-3.62713 -1.87606,-3.62713 -0.33484,0 -0.58613,0.14194 -0.55838,0.3154 0.0277,0.17348 0.12808,1.66653 0.22296,3.31791 0.0949,1.65139 0.3768,3.58658 0.62649,4.30043 1.32224,3.78032 3.90913,7.70639 6.83991,10.3808 2.61219,2.38368 7.27073,4.23115 10.69566,4.24164 0.86673,0.002 1.78693,0.14242 2.0449,0.31059 0.32182,0.20978 -0.42498,0.30725 -2.37978,0.31056 -2.79675,0.004 -6.13668,-0.75895 -8.27155,-1.89136 -0.86216,-0.45733 -3.57077,-2.61895 -4.51352,-3.60205 -2.47713,-2.58315 -5.48323,-7.83172 -6.10901,-10.66619 -0.22022,-0.99746 -0.45904,-1.81357 -0.53073,-1.81357 -0.0717,0 -0.92869,0.61801 -1.90446,1.37339 -3.1377,2.42892 -5.58578,3.3316 -7.39863,2.72809 -0.96925,-0.32267 -1.15902,-0.26554 -2.46929,0.74332 -1.63934,1.26226 -5.10655,2.67375 -9.02623,3.67457 -3.90137,0.99614 -8.40206,0.8297 -10.90003,-0.40309 -3.27584,-1.6167 -7.98568,-6.95282 -9.06276,-10.26785 -0.20733,-0.63809 -0.55632,-1.44404 -0.77553,-1.79098 -1.02466,-1.62164 -2.31316,-9.34011 -2.34038,-14.01948 -0.0185,-3.16554 0.45913,-8.18552 0.96914,-10.18774 0.16569,-0.65052 0.45085,-1.78597 0.63367,-2.52324 0.34772,-1.40221 0.4084,-1.55171 2.42405,-5.97203 2.12777,-4.66621 4.04681,-6.48862 8.35754,-7.93675 3.7533,-1.26086 5.31521,-1.13199 10.73274,0.8856 1.27524,0.47491 1.42124,0.47202 2.18873,-0.0433 0.4523,-0.30374 1.64404,-0.94761 2.64834,-1.43081 2.01886,-0.97136 4.3508,-1.14606 7.43138,-0.55675 1.17295,0.22439 1.71547,0.22085 1.79231,-0.0116 0.0606,-0.18338 0.42849,-0.71849 0.81755,-1.18914 0.64165,-0.7762 0.72565,-1.29522 0.90412,-5.58675 0.17629,-4.23971 0.39333,-6.02307 1.42557,-11.7143 0.26409,-1.45598 1.87324,-6.8626 2.52137,-8.47155 2.64929,-6.57673 3.40793,-8.15591 3.8839,-8.08476 0.14783,0.0221 0.31119,1.90318 0.36302,4.18021 0.0842,3.6979 0.58653,6.90089 1.08231,6.90089 0.0989,0 0.36563,-0.88707 0.59259,-1.97126 1.25132,-5.97706 3.25994,-12.70713 4.73024,-15.84903 0.32468,-0.6939 1.1669,-2.53901 1.87156,-4.10025 0.70464,-1.56125 2.19564,-4.39988 3.3133,-6.30807 3.30296,-5.63912 4.10894,-6.8064 7.22007,-10.4566 l 1.65409,-1.94069 -2.95097,-1.77626 c -3.30561,-1.98971 -6.7577,-3.64707 -7.59466,-3.64617 -0.30473,3.1e-4 -1.39827,0.85391 -2.43012,1.89686 -3.53175,3.5698 -13.58434,11.86104 -17.97893,14.82878 -5.74544,3.88002 -15.81104,10.08309 -16.3616,10.08309 -0.12162,0 -1.44985,0.6982 -2.95164,1.55154 -1.50177,0.85332 -3.50193,1.85781 -4.4448,2.23214 -0.94288,0.37435 -2.42028,1.00477 -3.28312,1.40095 -3.69071,1.69464 -10.91753,4.75108 -12.12165,5.1266 -0.42481,0.1325 -0.54718,-0.0139 -0.54718,-0.65463 0,-0.45391 0.10698,-0.8253 0.23773,-0.8253 0.22184,0 2.37722,-2.79065 4.58766,-5.9398 0.52753,-0.75154 1.36065,-1.85151 1.8514,-2.44438 0.49074,-0.59286 0.82027,-1.07793 0.73229,-1.07793 -0.24927,0 -4.28035,2.18943 -5.8457,3.17503 -1.96144,1.23499 -6.76301,3.15828 -10.47468,4.19571 -1.71972,0.48067 -3.47853,0.97471 -3.90847,1.09786 -0.60295,0.17273 -0.76046,0.40206 -0.68887,1.00298 0.21232,1.78178 0.067,3.16924 -0.4347,4.15159 -0.66721,1.30629 -4.4861,5.31285 -6.45884,6.77626 -0.81688,0.60596 -1.48492,1.26708 -1.48456,1.46914 3.2e-4,0.20208 0.85217,1.64478 1.8929,3.20602 3.69814,5.54778 8.50798,14.34851 10.47333,19.16344 0.44194,1.08274 1.14675,2.71763 1.56624,3.6331 0.41949,0.91546 0.7627,1.73312 0.7627,1.817 0,0.0839 0.26523,0.75419 0.58939,1.48956 1.18913,2.69746 3.0095,8.5348 3.6136,11.58764 0.25745,1.30104 0.66472,3.28807 0.90502,4.41565 0.40876,1.9179 0.66824,3.63261 1.46768,9.69866 0.17717,1.34441 0.37766,4.00428 0.44553,5.91082 0.13443,3.77623 -0.53026,11.4019 -1.03854,11.91462 -0.45734,0.46133 -2.09179,-1.02005 -3.87211,-3.50945 -1.03282,-1.44417 -1.49234,-1.88726 -1.5086,-1.45462 -0.0128,0.34217 -0.01,2.53821 0.006,4.88008 0.0258,3.66432 -0.20937,7.72116 -0.7862,13.56235 -0.22345,2.26276 -2.16579,10.20825 -3.4311,14.03548 -1.47878,4.4729 -4.26891,11.5504 -4.99281,12.6649 -1.02836,1.5831 -1.24244,1.2947 -5.30659,-7.1454 -1.29471,-2.6888 -2.61471,-5.3855 -2.93331,-5.9926 -0.52872,-1.0076 -2.20658,-5.15901 -4.20669,-10.40833 -1.04002,-2.72958 -3.61022,-13.69007 -4.16031,-17.74146 -0.2194,-1.61588 -0.57467,-1.92239 -0.91399,-0.78851 -0.11681,0.39031 -0.63169,1.4072 -1.14423,2.25976 -0.67456,1.12209 -0.88357,1.79364 -0.75698,2.43214 0.0962,0.48513 0.0605,0.9534 -0.0794,1.04058 -0.47868,0.29844 -1.9147,-2.39882 -2.56373,-4.81544 -1.37534,-5.12094 -2.69539,-11.2854 -2.53395,-11.8333 0.0439,-0.14926 -0.22059,-2.06533 -0.58793,-4.25794 -0.60787,-3.62827 -0.65183,-4.75194 -0.48899,-12.50247 0.21142,-10.06331 0.96092,-15.90867 2.79835,-21.82383 0.42066,-1.35422 0.86401,-2.95901 0.9852,-3.56616 0.66176,-3.31512 4.4741,-12.71032 6.2841,-15.48659 0.5264,-0.80745 0.51569,-0.84482 -0.68187,-2.38047 -1.759,-2.2556 -4.18133,-7.49349 -4.19137,-9.06315 -0.0124,-1.93177 -0.004,-1.92787 -4.31172,-1.94503 -4.10407,-0.0163 -5.96122,-0.40854 -10.97319,-2.3174 -1.73039,-0.65903 -2.22074,-0.63287 -2.22074,0.11845 0,0.23591 -0.20119,0.83074 -0.44708,1.32183 -0.24589,0.49112 -0.74951,1.95741 -1.11912,3.25846 -0.36963,1.30105 -0.95585,3.35905 -1.30272,4.57335 -1.93457,6.77247 -3.4061,17.99397 -2.93354,22.37051 l 0.23587,2.18469 1.14599,-2.1968 c 0.63028,-1.20822 1.95311,-3.24464 2.93961,-4.52535 0.98652,-1.28071 1.79367,-2.50878 1.79367,-2.72906 0,-0.22027 0.15042,-0.49427 0.33427,-0.60888 0.2345,-0.1462 0.27268,0.95354 0.12794,3.685 -0.11348,2.14136 -0.25861,3.97872 -0.32249,4.083 -0.59052,0.96378 -1.11053,28.6184 -0.64596,34.35183 0.0773,0.9541 0.30457,4.43143 0.50504,7.7274 0.20047,3.29597 0.56436,7.27005 0.80867,8.83129 0.2443,1.56126 0.66267,4.61279 0.92968,6.78118 0.92391,7.50283 1.76806,11.77204 3.09025,15.62835 1.64939,4.81071 1.98788,5.69671 2.79492,7.31575 0.41117,0.8248 1.41729,2.848 2.23581,4.496 1.25993,2.5367 3.15676,6.0664 4.23736,7.8851 0.1546,0.2601 0.57976,1.0408 0.9448,1.7347 1.54089,2.9291 3.85579,6.9622 4.1667,7.2594 0.87498,0.8365 1.46109,1.706 1.58404,2.35 0.0742,0.3888 0.40912,1.1756 0.74421,1.7484 l 0.60929,1.0416 -0.67577,0.1829 c -0.37165,0.1006 -0.74611,0.1754 -0.83209,0.1663 -0.086,-0.01 -1.14126,-1.5709 -2.34507,-3.4704 z m 18.82165,-11.4072 c 0.98374,-1.3195 4.51924,-12.1019 5.24853,-16.00675 0.27539,-1.4745 0.627,-2.98784 0.78136,-3.36297 0.28621,-0.69562 0.88125,-4.20142 1.62403,-9.56858 0.44683,-3.22862 0.57109,-15.8256 0.18149,-18.3977 -0.24264,-1.60188 0.1516,-1.91577 0.83621,-0.66579 0.18425,0.33644 1.0929,1.81828 2.01921,3.29297 1.84113,2.9311 3.12079,4.4791 3.50476,4.23972 0.55574,-0.34645 0.64947,-3.34208 0.29332,-9.37529 -0.20701,-3.50697 -0.63634,-7.8666 -0.95405,-9.68805 -0.98473,-5.64558 -2.48864,-12.05473 -3.09829,-13.20378 -0.18456,-0.34788 -0.33557,-0.99334 -0.33557,-1.43435 0,-0.7755 -1.65494,-5.58351 -2.85351,-8.29019 -0.32227,-0.72773 -0.58594,-1.43852 -0.58594,-1.57952 0,-0.14101 -0.33258,-0.89393 -0.73909,-1.67317 -0.40651,-0.77925 -0.91863,-1.98454 -1.13804,-2.67842 -0.21944,-0.69389 -0.84757,-2.25514 -1.39588,-3.46945 -0.5483,-1.2143 -1.19698,-2.69683 -1.44152,-3.29449 -2.08109,-5.08617 -7.63495,-14.84121 -8.44957,-14.84121 -0.14262,0 -0.93252,0.43273 -1.75537,0.96163 -1.28079,0.82325 -1.69856,0.93588 -2.90312,0.7826 -0.77389,-0.0985 -1.57394,-0.0671 -1.7779,0.0696 -1.21388,0.81376 -5.23352,10.38672 -6.78725,16.16419 -0.61263,2.27794 -2.04043,8.69929 -2.20597,9.92095 -0.0716,0.52827 -0.4304,2.48228 -0.79741,4.34226 -0.61462,3.11492 -0.65699,4.13534 -0.53702,12.93155 0.14513,10.64212 0.54669,14.63445 2.07016,20.58205 0.53225,2.07789 0.96774,3.94925 0.96774,4.15857 0,0.2093 0.14326,0.76063 0.31835,1.22519 l 0.31835,0.84463 0.73905,-1.09857 c 2.22937,-3.31382 2.40745,-3.81424 2.3463,-6.59391 -0.0512,-2.32606 0.23262,-5.58716 0.51288,-5.89379 0.0555,-0.0608 0.25101,-0.0168 0.43443,0.0975 0.20895,0.13026 0.33334,1.76152 0.3331,4.36838 -3.1e-4,4.42975 -0.0346,4.23496 2.86554,16.30352 0.68783,2.86229 1.88857,7.04927 2.66831,9.30441 0.77974,2.25512 1.84258,5.37762 2.36184,6.93887 0.51927,1.56129 1.18489,3.40639 1.47914,4.10029 0.29425,0.6939 0.73254,1.7579 0.97395,2.3645 0.24143,0.6067 0.96839,2.097 1.61548,3.3118 0.64708,1.2148 1.49131,2.8795 1.87606,3.6995 0.74616,1.59 0.9232,1.732 1.38591,1.1113 z m 37.99204,-35.60317 c 0.91133,-0.19626 2.25045,-0.76768 2.97585,-1.26984 1.94175,-1.34422 5.09098,-6.07697 5.09098,-7.65087 0,-0.20304 -0.63941,-0.54168 -1.42091,-0.75251 -1.10197,-0.2973 -1.9266,-0.89603 -3.67395,-2.66751 -3.3056,-3.35122 -4.97121,-6.69929 -6.43423,-12.93353 -1.18023,-5.02924 0.83952,-14.69831 3.64423,-17.44597 1.0623,-1.04069 1.07528,-1.08347 0.5663,-1.86705 -1.21165,-1.86533 -5.4725,-4.26225 -7.53361,-4.23799 -2.7457,0.0324 -4.43752,1.48545 -6.5136,5.59467 -2.3437,4.63898 -3.03201,8.26213 -3.03948,15.99936 -0.004,4.28957 0.13481,6.19013 0.6382,8.72947 1.65385,8.3428 3.6306,12.89667 7.0094,16.14776 1.40768,1.35446 2.8101,2.07051 4.71958,2.40969 1.88475,0.33479 2.17697,0.3307 3.97124,-0.0556 z m 10.93717,-2.99292 c 3.87916,-1.95166 4.60218,-3.13627 5.7519,-9.42412 1.67135,-9.14061 -1.4766,-24.35416 -6.49795,-31.40333 -0.73843,-1.03665 -1.77049,-2.48507 -2.29343,-3.21875 -1.18697,-1.66523 -3.74882,-3.24303 -6.04798,-3.72483 -2.40472,-0.50394 -6.72616,-0.22005 -8.48452,0.55738 l -1.40124,0.61953 2.24346,0.1924 c 2.42586,0.20806 3.47107,0.64167 5.88615,2.44189 4.05603,3.02342 7.22325,8.21246 9.16917,15.02237 1.1933,4.17603 1.44924,6.44258 1.45561,12.88986 0.007,7.12483 -0.46139,10.07647 -1.98345,12.49741 -0.47936,0.76247 -1.12806,2.06379 -1.44155,2.89179 -0.31349,0.82802 -0.69212,1.58163 -0.84139,1.67469 -0.14926,0.0931 -0.19012,0.30184 -0.0907,0.46396 0.27456,0.44813 1.58685,0.0236 4.576,-1.48025 z M 99.692996,972.37643 c 8.993034,-1.83677 14.998264,-4.22821 19.946884,-7.94341 1.09674,-0.82339 2.99077,-2.20672 4.20897,-3.07408 l 2.21487,-1.57702 -0.24082,-4.73104 c -0.13247,-2.60209 -0.23489,-5.2988 -0.22759,-5.99268 0.0257,-2.45025 0.45365,-13.59953 0.62949,-16.40099 0.098,-1.56125 0.23646,-3.83216 0.30772,-5.04646 0.0712,-1.21429 0.34322,-3.75494 0.60437,-5.64586 0.26117,-1.89094 0.42183,-3.49153 0.35704,-3.55688 -0.33868,-0.34163 -2.12195,2.76103 -3.61637,6.29195 -1.77361,4.19064 -3.4415,0.70886 -3.03251,-6.33048 0.25033,-4.30862 0.46398,-6.78554 0.69921,-8.10593 0.0928,-0.5204 0.28565,-1.72683 0.42877,-2.68092 0.34309,-2.28732 1.31218,-6.1358 2.84825,-11.31112 0.688,-2.31798 1.18691,-4.27909 1.10868,-4.35801 -0.36442,-0.36759 -3.77775,1.70643 -8.33402,5.06397 -1.2898,0.95045 -3.15603,2.27064 -4.14719,2.93374 -0.99116,0.66311 -3.24243,2.20578 -5.00284,3.42816 -3.71614,2.58039 -3.64189,2.35526 -2.28377,6.92418 0.46408,1.56126 1.05442,3.5483 1.31184,4.41566 0.70586,2.37826 1.34411,4.98833 1.34971,5.51956 0.004,0.41719 -1.5009,-2.52063 -2.90896,-5.67727 -0.66757,-1.49658 -2.67022,-7.35949 -3.17818,-9.30441 -0.22654,-0.86736 -0.62186,-2.35763 -0.87849,-3.31172 -0.25663,-0.9541 -0.6181,-2.56859 -0.80327,-3.58777 -0.18516,-1.01916 -0.52824,-2.24043 -0.76242,-2.71393 -0.589335,-1.19167 0.015,-2.28336 2.94964,-5.32826 4.14567,-4.30144 7.6318,-8.60073 8.72212,-10.75654 1.02148,-2.01975 1.19172,-4.55394 0.59539,-8.86354 -0.62556,-4.52082 -0.9012,-5.70339 -1.68499,-7.22922 -2.41164,-4.6948 -4.4506,-5.92446 -9.18153,-5.53724 -4.007328,0.32798 -7.938395,1.22624 -9.151594,2.09117 -3.3089,2.359 -5.302247,6.41051 -5.087686,10.34084 0.192588,3.52813 2.644145,5.01548 7.612946,4.61879 2.678825,-0.21387 4.341265,0.10774 3.940247,0.76227 -0.08725,0.14237 -1.510081,0.44602 -3.161911,0.67478 -2.924646,0.40505 -3.032255,0.44949 -4.108502,1.69661 -1.230988,1.42641 -2.805357,4.5209 -3.097633,6.08851 -0.260678,1.39815 0.0085,2.2517 1.120372,3.55036 0.999294,1.16735 1.158601,1.57701 0.613229,1.57701 -1.295944,0 -4.356928,-3.84823 -4.356928,-5.47748 0,-2.4945 0.793036,-3.76223 3.735408,-5.97147 l 1.703007,-1.27867 -1.256635,-0.53834 c -1.439842,-0.61685 -3.381078,-2.74732 -3.872857,-4.25042 -0.501161,-1.53179 0.07613,-5.4747 1.120754,-7.65472 1.255163,-2.61941 3.039275,-4.63698 4.918744,-5.56234 0.941667,-0.46363 3.071001,-1.04715 5.064294,-1.38781 3.298885,-0.56379 3.436585,-0.61873 3.369265,-1.34393 -0.19219,-2.07013 -0.045,-6.52334 0.25336,-7.66608 0.53998,-2.06812 1.57649,-3.58101 5.09794,-7.44089 3.39233,-3.71835 4.31583,-5.18395 4.88731,-7.75627 0.25574,-1.15112 0.2243,-1.82441 -0.14419,-3.08718 -1.04503,-3.58134 -5.66096,-7.76537 -8.56694,-7.76537 -1.55182,0 -4.115051,1.07309 -4.115051,1.72276 0,0.22268 0.298101,1.08465 0.662437,1.91549 0.781535,1.78219 0.650703,4.08899 -0.363002,6.40063 -0.731606,1.66835 -3.124997,5.40191 -3.854231,6.01239 -0.2805,0.23482 -0.510003,0.56143 -0.510003,0.72577 0,0.16435 -0.430849,0.93049 -0.957456,1.70255 -1.545693,2.2662 -2.869677,5.42349 -3.07692,7.33754 -0.168381,1.5551 -0.271648,1.76671 -0.815135,1.67031 -0.905907,-0.16066 -1.135717,-0.67631 -0.934795,-2.09744 0.207836,-1.46992 3.601495,-7.62029 6.049388,-10.96334 3.086209,-4.2148 3.905049,-6.63406 3.176027,-9.38346 -0.574503,-2.16665 -2.411148,-3.76412 -5.3817,-4.68089 -3.473215,-1.0719 -4.922757,-0.81135 -7.825006,1.40658 -2.198077,1.67979 -4.811895,4.38008 -5.490999,5.67264 -0.315033,0.59964 -0.207921,0.72372 1.16507,1.34965 2.64837,1.20735 3.815301,3.90543 2.825223,6.53225 -0.177435,0.47075 -1.549304,2.47648 -3.048594,4.45719 -3.990886,5.27228 -4.44573,6.24033 -4.44573,9.46187 0,2.49836 -0.03113,2.61867 -0.59852,2.31236 -0.477875,-0.25797 -0.622218,-0.75298 -0.716017,-2.45547 -0.102612,-1.86143 0.0074,-2.41289 0.868419,-4.34018 0.542258,-1.21431 2.051874,-3.58038 3.354721,-5.25791 4.682137,-6.02873 4.842185,-7.86864 0.843526,-9.69727 -0.77388,-0.35391 -1.855611,-0.64657 -2.403842,-0.65039 -1.554842,-0.0108 -5.034909,0.89519 -6.691791,1.74211 -1.32698,0.67828 -4.974835,4.02036 -4.974835,4.5578 0,0.11149 -0.575192,0.97349 -1.278206,1.91556 -3.039044,4.07239 -6.358916,12.18432 -6.961448,17.0099 -0.07582,0.60715 -0.296977,1.53652 -0.491482,2.06528 -0.194506,0.52875 -0.613483,2.51578 -0.931047,4.41565 -0.765163,4.57762 -0.903629,17.10857 -0.228104,20.64379 0.995101,5.20766 4.13992,11.40153 7.298833,14.37541 1.281744,1.20666 1.344698,1.34314 1.018334,2.20782 -0.819486,2.17128 -3.475821,15.27658 -3.862755,19.05737 -0.07984,0.78062 -0.38401,2.9096 -0.675821,4.73106 -0.530885,3.31375 -0.72358,12.7255 -0.309961,15.13937 0.104094,0.60714 0.406292,2.23937 0.671671,3.62714 0.26539,1.38777 0.555718,2.94691 0.645198,3.46475 0.231387,1.3392 1.530104,4.77573 2.504884,6.62816 1.58085,3.00422 5.197699,7.20089 7.941141,9.21419 0.759732,0.55754 2.275849,1.69299 3.369166,2.52324 4.441388,3.3727 5.616083,4.2122 7.812935,5.58348 2.202069,1.37455 4.957274,2.54555 6.614759,2.81137 2.680478,0.42987 7.744168,0.16591 11.488715,-0.59889 z M 73.508465,896.38975 c 0,-0.25803 0.533596,-0.80893 1.185761,-1.22421 1.648208,-1.04954 3.096956,-2.80014 3.485594,-4.21183 0.478988,-1.73986 0.403878,-5.72094 -0.154508,-8.18954 -0.795058,-3.51492 -5.315929,-12.21529 -7.695712,-14.81027 -0.806474,-0.87941 -0.167999,-1.35703 0.724691,-0.54211 0.940937,0.85896 3.710799,4.65826 5.489817,7.53014 1.463975,2.3633 2.959867,6.02478 3.348833,8.19691 0.230552,1.28752 0.271141,5.5048 0.06174,6.42132 -0.521895,2.28487 -2.629151,5.27422 -4.604707,6.53221 -1.387934,0.8838 -1.841559,0.95706 -1.841559,0.29738 z m 149.895635,75.8649 c 0.78421,-0.33908 2.16774,-1.10227 3.07452,-1.69597 3.15572,-2.06618 3.67888,-3.10732 1.77347,-3.52947 -1.84844,-0.40953 -2.43841,-3.3164 -1.05655,-5.20574 0.87223,-1.19254 1.30282,-1.49367 2.72342,-1.90464 1.2711,-0.36773 3.66666,0.21118 4.40544,1.06462 0.70238,0.81139 0.87607,0.59201 1.82523,-2.30544 0.84278,-2.57273 1.12338,-8.20846 0.5795,-11.6389 -0.7332,-4.62466 -1.98974,-7.66412 -5.07737,-12.28179 -4.61907,-6.90801 -9.45232,-9.84089 -14.7563,-8.95432 -2.28588,0.38208 -5.49639,1.7256 -5.49639,2.3001 0,0.20325 0.77464,1.21355 1.72142,2.24511 6.05955,6.6021 9.38706,15.47541 9.99911,26.66408 0.23028,4.20979 -0.33914,8.2955 -1.73375,12.43998 -0.50553,1.50231 -0.91914,2.88614 -0.91914,3.07519 0,0.53346 1.36615,0.40657 2.93739,-0.27281 z m 4.8715,-15.79963 c -0.53056,-0.99999 0.18382,-3.92059 1.25467,-5.12952 0.78329,-0.8843 0.9758,-0.95795 1.77035,-0.67718 1.28165,0.45287 1.71067,2.27828 0.89466,3.80673 -1.29853,2.43228 -3.18078,3.39267 -3.91968,1.99997 z m 2.76194,-3.37543 c 0.11228,-1.56523 -0.21465,-1.70875 -0.96676,-0.42444 -0.76175,1.30076 -0.70002,1.98992 0.16709,1.86569 0.58484,-0.0837 0.71973,-0.32691 0.79967,-1.44125 z m -18.32195,12.98985 c 0.49999,-1.80608 0.31867,-9.60945 -0.32651,-14.05147 -0.71878,-4.94895 -1.95738,-8.95769 -4.07497,-13.18871 -1.76837,-3.53332 -2.20563,-3.921 -3.27708,-2.90565 -1.26731,1.20096 -2.27782,4.59198 -2.55121,8.56124 -0.10155,1.47452 -0.25337,3.24865 -0.33736,3.94254 -0.14103,1.16509 0.24586,3.62898 1.10993,7.06846 0.63278,2.51879 3.61888,7.95503 5.23568,9.53163 1.38066,1.34632 2.94959,2.21883 3.66965,2.04074 0.16259,-0.0403 0.41094,-0.48966 0.55187,-0.99878 z m 17.4208,-1.70443 c 0.53442,-0.22329 1.4465,-0.32826 2.02682,-0.23327 0.98224,0.16079 1.06869,0.10452 1.25088,-0.81439 0.25,-1.26088 -0.88366,-2.53665 -2.25412,-2.53665 -1.94604,0 -4.26618,2.76444 -3.51246,4.1851 0.4335,0.81704 1.06272,0.97889 1.31118,0.33727 0.11332,-0.29264 0.64329,-0.71477 1.1777,-0.93806 z m 12.3222,-4.86901 c 2.66031,-0.93769 4.15057,-1.97232 7.08418,-4.91824 2.79301,-2.80475 3.91808,-4.78533 4.43049,-7.79953 0.42759,-2.51528 0.0527,-5.03052 -0.94623,-6.34796 l -0.56322,-0.74283 -1.22457,0.62919 c -1.76528,0.90704 -4.41899,1.645 -5.91538,1.645 -2.05476,0 -4.42966,-1.4097 -5.84496,-3.46945 -0.91937,-1.33802 -1.34061,-2.41994 -1.84198,-4.73106 -0.69029,-3.18185 -0.64253,-5.01244 0.17222,-6.60171 0.43608,-0.85065 2.78599,-3.28925 4.11238,-4.26758 0.5564,-0.4104 0.5575,-0.45403 0.0263,-1.04616 -0.90004,-1.00322 -4.31751,-2.59118 -6.00355,-2.78963 -3.07499,-0.36193 -6.90585,1.26181 -10.18228,4.31582 -0.84871,0.79111 -1.54215,1.64269 -1.54097,1.89242 8.7e-4,0.24973 0.52819,0.80888 1.17117,1.24256 1.83028,1.23451 3.74994,3.10663 5.82139,5.67727 1.04839,1.30105 2.14832,2.63371 2.44427,2.96146 1.09597,1.21381 3.4218,6.43998 4.2265,9.49698 0.70015,2.65981 0.82859,3.79653 0.81967,7.25428 -0.007,2.8055 -0.17312,4.69385 -0.5253,5.9801 -0.75572,2.75996 -0.74276,2.79961 0.83693,2.56067 0.74342,-0.11246 2.29277,-0.53619 3.44298,-0.9416 z m -1.12068,-7.46673 c -0.70442,-0.41385 -0.74379,-3.06582 -0.0749,-5.04386 0.93133,-2.7541 3.52595,-4.48944 4.09246,-2.73711 0.39974,1.23645 0.21472,4.44513 -0.33537,5.8162 -0.78654,1.96042 -2.30793,2.7722 -3.6822,1.96477 z m 2.36986,-2.25717 c 0.67794,-0.91684 1.17145,-4.65646 0.61448,-4.65646 -0.82556,0 -2.03439,2.16959 -2.39558,4.29957 -0.28213,1.66367 0.67324,1.8551 1.7811,0.35689 z m 2.71431,1.81777 c -0.33263,-0.88257 0.28915,-3.05701 1.1479,-4.01418 1.24699,-1.38995 2.76823,8.7e-4 2.41788,2.21153 -0.25722,1.62262 -1.12641,2.58271 -2.33817,2.58271 -0.70543,0 -1.00545,-0.19063 -1.22761,-0.78006 z m 2.49825,-2.27748 c 0,-0.48212 -0.14922,-0.73083 -0.39085,-0.65144 -0.57948,0.19041 -1.25577,1.77485 -1.01914,2.38768 0.18142,0.46984 0.2769,0.4448 0.80786,-0.21181 0.33117,-0.40952 0.60213,-1.09553 0.60213,-1.52443 z m -3.20531,-28.93951 c 3.48442,-1.79509 3.36254,-1.61819 2.62924,-3.81568 -0.61035,-1.82906 -0.65831,-1.88044 -1.84047,-1.97198 -0.70878,-0.0549 -1.81402,0.16558 -2.65659,0.52989 -1.53359,0.6631 -3.99452,2.70473 -3.99452,3.31392 0,0.20057 0.48497,0.62812 1.07769,0.9501 0.59271,0.32199 1.39112,0.92199 1.77423,1.33334 0.3831,0.41136 0.74221,0.74791 0.79801,0.74791 0.0558,0 1.05138,-0.48937 2.21241,-1.0875 z m -16.60682,-1.0343 c 2.74178,-1.47516 2.80287,-1.49108 5.75186,-1.49816 l 2.98065,-0.007 1.13306,-1.14272 c 1.87079,-1.88675 4.51534,-3.24787 6.66345,-3.42961 l 1.87606,-0.15873 0.19294,-1.59444 c 0.45148,-3.73103 2.84565,-6.52804 6.99864,-8.17618 3.39118,-1.34581 3.25151,-1.21729 2.87394,-2.64414 -0.52752,-1.99362 0.20894,-5.44862 1.41491,-6.63797 0.96781,-0.95446 3.75585,-2.27104 6.03208,-2.84853 0.96716,-0.24535 1.39297,-0.57954 1.86498,-1.46365 0.46235,-0.86603 3.06842,-3.43488 4.18206,-4.12235 0.14322,-0.0884 1.60078,-6.14111 1.60652,-6.67125 0.007,-0.65553 -2.02712,-2.40321 -6.61337,-5.68186 -4.86551,-3.4783 -13.48077,-8.8895 -14.15312,-8.8895 -0.41458,0 -1.81207,1.56983 -3.08858,3.46944 -2.74973,4.09202 -3.64981,5.62498 -5.7722,9.83094 -3.25717,6.45485 -4.0585,8.43778 -5.6503,13.98204 -1.34908,4.69888 -1.54599,5.63107 -2.09698,9.927 -0.65316,5.09257 -0.78547,5.30751 -1.96455,3.19133 -1.10235,-1.97844 -1.96427,-5.04684 -2.15423,-7.66876 -0.097,-1.33953 -0.29304,-2.36282 -0.43555,-2.27397 -0.29881,0.18629 -2.55682,7.41217 -3.04862,9.75594 -0.18201,0.86737 -0.48353,2.92538 -0.67006,4.57336 -0.1865,1.64797 -0.47009,4.06082 -0.63016,5.36185 -0.59551,4.83988 -0.68226,6.30807 -0.37274,6.30807 0.16946,0 1.55514,-0.67094 3.07931,-1.49098 z m -72.91222,-15.57482 c 1.91046,-0.53503 8.1354,-6.13056 10.20618,-9.17424 1.4002,-2.05801 1.49291,-2.74856 0.54297,-4.04463 -0.91432,-1.24746 -3.52653,-2.26135 -9.80597,-3.80602 -0.69362,-0.17062 -2.87455,-0.26981 -4.84649,-0.22041 l -3.58537,0.0898 0.11105,0.78853 c 0.10714,0.76078 0.0898,0.76911 -0.49364,0.23655 -0.33257,-0.30359 -0.74989,-0.55197 -0.92736,-0.55197 -0.60566,0 -0.74004,3.19091 -0.2122,5.03905 1.83611,6.4289 3.10079,9.05143 5.16408,10.70855 1.73271,1.39165 1.99117,1.45444 3.84675,0.93478 z m 128.11588,-12.13492 c 0.65049,-3.69368 -0.0394,-5.33244 -2.87311,-6.82507 -1.39909,-0.73695 -1.96434,-0.87057 -3.03177,-0.71665 -1.75347,0.25285 -4.82566,1.49072 -6.6822,2.69243 -1.58028,1.02292 -3.73115,3.21346 -3.73115,3.79999 0,0.23603 0.94633,0.2818 3.0486,0.14741 3.96856,-0.25366 10.87735,0.93034 12.10451,2.07441 0.53598,0.49969 0.94272,0.0903 1.16512,-1.17252 z M 144.9296,890.67478 c 0.38424,-0.14873 0.49459,-0.67235 0.49459,-2.34691 0,-1.18551 0.14835,-2.24795 0.32967,-2.36099 0.72757,-0.45358 -1.20051,-2.55414 -7.50171,-8.17273 -1.74035,-1.55181 -3.37835,-2.85316 -3.63999,-2.89189 -0.26165,-0.0388 -1.06758,-0.62075 -1.79096,-1.29336 -2.38261,-2.21538 -7.37554,-3.84497 -11.8373,-3.86348 l -2.70925,-0.0112 -0.21819,2.34874 c -0.30163,3.24682 0.18548,5.05335 2.02214,7.4996 3.21225,4.27839 8.30885,7.78994 13.82125,9.52284 3.69013,1.16004 9.83026,2.03371 11.02975,1.56941 z m 25.97778,-3.40363 c 1.89171,-0.61434 4.63545,-1.62934 6.09721,-2.25559 1.46176,-0.62623 4.0648,-1.7182 5.78453,-2.42658 1.71972,-0.70837 3.50025,-1.54861 3.95673,-1.86721 0.45648,-0.3186 0.91042,-0.57926 1.00876,-0.57926 0.0984,0 2.10234,-1.13545 4.45332,-2.52322 5.61597,-3.3151 6.01162,-3.31826 3.0101,-0.0242 -4.57958,5.02604 -5.41294,5.96035 -6.63268,7.43609 -0.7169,0.86736 -1.50759,1.96482 -1.7571,2.43879 l -0.45367,0.86177 2.4284,-1.13205 c 1.33564,-0.62263 2.92089,-1.33881 3.52279,-1.59152 2.28448,-0.95913 3.88729,-1.75637 7.28327,-3.62272 1.92724,-1.05917 4.70008,-2.56061 6.16184,-3.33654 1.46178,-0.77591 2.86882,-1.59209 3.12678,-1.81373 0.25796,-0.22165 0.75043,-0.4892 1.09436,-0.59458 0.34396,-0.10547 1.53995,-0.82911 2.65776,-1.60828 2.02809,-1.41368 3.62096,-2.49429 8.88174,-6.0255 6.6125,-4.4385 7.04133,-4.76152 13.162,-9.91431 4.10129,-3.45272 10.50872,-10.04097 12.88101,-13.24448 1.22037,-1.64798 2.67564,-3.56406 3.23392,-4.25795 1.08572,-1.34951 3.42738,-6.06816 3.42738,-6.90651 0,-0.27802 -0.11819,-0.50548 -0.26266,-0.50548 -1.25037,0 -17.23344,5.29235 -20.84304,6.90161 -0.85986,0.38334 -2.11686,0.93886 -2.79334,1.23448 -2.37955,1.0399 -9.42043,4.71008 -11.12079,5.79693 -0.94585,0.60456 -1.93078,1.19388 -2.18874,1.30955 -0.25796,0.1157 -1.52429,0.91415 -2.8141,1.77436 -1.28979,0.8602 -3.25964,2.09161 -4.37747,2.73649 -1.11782,0.64485 -2.38417,1.4168 -2.81408,1.71542 -0.42994,0.29863 -2.46012,1.65788 -4.51154,3.02056 -3.63135,2.41219 -6.7809,4.57179 -11.49756,7.88371 -3.38108,2.37409 -9.54977,7.05074 -11.35017,8.60485 -0.85986,0.74224 -1.91514,1.64028 -2.34508,1.99564 -0.42992,0.35537 -1.63114,1.44108 -2.66934,2.41269 -1.03821,0.97159 -3.38766,3.09964 -5.22099,4.72895 -1.83332,1.62935 -3.41869,3.18685 -3.52303,3.46114 -0.20695,0.54399 0.70072,1.40347 1.23871,1.17294 0.17893,-0.0766 1.87307,-0.64203 3.76477,-1.25636 z m -6.09719,-0.48318 c 0,-0.29045 3.17065,-3.45034 9.2271,-9.19582 2.79238,-2.64901 5.43265,-4.94628 10.29988,-8.96187 0.84107,-0.69389 2.22228,-1.90031 3.06935,-2.68093 0.84708,-0.78063 2.42054,-2.05801 3.49653,-2.83863 1.07602,-0.78063 3.09947,-2.27092 4.49658,-3.31174 1.3971,-1.04083 3.25786,-2.38919 4.13503,-2.99633 0.87715,-0.60715 2.27257,-1.62764 3.10088,-2.26774 l 1.50607,-1.16384 0.96029,-4.04033 c 1.14077,-4.79958 1.76458,-10.64707 1.76009,-16.49877 -0.004,-4.3584 -0.35091,-6.79806 -1.48283,-10.40832 -0.8058,-2.57013 -1.21865,-3.24242 -3.19582,-5.20416 -1.85569,-1.84117 -2.05714,-2.00353 -5.2234,-4.20977 -3.98401,-2.77604 -16.15816,-8.1682 -23.31663,-10.32737 -2.28722,-0.68989 -2.89227,-0.99385 -2.89227,-1.45298 0,-0.47133 0.16183,-0.54314 0.85987,-0.38166 1.43657,0.33236 6.41889,2.01124 7.56416,2.5489 0.59187,0.27784 2.88029,1.19201 5.08538,2.03146 6.57477,2.50294 14.30822,6.80853 18.52311,10.31275 2.02967,1.68744 2.22975,1.97048 3.05605,4.32309 0.48631,1.38458 1.03176,3.08516 1.2121,3.77906 1.6033,6.16859 1.58897,16.82942 -0.0333,24.70813 -0.36925,1.79338 -0.61127,3.32129 -0.53784,3.39538 0.0734,0.074 1.24529,-0.59778 2.60414,-1.49297 4.93579,-3.25168 12.49193,-7.02354 17.63546,-8.80324 1.11782,-0.38678 2.96264,-1.12 4.09962,-1.62941 l 2.0672,-0.92616 -0.13133,-2.26401 c -0.0722,-1.2452 -0.25737,-2.9027 -0.41143,-3.68331 -0.15405,-0.78063 -0.36587,-2.34188 -0.47069,-3.46945 -0.73012,-7.85403 -4.23678,-23.94882 -7.18276,-32.96736 -0.56804,-1.73893 -1.27185,-4.15177 -1.56403,-5.36185 -0.57685,-2.38906 -2.49477,-8.92333 -3.02963,-10.32181 -0.3638,-0.95122 -0.372,-0.9543 -1.78014,-0.67023 -0.72577,0.14643 -0.97753,0.36955 -0.97868,0.86737 -8.8e-4,0.60892 -0.0719,0.58368 -0.7702,-0.27597 -1.02964,-1.26748 -1.73726,-3.45388 -2.34592,-7.24832 l -0.50497,-3.14808 -1.06121,1.57106 c -0.58365,0.86408 -2.30474,2.80816 -3.82462,4.32017 -2.13252,2.12151 -3.30002,3.00599 -5.11383,3.87422 -1.29273,0.61882 -2.74456,1.20462 -3.22629,1.3018 -0.82741,0.16693 -0.91331,0.0747 -1.5529,-1.66639 -2.35146,-6.40127 -2.16198,-13.45865 0.52163,-19.42882 1.13544,-2.52603 2.56552,-4.16787 4.48478,-5.14891 0.83234,-0.42546 1.51335,-0.86314 1.51335,-0.97262 0,-0.26188 -12.34257,0.17001 -15.19703,0.53177 -1.22151,0.15481 -4.10597,0.36901 -6.40989,0.47599 -2.30391,0.10698 -5.73668,0.40878 -7.62838,0.67065 -1.8917,0.26187 -4.42438,0.59585 -5.62819,0.74218 -9.72178,1.1817 -15.75389,2.22523 -21.81735,3.77429 -2.54106,0.64918 -4.69742,1.2583 -4.79189,1.3536 -0.0945,0.0953 0.12021,0.26678 0.47712,0.38104 0.77098,0.24684 0.8502,1.18112 0.14987,1.7674 -0.27447,0.22979 -1.27186,1.45358 -2.21643,2.71955 -0.94455,1.26598 -1.83646,2.30177 -1.98201,2.30177 -0.86712,0 -1.86872,-0.68486 -1.86872,-1.27775 0,-0.75505 2.40239,-4.04386 3.49497,-4.78451 0.39938,-0.27073 0.63364,-0.58928 0.52055,-0.70787 -0.26843,-0.28144 -7.18204,1.64664 -7.68423,2.143 -0.2694,0.26628 -0.30516,0.71196 -0.11863,1.47907 0.97341,4.00347 2.02692,12.10157 2.37908,18.28744 0.3032,5.32586 0.3138,5.36186 1.57875,5.36186 0.59411,0 1.08021,-0.0846 1.08021,-0.18801 0,-0.10345 -0.23258,-0.99048 -0.51687,-1.97127 -0.77815,-2.68474 -0.78446,-11.3012 -0.01,-13.4532 1.34161,-3.72722 4.72505,-5.36952 6.96779,-3.3821 1.65391,1.46564 3.20215,3.6577 4.34374,6.15008 1.63409,3.56757 2.12156,6.07081 1.96442,10.08742 l -0.13276,3.39328 1.11785,0.28108 c 0.61482,0.1546 1.5048,0.36898 1.97773,0.47641 0.47292,0.10745 0.85985,0.3395 0.85985,0.51567 0,0.36801 -4.74636,0.15857 -8.44229,-0.37252 -3.12949,-0.4497 -13.22288,-0.1364 -16.25919,0.5047 -5.16747,1.09105 -6.06484,1.70267 -7.90772,5.38964 -1.91291,3.82711 -1.78532,13.7315 0.23988,18.62077 0.85375,2.06115 2.76354,4.00378 4.74702,4.82867 3.2912,1.36876 9.69714,1.23049 15.74056,-0.33973 2.59333,-0.67381 7.76349,-2.59988 9.22399,-3.43629 2.03432,-1.165 6.00507,-3.58062 7.16823,-4.3608 2.04149,-1.36934 5.99579,-5.30146 7.09684,-7.0571 1.20853,-1.927 1.52484,-2.20182 2.03886,-1.7715 0.6944,0.58132 -0.32387,2.69287 -2.38979,4.95563 -2.05823,2.25434 -7.90198,6.93877 -10.5822,8.48286 -0.85432,0.49216 -3.79714,3.10152 -6.53963,5.79856 -2.74248,2.69703 -6.62511,6.22511 -8.62809,7.84018 -2.00298,1.61508 -3.64175,3.03591 -3.64175,3.15742 0,0.40324 5.84196,0.95287 10.12787,0.95287 8.40292,0 16.32726,-2.42148 22.972,-7.01965 4.34335,-3.00562 12.86368,-11.59104 12.86368,-12.96199 0,-0.34335 -0.33878,-0.60372 -0.94456,-0.72592 -2.04273,-0.41212 -1.43085,-1.50579 0.65931,-1.17847 1.07562,0.16845 1.70688,0.54339 2.86483,1.70159 0.81687,0.81702 1.48521,1.64773 1.48521,1.84598 0,0.5332 -1.15435,0.43787 -1.36377,-0.11265 -0.099,-0.2602 -0.37407,-0.47311 -0.6113,-0.47311 -0.33303,0 -0.47369,0.88038 -0.61733,3.86369 -0.19525,4.05544 -0.40117,5.34113 -1.67976,10.48717 -1.9627,7.89953 -5.99204,12.94571 -13.08143,16.38256 -5.08539,2.46535 -12.99544,4.84945 -18.3271,5.52381 -4.48485,0.56725 -9.55307,0.36618 -12.23708,-0.4855 -0.38919,-0.1235 -0.54719,-8.8e-4 -0.54719,0.42406 0,0.78094 1.31707,4.03717 2.84687,7.03838 0.66986,1.31416 1.21794,2.49497 1.21794,2.62401 0,0.12904 -0.3086,0.18926 -0.68578,0.13383 -1.21906,-0.17916 -3.39126,-4.50419 -4.78027,-9.51795 -0.28151,-1.0161 -0.43402,-1.92595 -0.33891,-2.02189 0.0951,-0.0959 0.91248,-0.009 1.81639,0.19401 3.88033,0.86986 10.49589,1.12213 12.78215,0.48738 0.42709,-0.11858 2.30546,-3.05293 3.91531,-6.11643 1.76612,-3.36084 4.30583,-9.97635 3.9206,-10.21244 -0.11767,-0.0721 -1.76169,0.13781 -3.65339,0.46647 -4.66596,0.81066 -8.5996,0.98198 -12.76772,0.55603 -1.92033,-0.19624 -4.71195,-0.39366 -6.20361,-0.43872 -4.12731,-0.12468 -4.43454,-0.68346 -1.43085,-2.60238 1.07482,-0.68665 3.15365,-2.15418 4.6196,-3.26116 3.10798,-2.34691 10.39519,-8.8138 10.17835,-9.03256 -0.0816,-0.0823 -0.61285,0.0188 -1.18054,0.22459 -1.62267,0.58832 -5.39551,1.53814 -8.34155,2.09998 -3.05083,0.58183 -8.74104,0.42727 -11.57567,-0.31445 l -1.619,-0.42362 -0.83681,1.45506 c -0.46025,0.80029 -2.42479,3.82961 -4.36562,6.73183 -1.94085,2.9022 -3.52882,5.38101 -3.52882,5.50845 0,0.12746 -0.28059,0.52059 -0.62351,0.87364 -0.99138,1.02061 -2.0012,2.41105 -2.9859,4.11134 -1.61429,2.78741 -1.21016,5.8107 1.6232,12.14303 0.58215,1.30105 1.19451,2.57842 1.3608,2.83864 0.16632,0.26021 0.87884,1.39566 1.5834,2.52322 3.3205,5.31403 7.17932,9.78194 10.11188,11.70791 1.22038,0.8015 2.64103,1.91472 3.15693,2.47382 0.51592,0.55911 1.64157,1.49365 2.50143,2.07678 1.85607,1.25871 5.46143,4.70895 8.48202,8.11709 l 2.17589,2.45502 2.99623,-0.35645 c 3.67707,-0.43742 6.28527,-0.0904 10.56085,1.40483 3.21779,1.12537 4.0823,1.30425 4.0823,0.84472 z m 43.79922,-87.65815 c -0.2486,-0.46856 -0.12057,-0.76628 0.6443,-1.49817 2.23678,-2.1403 4.53953,-5.67107 4.98091,-7.63709 0.51451,-2.29183 -2.60452,-4.18003 -7.16896,-4.33995 -2.51949,-0.0882 -3.47529,-0.54292 -2.18312,-1.03849 0.82065,-0.31474 4.30502,-0.23462 5.98515,0.13761 2.22026,0.49191 5.22154,4.02202 5.22154,6.14157 0,1.50347 -1.78796,4.62748 -3.91932,6.84802 -1.97568,2.05833 -2.99372,2.45478 -3.5605,1.3865 z m -39.73443,-1.37953 c -0.94374,-0.48067 -1.43994,-0.95031 -1.50695,-1.42629 -0.11642,-0.82684 0.0695,-0.85775 1.70215,-0.28322 1.87438,0.65955 5.82704,0.35433 7.92283,-0.61181 2.35617,-1.08617 6.32386,-5.23798 7.15409,-7.48604 0.64711,-1.75228 1.61244,-2.40319 1.61244,-1.08725 0,1.13158 -1.37182,3.66886 -2.98978,5.52981 -4.09687,4.71211 -10.39889,7.14533 -13.89478,5.3648 z m -8.12959,-3.57418 c -1.97859,-0.92187 -2.53473,-1.52112 -3.6415,-3.92362 -1.57685,-3.42298 -2.01713,-5.54824 -2.05822,-9.93523 -0.0317,-3.38523 0.0865,-4.55457 0.67706,-6.70561 0.39349,-1.43295 0.84033,-2.68323 0.99298,-2.77839 0.15264,-0.0952 0.27755,-0.41896 0.27755,-0.71955 0,-0.7006 2.38872,-3.06245 3.53797,-3.49817 1.31392,-0.49817 2.59995,-0.40606 3.93698,0.282 2.93221,1.50895 4.55984,3.66297 6.1401,8.12586 3.13791,8.86207 0.77919,17.67485 -5.21089,19.46922 -2.18278,0.65387 -2.63542,0.62308 -4.65203,-0.31651 z m 4.24946,-0.6035 c 2.43629,-1.02683 3.46021,-2.44191 4.54312,-6.27866 1.0053,-3.56179 0.91078,-6.97025 -0.30092,-10.85199 -0.85462,-2.73783 -1.2692,-3.54904 -2.6548,-5.19458 -1.01686,-1.20769 -2.27173,-2.28194 -3.29608,-2.82175 -1.54518,-0.81424 -1.71311,-0.84086 -2.55029,-0.40414 -1.72869,0.90172 -2.86206,2.93523 -4.03058,7.23166 -0.74254,2.73019 -0.81023,4.66093 -0.28538,8.1393 0.36144,2.39524 0.88335,3.50634 0.63366,1.349 -0.32541,-2.81174 1.14904,-5.5281 3.00068,-5.5281 1.27315,0 3.05544,2.15754 3.80531,4.60651 0.76929,2.51243 0.79944,3.61646 0.13516,4.95011 -1.14936,2.30755 -3.38538,2.83455 -4.96595,1.17039 -1.26233,-1.32908 -1.35078,-0.92979 -0.19612,0.88531 1.19838,1.88377 1.88694,2.53528 3.05166,2.88735 1.32246,0.39977 1.88962,0.37416 3.11053,-0.14041 z m -2.7282,-4.69422 c 1.40363,-1.50713 1.13704,-4.14315 -0.719,-7.10893 -0.69059,-1.10351 -0.97978,-1.31634 -1.6782,-1.23503 -2.62819,0.30599 -1.52052,9.08724 1.14629,9.08724 0.30726,0 0.87017,-0.33448 1.25091,-0.74328 z m 6.29566,-26.28097 c -0.77388,-0.79761 -2.13406,-1.7782 -3.02264,-2.17908 -0.97904,-0.44171 -1.69867,-0.99292 -1.82644,-1.39902 -0.28272,-0.89855 -0.16096,-0.97163 1.64215,-0.98572 2.66666,-0.0208 5.32097,1.84888 6.17273,4.34813 0.49517,1.4529 0.39111,1.69644 -0.71735,1.67907 -0.57723,-0.009 -1.28317,-0.46849 -2.24845,-1.46338 z m 118.07025,121.20513 c 1.91038,-4.05782 1.66855,-7.76934 -0.68713,-10.54541 -2.09315,-2.4667 -5.01088,-2.49255 -8.53913,-0.0756 -1.99739,1.36823 -2.07408,1.50767 -3.46091,6.2924 -1.11529,3.84788 -1.21026,4.94003 -0.40174,4.61936 0.96399,-0.38233 5.09721,-1.11218 6.28105,-1.10913 1.22654,0.003 3.84694,1.34027 4.86746,2.4837 0.3276,0.36706 0.65113,0.66738 0.71891,0.66738 0.0678,0 0.61748,-1.04968 1.22149,-2.33263 z m -4.0771,-3.20947 c -0.87737,-0.88501 -0.62019,-2.59153 0.57174,-3.79385 0.5847,-0.5898 1.271,-1.07237 1.52511,-1.07237 1.43716,0 1.71838,3.25422 0.39644,4.58768 -0.88229,0.88999 -1.78695,0.99106 -2.49329,0.27854 z m 2.19367,-1.55218 c 0.32216,-0.49598 0.43741,-1.08071 0.31219,-1.58397 -0.16896,-0.67903 -0.28994,-0.74838 -0.81293,-0.46605 -0.72667,0.39228 -1.66522,2.09217 -1.39691,2.53009 0.35002,0.57131 1.38474,0.30953 1.89765,-0.48007 z m -4.26127,-8.67751 c 0.60897,-0.17066 1.45898,-0.31029 1.88892,-0.31029 1.16302,0 3.16609,0.62192 3.68324,1.14356 0.24977,0.25196 0.6137,0.4015 0.80871,0.3323 0.60912,-0.21616 0.29508,-3.86884 -0.57464,-6.68374 -0.92592,-2.99682 -2.01553,-4.25774 -3.67931,-4.25774 -1.4893,0 -4.20106,0.97228 -5.3053,1.9022 -0.87519,0.73701 -1.03591,1.12619 -1.32561,3.20988 -0.18131,1.30416 -0.28394,3.43839 -0.22807,4.7427 l 0.10155,2.3715 1.76164,-1.07004 c 0.96888,-0.58853 2.25988,-1.20968 2.86884,-1.38033 z m -0.9452,-10.39097 c 0.51591,-0.32549 1.56183,-0.48055 3.24165,-0.48055 l 2.48,0 -0.14589,-2.05679 c -0.30874,-4.35262 -2.73449,-6.61506 -6.10965,-5.6983 -2.25563,0.61266 -3.23425,3.27912 -2.56659,6.99317 0.19837,1.10349 0.42385,2.10945 0.50104,2.23544 0.15149,0.24723 1.37389,-0.21973 2.59944,-0.99297 z m -0.13631,-9.29779 c 2.51109,-0.34691 2.65847,-0.43264 2.65089,-1.54179 -0.0143,-2.08468 -1.98117,-4.94635 -3.39979,-4.94635 -0.78293,0 -2.12199,1.421 -2.53841,2.69375 -0.29424,0.89935 -0.2901,1.46121 0.0192,2.61637 0.51813,1.93452 0.55896,1.99251 1.17643,1.66994 0.29052,-0.15178 1.23172,-0.37313 2.09159,-0.49192 z m -121.29876,-0.81626 c 6.52414,-1.76359 12.55641,-4.60116 16.9719,-7.98356 1.4833,-1.13626 1.59996,-1.30619 1.04021,-1.51505 -1.88726,-0.70423 -9.74605,0.78663 -13.17603,2.49957 -2.35579,1.17648 -5.43532,3.72292 -6.73877,5.57224 -1.66065,2.35611 -1.62741,2.38105 1.90269,1.4268 z m 118.7778,-6.51779 c 1.23109,-0.39864 1.29351,-0.78279 0.31736,-1.95302 -0.62318,-0.74704 -1.07909,-0.9859 -1.88179,-0.9859 -1.94555,0 -2.61192,2.47334 -0.97752,3.62811 0.54706,0.38652 0.72735,0.39187 1.13683,0.0338 0.26762,-0.23406 0.89994,-0.55942 1.40512,-0.72299 z m -115.38676,-1.18054 c 3.04024,-1.74223 6.93151,-2.70208 11.75383,-2.89933 2.14967,-0.0879 4.21911,-0.22322 4.5988,-0.30064 2.44975,-0.49953 6.08014,-11.05725 6.55391,-19.05965 l 0.15872,-2.68093 -1.95131,2.20782 c -5.45727,6.17466 -9.51377,9.39598 -15.84817,12.58513 -2.15143,1.08318 -3.51761,1.95581 -3.51761,2.24684 0,0.26171 -0.83801,2.0799 -1.86225,4.04041 -1.9653,3.76186 -2.67497,5.37943 -2.28321,5.20427 0.13035,-0.0584 1.20912,-0.66306 2.39729,-1.34392 z m 110.95883,-1.40841 c 0.52371,-0.89429 0.51869,-0.92167 -0.2638,-1.43884 -1.03106,-0.68147 -1.82797,-0.51525 -1.95824,0.40844 -0.10644,0.75467 0.70982,1.94203 1.33504,1.94203 0.19422,0 0.59338,-0.41022 0.887,-0.91163 z M 150.17633,789.06972 c 0.19756,-0.47706 0.41854,-2.01307 0.49109,-3.41335 0.22112,-4.26854 -1.64369,-9.28523 -4.60012,-12.37526 -1.42958,-1.49416 -1.72354,-1.66381 -2.73244,-1.57701 -0.86098,0.074 -1.34896,0.37033 -2.04654,1.24245 -1.15687,1.4463 -1.47549,2.84182 -1.48486,6.50337 -0.007,2.85123 0.35564,3.84591 0.7245,1.98557 0.45998,-2.31995 3.67743,-2.38101 4.75983,-0.0903 0.6888,1.45775 0.97523,5.628 0.48414,7.049 -0.45533,1.31753 -0.14348,1.5317 2.23958,1.53807 1.67623,0.004 1.83138,-0.0574 2.16482,-0.86252 z m -5.85454,-1.00941 c 0.7065,-1.3781 0.58706,-3.28957 -0.32735,-5.23935 -0.81032,-1.72781 -1.5731,-2.1776 -2.24009,-1.32093 -0.98962,1.27101 -0.56302,4.9737 0.75507,6.55383 0.97539,1.1693 1.21581,1.17014 1.81237,0.006 z m 59.14098,-9.08351 c 2.75099,-1.51213 6.90769,-5.66666 9.1515,-9.14671 0.92276,-1.43114 1.84617,-2.60207 2.05199,-2.60207 0.23711,0 0.37672,0.54904 0.38094,1.49817 0.01,2.22844 0.89047,7.63188 1.47083,9.02575 0.50042,1.20186 0.51893,1.21214 1.27843,0.71016 2.293,-1.51553 5.03986,-5.705 5.46325,-8.33247 0.29412,-1.82523 1.04334,-1.65143 1.6654,0.38633 1.08302,3.54784 2.58848,5.85876 3.81671,5.85876 0.51795,0 2.21692,-2.45683 3.21141,-4.64395 0.62523,-1.37502 0.83279,-2.34393 0.84631,-3.9507 0.0106,-1.20341 0.15383,-2.12492 0.33059,-2.11979 0.17198,0.005 0.93989,0.88029 1.70646,1.94507 1.87084,2.5986 4.39127,5.31133 5.94196,6.39534 1.24453,0.86997 1.28334,0.8761 1.91254,0.30171 1.11373,-1.01668 3.30714,-4.59448 5.14787,-8.39697 1.58444,-3.27303 1.82314,-4.03193 2.20977,-7.02543 0.38051,-2.94621 0.3746,-3.65245 -0.0484,-5.78336 -0.68093,-3.42993 -1.96799,-5.92577 -4.12134,-7.99201 -2.86928,-2.75321 -5.62958,-4.2233 -9.35849,-4.98413 -1.74674,-0.3564 -3.90422,-0.648 -4.79441,-0.648 -4.41112,0 -13.02692,3.60001 -18.04111,7.53826 -1.68493,1.3234 -3.248,2.7944 -3.47346,3.26893 -0.23094,0.48604 -0.66577,0.86275 -0.99588,0.86275 -0.57171,0 -1.40632,-0.63567 -1.61892,-1.23305 -0.21599,-0.60689 -6.80535,-4.38488 -10.89344,-6.2457 -5.24664,-2.38817 -8.53929,-3.56087 -13.98866,-4.98213 -5.59897,-1.46027 -12.68652,-2.0256 -18.52976,-1.47802 -5.17033,0.48454 -10.5486,1.18534 -13.46506,1.75453 -2.90987,0.56789 -11.81429,3.39211 -12.6435,4.01013 -0.17196,0.12818 -1.7197,0.80116 -3.43945,1.49552 -3.02399,1.22096 -7.81867,3.60272 -8.42663,4.18594 -0.49112,0.47113 0.39616,0.33765 4.20551,-0.6327 1.97767,-0.50377 4.79177,-1.12831 6.25352,-1.38788 1.46179,-0.25956 4.81317,-0.85445 7.44752,-1.32198 2.63437,-0.46752 4.87537,-0.76368 4.98001,-0.65814 0.25542,0.25766 -0.88864,1.10898 -1.50722,1.12158 -0.76206,0.0155 -4.65238,1.40841 -6.7172,2.405 -6.89745,3.32908 -17.73406,12.06401 -20.92257,16.86478 -0.51112,0.76954 -1.25076,1.80151 -1.64365,2.29325 -0.91403,1.14398 -0.65042,1.56911 0.63054,1.01691 3.825,-1.64885 5.24228,-2.188 9.13397,-3.47463 2.40762,-0.79597 4.58853,-1.53624 4.8465,-1.64504 0.25795,-0.10879 0.75042,-0.24614 1.09436,-0.30519 0.34393,-0.0591 1.68065,-0.39066 2.97043,-0.73688 3.79188,-1.01788 8.55708,-2.13028 14.07049,-3.28465 2.83753,-0.59412 6.21445,-1.30309 7.50425,-1.57549 4.89389,-1.03355 16.22105,-2.37409 27.04656,-3.20087 1.20381,-0.092 2.79935,-0.24411 3.54565,-0.33817 1.96998,-0.2483 21.86726,-0.20494 22.27387,0.0485 0.62625,0.39043 -0.24458,0.86679 -2.03168,1.11143 -6.99363,0.95733 -10.57549,6.53243 -10.6242,16.53643 -0.0172,3.52663 0.0817,4.38697 0.70736,6.14964 0.40003,1.12718 0.79274,2.15618 0.87269,2.28669 0.27355,0.44647 0.96547,0.23651 3.11587,-0.94549 z m -12.71928,233.9863 c 0.31465,-0.593 -0.36209,-2.9617 -2.16639,-7.5825 -0.67674,-1.7331 -0.75717,-2.0442 -1.84045,-7.11944 -0.33323,-1.56124 -0.84689,-3.87437 -1.14145,-5.14028 -0.29455,-1.26589 -0.44667,-2.3913 -0.33801,-2.50089 0.87676,-0.88443 9.92134,6.83208 10.82828,9.23826 0.46994,1.24685 0.41967,4.01475 -0.10558,5.81495 -0.4721,1.6178 -2.39143,5.02 -3.95904,7.0177 -0.79926,1.0185 -1.78471,1.2285 -1.27732,0.2722 z m 1.96678,-3.2323 c 2.6183,-4.8105 2.90737,-5.8942 2.2519,-8.4426 -0.50391,-1.95909 -0.8212,-2.48649 -2.68705,-4.46626 -1.34751,-1.42979 -5.0163,-4.39575 -5.43741,-4.39575 -0.36686,0 0.13281,2.40556 1.23551,5.94818 0.57459,1.84593 1.35456,4.49173 1.73327,5.87943 1.07932,3.9552 1.94382,6.7812 2.07437,6.7812 0.0658,0 0.43897,-0.5868 0.82941,-1.3042 z m -54.76035,-16.47965 c -0.50787,-0.61728 -1.21281,-3.3274 -1.75872,-6.76144 -0.25708,-1.61709 -0.62145,-3.60412 -0.80971,-4.41565 -0.371,-1.59927 -0.58052,-13.61854 -0.2374,-13.61854 0.11508,0 0.66764,0.74514 1.22792,1.65588 2.07059,3.36577 2.62551,4.19714 3.32259,4.97772 0.39225,0.43924 1.27907,1.90168 1.97068,3.24985 1.34548,2.62275 1.54838,3.99514 0.83993,5.68137 -0.63281,1.50618 -1.12858,2.89046 -2.30452,6.43458 -1.05551,3.18118 -1.48997,3.72093 -2.25077,2.79623 z m 1.42281,-4.84635 c 0.26557,-0.65053 0.66837,-1.60855 0.89511,-2.12897 1.80135,-4.13447 1.21444,-6.78701 -2.65804,-12.01263 l -1.56592,-2.11311 0.005,1.85871 c 0.009,2.91211 2.11066,15.57875 2.58511,15.57875 0.1404,0 0.47256,-0.53222 0.73813,-1.18275 z m 49.39856,-67.65408 c -0.16329,-2.6122 -0.82301,-15.58378 -0.92489,-18.18554 -0.0563,-1.43462 0.39173,-1.97981 1.00939,-1.22865 1.58055,1.92216 3.37325,4.34326 5.4131,7.31057 2.29395,3.33697 2.41268,3.59507 2.42325,5.26838 0.0134,2.10995 -0.66911,3.28556 -4.05936,6.99295 -1.56402,1.71032 -2.45503,2.44437 -2.96706,2.44437 -0.69498,0 -0.73997,-0.13085 -0.89443,-2.60208 z m 4.45977,-3.54829 c 0.67671,-1.04083 1.40158,-2.48311 1.61083,-3.20508 0.33823,-1.16704 0.30679,-1.46446 -0.28349,-2.68093 -0.36516,-0.75256 -1.596,-2.63415 -2.73517,-4.18133 -1.71209,-2.32529 -2.12211,-2.72135 -2.36466,-2.28418 -0.16138,0.29089 -0.22798,0.6357 -0.148,0.76622 0.13601,0.22198 0.22703,1.64923 0.68511,10.74293 0.099,1.96529 0.26152,3.78758 0.36116,4.04956 0.21562,0.56677 0.96208,-0.26616 2.87422,-3.20719 z"
       id="path4201"
       inkscape:connector-curvature="0" />
  </g>
</svg>
