<?xml version="1.0" encoding="UTF-8" standalone="no"?>
<!-- Created with Inkscape (http://www.inkscape.org/) -->

<svg
   xmlns:dc="http://purl.org/dc/elements/1.1/"
   xmlns:cc="http://creativecommons.org/ns#"
   xmlns:rdf="http://www.w3.org/1999/02/22-rdf-syntax-ns#"
   xmlns:svg="http://www.w3.org/2000/svg"
   xmlns="http://www.w3.org/2000/svg"
   xmlns:sodipodi="http://sodipodi.sourceforge.net/DTD/sodipodi-0.dtd"
   xmlns:inkscape="http://www.inkscape.org/namespaces/inkscape"
   width="200mm"
   height="200mm"
   viewBox="0 0 708.66142 708.66142"
   id="svg2"
   version="1.1"
   inkscape:version="0.91 r"
   sodipodi:docname="pedro.svg">
  <defs
     id="defs4" />
  <sodipodi:namedview
     id="base"
     pagecolor="#ffffff"
     bordercolor="#666666"
     borderopacity="1.0"
     inkscape:pageopacity="0.0"
     inkscape:pageshadow="2"
     inkscape:zoom="0.49497475"
     inkscape:cx="93.181385"
     inkscape:cy="242.05659"
     inkscape:document-units="px"
     inkscape:current-layer="layer1"
     showgrid="false"
     inkscape:window-width="1280"
     inkscape:window-height="776"
     inkscape:window-x="0"
     inkscape:window-y="24"
     inkscape:window-maximized="1"
     inkscape:snap-others="false" />
  <metadata
     id="metadata7">
    <rdf:RDF>
      <cc:Work
         rdf:about="">
        <dc:format>image/svg+xml</dc:format>
        <dc:type
           rdf:resource="http://purl.org/dc/dcmitype/StillImage" />
        <dc:title></dc:title>
      </cc:Work>
    </rdf:RDF>
  </metadata>
  <g
     inkscape:label="Capa 1"
     inkscape:groupmode="layer"
     id="layer1"
     transform="translate(0,-343.70079)">
    <path
       style="fill:#000000"
       d="m 289.79665,1044.1669 c -2.84881,-4.4847 -6.75699,-10.5773 -8.68477,-13.5398 -1.92784,-2.9626 -3.50951,-5.6727 -3.51482,-6.0229 -0.004,-0.3499 -0.93683,-2.0254 -2.07004,-3.723 -2.65123,-3.9714 -13.94777,-27.05072 -17.72948,-36.22249 -1.6043,-3.89025 -3.65582,-9.58671 -4.55885,-12.65831 -0.90307,-3.0718 -2.09405,-6.925 -2.64659,-8.5634 -1.54552,-4.582 -3.13245,-10.7106 -4.049,-15.63659 -0.45719,-2.45755 -1.30002,-6.64593 -1.87292,-9.30805 -0.57293,-2.66209 -1.2136,-6.8505 -1.42369,-9.30765 -0.48735,-5.6995 -2.47912,-24.85695 -3.11605,-29.97112 -0.26778,-2.1501 -0.69022,-3.90573 -0.93877,-3.90137 -0.24858,0.004 -2.11682,1.36202 -4.15168,3.017 -2.03491,1.65499 -5.19819,4.05489 -7.02957,5.33304 -1.8314,1.27824 -4.3613,3.21637 -5.62198,4.30701 -5.21406,4.51053 -27.38129,14.88609 -31.80411,14.88609 -0.54993,0 -2.42669,0.45743 -4.17054,1.01659 -6.07736,1.94847 -11.38569,2.73442 -22.7122,3.36266 -11.12842,0.6173 -11.51013,0.58849 -15.90903,-1.20133 -11.2748,-4.58755 -27.43255,-14.72572 -42.24476,-26.50643 -5.93043,-4.71668 -16.39348,-15.99659 -19.165245,-20.66155 -3.322983,-5.59257 -8.313847,-20.39806 -9.3935,-27.86599 -0.414463,-2.86681 -1.067648,-6.64129 -1.451492,-8.38769 -0.916537,-4.17006 -0.885037,-24.16222 0.05062,-32.19426 0.405571,-3.48107 1.073891,-9.51252 1.485147,-13.40318 1.154581,-10.92218 1.250711,-11.55131 3.607863,-23.61136 1.217428,-6.22881 2.524801,-11.92519 2.905261,-12.6586 0.380458,-0.7334 1.249606,-4.13558 1.931458,-7.56032 1.092833,-5.48912 1.110653,-6.37137 0.150356,-7.44623 -1.689489,-1.89105 -12.304681,-17.29515 -13.437635,-19.49985 -3.167041,-6.16297 -6.219475,-24.01999 -6.230603,-36.44923 -0.0099,-12.03455 2.425189,-30.90357 5.383225,-41.69887 3.729904,-13.61221 10.414088,-30.64823 14.746803,-37.58527 0.505332,-0.80912 2.0101,-3.25929 3.343885,-5.44475 1.333784,-2.18554 5.067197,-6.73637 8.29648,-10.11299 6.894607,-7.20919 12.488757,-10.07593 20.909667,-10.71527 l 4.99284,-0.37907 4.21993,-6.31672 c 2.32096,-3.47417 5.36254,-7.19889 6.7591,-8.27707 1.39654,-1.07819 3.65358,-2.91026 5.01562,-4.07127 3.00349,-2.5602 8.73898,-4.19911 14.71723,-4.20542 5.47231,-0.004 9.03978,0.95303 13.54646,3.64069 l 3.47251,2.07096 3.69979,-2.08042 c 4.52342,-2.54353 11.75796,-3.48654 16.61736,-2.16605 2.5138,0.68309 4.56321,2.16919 8.61745,6.24905 7.30875,7.35483 9.72528,13.69603 8.38278,21.99677 -1.03369,6.39127 -3.98445,11.48471 -10.96222,18.92226 -12.9393,13.79192 -14.15178,16.09408 -14.13578,26.8404 0.0143,9.63028 0.11787,9.86455 4.59067,10.39764 6.0972,0.72667 12.62534,4.24266 15.65629,8.43223 4.9372,6.82461 7.46175,16.00021 8.27831,30.08792 0.47034,8.11489 0.40008,8.74326 -1.51087,13.51258 -1.82219,4.5479 -5.1129,9.94835 -8.92866,14.65288 -2.51057,3.09539 -14.58289,16.73986 -16.75459,18.93655 -1.58723,1.60546 -1.98451,2.57706 -1.67451,4.0954 0.49527,2.42575 1.773,7.28464 2.57952,9.80911 0.32711,1.02388 1.1568,4.29091 1.84379,7.26006 0.68697,2.96919 1.48908,5.39851 1.78243,5.39851 0.95404,0 6.9948,-4.31302 10.40653,-7.43008 1.83138,-1.67325 4.82819,-4.09435 6.65958,-5.38023 1.83141,-1.28595 4.87441,-3.62078 6.76231,-5.18856 1.88784,-1.5678 3.65924,-2.85056 3.93641,-2.85056 0.27716,0 1.89587,-0.95717 3.59708,-2.12712 1.70125,-1.16993 7.36155,-4.55331 12.57841,-7.51858 8.65783,-4.92117 11.59868,-7.35809 9.66314,-8.00735 -3.08274,-1.03404 -11.02034,-6.65793 -15.13937,-10.72636 -7.71309,-7.61831 -10.1872,-14.29989 -9.24908,-24.97813 0.28218,-3.21195 0.53035,-6.58273 0.5515,-7.49061 0.0213,-0.90789 0.58526,-1.81717 1.25356,-2.02066 1.88355,-0.57338 10.66043,-1.79856 12.31445,-1.71901 3.23514,0.15561 5.5497,-0.2309 5.5497,-0.92705 0,-0.40299 -2.11084,-3.50253 -4.69063,-6.88776 -6.21131,-8.1504 -10.37615,-14.54887 -14.1847,-21.79204 -4.95658,-9.42653 -9.96387,-22.98253 -9.97729,-27.01114 -0.0115,-3.46875 6.72776,-14.89057 19.21096,-32.55868 4.47391,-6.33211 13.34124,-20.54366 13.33996,-21.37975 -7.2e-4,-0.5274 -1.67439,-2.10635 -3.71915,-3.50879 -5.51969,-3.78576 -7.64011,-7.86818 -9.99856,-19.25019 -1.38448,-6.68145 -1.58542,-23.42464 -0.33124,-27.60151 4.6112,-15.35705 11.54805,-20.69853 29.59582,-22.78916 2.24187,-0.25974 4.54656,-0.76474 5.12155,-1.12237 1.09476,-0.68088 1.12047,-0.17958 -1.47144,-28.70014 -0.64571,-7.105 -4.17381,-28.55203 -4.82118,-29.30697 -0.26627,-0.31056 -10.70587,3.22668 -26.94768,9.13059 -9.87179,3.58845 -17.02488,5.17015 -17.02488,3.76453 0,-0.22145 0.60713,-1.31035 1.34915,-2.41999 0.74206,-1.10969 2.90461,-4.36316 4.80565,-7.22992 9.18694,-13.85389 31.64779,-33.35053 48.52631,-42.12221 3.41575,-1.77513 5.85737,-3.34601 5.42585,-3.49075 -1.38567,-0.46481 -22.15489,4.1578 -33.31454,7.41483 -4.25394,1.24154 -5.58487,1.38177 -6.28967,0.66263 -0.70101,-0.7153 -0.33499,-1.39718 1.69591,-3.15969 1.42444,-1.23616 3.75529,-3.34297 5.17969,-4.68183 2.76465,-2.59854 7.39938,-4.94861 20.37058,-10.32905 22.06322,-9.15174 31.07159,-11.73896 61.02452,-17.52644 5.5376,-1.06998 30.6666,-0.35104 37.73773,1.07965 12.74069,2.57786 40.94688,10.78126 45.87721,13.34283 1.01747,0.52858 3.84778,1.91182 6.28963,3.07385 2.44189,1.16208 8.18576,4.54244 12.76423,7.51201 4.57848,2.96953 8.31836,4.98237 8.3109,4.47298 -0.0115,-0.50941 -0.4893,-3.63155 -1.07068,-6.9381 -1.63649,-9.30774 -0.50844,-19.29259 3.30334,-29.23913 1.52186,-3.97119 2.98333,-6.544 4.1568,-7.31773 2.50368,-1.65081 2.85991,-0.89351 1.16338,2.47319 -0.7939,1.57551 -2.39877,5.71265 -3.56638,9.1938 -1.9403,5.78466 -2.12194,7.22627 -2.11111,16.75399 0.0115,6.57428 0.33072,10.97476 0.87518,11.91394 0.86335,1.48927 0.86335,1.48927 1.3737,0 6.55377,-19.12466 17.00943,-33.04598 29.75301,-39.61503 6.9376,-3.57623 10.75565,-4.56033 12.39167,-3.19398 1.76599,1.47489 1.30829,2.06181 -2.04299,2.61989 -4.97435,0.82843 -9.91557,2.97152 -13.89856,6.02819 -4.64371,3.56364 -13.18607,14.16242 -16.13005,20.01311 -2.66751,5.30122 -6.95142,16.75404 -6.26679,16.75404 0.26408,0 2.86621,-1.9707 5.78245,-4.37937 9.22112,-7.61593 25.06808,-15.01389 36.8658,-17.21034 5.79104,-1.07812 11.67579,-0.65221 21.541,1.559 9.14313,2.04936 14.3607,5.03934 22.03934,12.6297 5.2309,5.17071 6.99171,7.51071 9.24948,12.29223 2.64048,5.59202 2.78549,6.28157 2.72973,12.97965 -0.0325,3.9226 -0.65709,9.72773 -1.40161,13.03094 -1.33389,5.91794 -6.80618,18.94052 -9.63882,22.93777 -5.10685,7.20653 -10.60251,13.57622 -11.85766,13.74351 -2.80713,0.37425 -13.71519,-9.33496 -17.88724,-15.92141 -1.24566,-1.96651 -2.13356,-0.44404 -2.73268,4.6855 -0.54003,4.62384 -3.07733,10.13191 -6.44538,13.9921 -2.47713,2.8391 -5.12369,3.42536 -6.74011,1.49316 -0.52481,-0.62731 -2.13061,-2.42195 -3.5685,-3.98811 -1.43791,-1.56617 -3.23663,-4.23623 -3.99715,-5.93342 -0.76054,-1.69715 -1.61246,-3.08579 -1.8932,-3.08579 -0.28073,0 -0.92715,1.4241 -1.43639,3.16462 -0.50926,1.74057 -1.89389,5.2231 -3.07697,7.73885 -1.18304,2.51583 -2.15101,4.87513 -2.15101,5.24291 0,0.36779 1.97924,6.85392 4.39828,14.41364 8.10638,25.33311 14.24612,48.02305 15.23994,56.3207 0.28558,2.38454 0.99957,5.50829 1.58657,6.94171 1.22113,2.9818 5.77703,24.395 6.49554,30.52951 0.26381,2.25251 1.12863,8.78653 1.9218,14.52014 0.79321,5.73355 1.56516,11.52714 1.71549,12.87464 0.15039,1.34747 0.4376,2.61528 0.63845,2.81741 0.20115,0.20231 4.98794,-1.13707 10.63797,-2.97596 5.65002,-1.83885 12.93662,-4.05974 16.19246,-4.93526 3.25578,-0.87555 7.88922,-2.23045 10.29655,-3.01094 5.9528,-1.93003 8.26423,-1.83979 9.70891,0.37892 1.0566,1.62275 1.0627,2.32328 0.0625,7.18585 -0.72518,3.52587 -1.89105,6.48493 -3.37351,8.5623 -1.24598,1.74591 -2.26544,3.58477 -2.26544,4.08632 0,0.50158 -1.24864,2.31304 -2.77478,4.02545 -1.5262,1.71241 -4.68473,5.60335 -7.01898,8.64642 -2.33428,3.04312 -5.76403,7.2611 -7.62171,9.37334 l -3.3776,3.84039 6.88178,3.50918 c 15.53517,7.92187 20.5709,10.90447 20.5709,12.18384 0,0.70338 -1.16545,2.4156 -2.58986,3.80491 -1.42437,1.38928 -2.58983,2.89613 -2.58983,3.34847 0,0.45234 1.41516,1.57351 3.1448,2.49146 3.89728,2.06832 3.81495,2.01879 16.85226,10.13986 12.97137,8.07993 18.4168,11.90451 23.29033,16.35788 2.03488,1.85945 3.86626,3.38331 4.06978,3.38635 0.2035,10e-4 1.06474,-1.28292 1.914,-2.85775 1.18161,-2.19111 1.44209,-3.63179 1.10963,-6.13698 -0.7802,-5.87895 0.45219,-18.34738 2.16545,-21.90885 1.48424,-3.08541 1.50289,-3.41567 0.40345,-7.14138 -1.44368,-4.892 -1.49319,-12.72771 -0.0976,-15.44351 0.94752,-1.84398 0.90084,-2.39075 -0.45822,-5.36152 -0.87497,-1.91261 -1.67403,-5.59614 -1.89407,-8.73173 -0.35058,-4.99488 -0.59218,-5.64142 -3.05656,-8.1794 -1.4718,-1.51573 -4.34087,-3.6086 -6.37573,-4.65095 -3.446,-1.76514 -3.71516,-2.10589 -3.92393,-4.96783 -0.18247,-2.50072 0.0893,-3.29359 1.45961,-4.25945 2.41797,-1.70432 5.46564,-1.46502 8.595,0.67481 1.78171,1.21839 3.74957,1.86323 5.69538,1.86645 3.81769,0.004 6.91248,2.07395 9.00951,6.01919 0.90763,1.70763 2.40436,3.48314 3.326,3.94555 3.09821,1.55436 5.84662,6.47669 6.30541,11.29269 0.36244,3.80469 0.81303,4.84592 3.20486,7.40566 1.53073,1.63814 3.15783,3.71571 3.61582,4.61681 1.26504,2.48894 1.89204,12.34113 0.95718,15.0398 -0.70961,2.04846 -0.54827,2.74744 1.35138,5.85493 2.56272,4.19205 3.66073,10.1936 4.18753,22.88886 0.75174,18.11522 0.52772,21.27303 -1.97157,27.79469 -1.25652,3.27891 -2.95675,6.82152 -3.77831,7.87249 -1.66505,2.13013 -1.53398,2.54443 2.17391,6.87196 3.21077,3.74732 17.47391,23.1545 21.37968,29.0902 5.95154,9.04481 11.07205,20.11224 9.86659,21.32536 -1.06459,1.07126 -2.37287,-0.2837 -6.06457,-6.28106 -4.87688,-7.92274 -9.7805,-15.31008 -14.2842,-21.51918 -5.03832,-6.94606 -6.9418,-9.74505 -10.00118,-14.70623 -2.41037,-3.90873 -4.47634,-5.09441 -4.47634,-2.56899 0,0.73723 -0.35832,1.70094 -0.7963,2.14167 -0.56845,0.57207 0.2521,1.85639 2.86769,4.48849 6.6086,6.65027 12.24196,17.26934 13.11523,24.7225 0.17247,1.47211 0.66859,4.85456 1.10244,7.51661 1.77015,10.86039 1.99639,13.28783 2.14372,23.00034 0.0954,6.30184 -0.29826,13.19087 -1.04128,18.21376 -1.13981,7.70583 -1.13331,8.12543 0.14151,9.09797 0.73488,0.56073 1.54347,1.03018 1.79685,1.04319 0.95356,0.0488 9.93943,7.68469 12.27526,10.43079 2.71089,3.18701 2.91432,3.74071 1.37454,3.74071 -1.19026,0 -4.0102,-1.71889 -11.3072,-6.89238 -2.74745,-1.94788 -5.33139,-3.42891 -5.74208,-3.29115 -0.41075,0.13778 -1.11137,1.56399 -1.55693,3.16931 -0.59629,2.1484 -1.25112,2.98402 -2.48102,3.16586 -1.32119,0.1956 -1.58778,-0.0381 -1.274,-1.11692 1.94901,-6.69841 3.77222,-27.65526 3.14949,-36.2013 -0.27502,-3.77386 -0.67623,-9.54217 -0.89162,-12.81853 -0.81447,-12.39055 -4.67256,-27.0161 -8.38814,-31.79848 -0.73049,-0.94025 -2.19064,-3.42783 -3.24476,-5.52809 -3.50455,-6.98238 -7.05442,-9.5477 -16.24643,-11.74043 -7.47948,-1.78415 -12.25121,-2.05131 -22.01738,-1.23254 -9.53908,0.79971 -14.00018,1.82725 -18.93361,4.36093 -4.95234,2.54349 -5.7945,4.02635 -6.0973,10.73587 -0.17844,3.95326 0.0163,6.15016 0.57791,6.49906 0.46607,0.28984 2.91724,0.23773 5.4471,-0.11559 22.08808,-3.08617 30.58799,0.41792 38.2597,15.77248 1.56808,3.13837 3.0703,7.02273 3.33829,8.63189 0.268,1.60915 0.91542,4.09855 1.43874,5.53194 0.52328,1.43339 1.17784,3.86272 1.45454,5.39851 0.47052,2.61164 0.38447,2.79234 -1.33043,2.79234 -1.89311,0 -2.16277,-0.46098 -3.04871,-5.21237 -1.05488,-5.65734 -4.37241,-15.09299 -6.75187,-19.2036 -4.9615,-8.57125 -10.18901,-11.55321 -20.25104,-11.55203 -6.5651,7.3e-4 -16.80989,1.5172 -17.46581,2.58521 -0.20923,0.34065 -1.16671,0.61937 -2.12769,0.61937 -2.411,0 -14.10088,4.22746 -17.02647,6.15732 -6.81941,4.49843 -9.16821,15.08648 -5.08843,22.93807 1.46533,2.82004 2.24574,3.62829 3.1448,3.25704 0.65775,-0.27157 3.05332,-0.94306 5.32352,-1.49218 7.76787,-1.87888 15.57615,0.3997 22.57402,6.58745 6.13196,5.4221 14.95573,18.48305 12.41115,18.37101 -1.18468,-0.0522 -5.92931,-4.79437 -8.69048,-8.68608 -1.51173,-2.1307 -4.47997,-5.4484 -6.59607,-7.37266 -8.90037,-8.09335 -16.63022,-8.49469 -29.37593,-1.52505 -2.23836,1.22396 -5.40166,2.87938 -7.02961,3.67871 -7.78779,3.82386 -16.85947,11.92322 -17.86347,15.94886 -0.82127,3.2928 1.08317,14.11266 3.36416,19.11285 3.6196,7.93464 8.40753,10.82505 15.49226,9.35238 4.76573,-0.99063 10.33668,-3.62359 14.28264,-6.75043 4.16831,-3.30296 5.79567,-2.67713 3.80324,1.46266 -1.13773,2.364 -1.11436,2.47629 0.97707,4.69015 1.17856,1.24752 3.55794,3.10786 5.28759,4.13409 5.07352,3.01022 3.62287,5.07051 -2.03486,2.89016 -0.93532,-0.36044 -1.11731,0.65638 -1.15686,6.46331 -0.0404,5.91732 -0.3326,7.48994 -2.06842,11.12958 -1.11178,2.3312 -3.55252,5.95223 -5.42392,8.04679 -2.46431,2.75823 -3.17912,4.03291 -2.59252,4.62325 0.99323,0.99951 6.60641,1.97523 11.70606,2.0349 3.80241,0.0442 6.09119,1.38509 5.10532,2.99026 -0.26256,0.4275 -2.16896,0.77724 -4.23649,0.77724 l -3.75914,0 0.41639,3.53694 c 0.45169,3.83641 4.51499,17.27822 6.1337,20.29099 0.55008,1.02384 1.48375,3.38091 2.07483,5.23791 2.37888,7.47384 9.28767,21.7677 13.57751,28.09127 1.73922,2.56342 3.16215,4.86113 3.16215,5.10572 0,0.24461 1.36508,2.16781 3.03356,4.27422 2.59588,3.27699 2.83912,3.86899 1.68568,4.10219 -1.43143,0.2896 -5.7883,-4.18879 -10.04445,-10.32485 -6.26604,-9.03348 -16.36084,-31.64816 -21.27289,-47.6558 -4.17981,-13.62151 -3.67111,-12.73457 -8.14546,-14.20238 l -3.93925,-1.29224 -4.89215,3.01332 c -7.70737,4.74748 -14.00944,7.02749 -23.23612,8.40649 -3.15053,0.47093 -3.7051,0.84584 -4.98482,3.37007 -0.79193,1.56209 -2.04743,3.28116 -2.79001,3.82016 -2.37246,1.72208 -2.39903,2.55784 -0.28575,9.00564 2.86155,8.73066 6.16331,13.99986 13.08537,20.88244 8.18587,8.13906 17.37579,14.00249 26.26846,16.75954 2.05916,0.63861 18.59682,3.06801 21.21457,3.1166 0.33774,0 0.11436,0.3362 -0.49588,0.7332 -2.25906,1.46901 -13.55408,0.84341 -20.30251,-1.12439 -12.72797,-3.7118 -22.36053,-9.64561 -31.34249,-19.30785 -5.49041,-5.90636 -7.6785,-9.89711 -11.66031,-21.2667 -2.43607,-6.95592 -3.26938,-8.56311 -4.43971,-8.56311 -0.79241,0 -1.38709,0.33508 -1.32143,0.7446 0.0655,0.40958 0.3031,3.93443 0.52764,7.83311 0.22459,3.89871 0.89171,8.4674 1.48261,10.15271 3.12909,8.92478 9.25103,18.19372 16.18677,24.50759 6.18179,5.62766 17.20632,9.98884 25.31145,10.01365 2.05112,0 4.2288,0.3362 4.83929,0.7334 0.76161,0.4952 -1.00571,0.7254 -5.63181,0.7332 -6.61853,0 -14.52251,-1.7918 -19.57472,-4.465 -2.04033,-1.0798 -8.45029,-6.18303 -10.68131,-8.504 -5.86218,-6.09856 -12.97617,-18.48963 -14.45711,-25.18143 -0.52116,-2.35486 -1.08632,-4.28154 -1.25597,-4.28154 -0.16975,0 -2.19776,1.45901 -4.50694,3.24234 -7.42542,5.73436 -13.21884,7.86545 -17.50896,6.44063 -2.29376,-0.76177 -2.74287,-0.6269 -5.84363,1.75488 -3.87951,2.98011 -12.08472,6.31222 -21.36072,8.67519 -9.23266,2.35164 -19.88359,1.95881 -25.7951,-0.95166 -7.75232,-3.81678 -18.89823,-16.41464 -21.44716,-24.24096 -0.49065,-1.50643 -1.31653,-3.40914 -1.83531,-4.22823 -2.42485,-3.82845 -5.47414,-22.05066 -5.53855,-33.09797 -0.0438,-7.47337 1.08655,-19.32483 2.29349,-24.05177 0.39212,-1.53578 1.06695,-4.21642 1.49959,-5.95703 0.82288,-3.31039 0.96647,-3.66332 5.73656,-14.09908 5.03538,-11.01623 9.57683,-15.31869 19.77824,-18.73752 8.88225,-2.97668 12.57853,-2.67245 25.39921,2.09077 3.01787,1.1212 3.3634,1.11438 5.17969,-0.10219 1.07033,-0.71707 3.89062,-2.23716 6.26732,-3.37794 4.77766,-2.29322 10.29623,-2.70565 17.58646,-1.3144 2.77581,0.52976 4.0597,0.52141 4.24155,-0.0274 0.14333,-0.43294 1.01402,-1.69625 1.93474,-2.80739 1.51848,-1.83251 1.71726,-3.05784 2.13962,-13.18951 0.4172,-10.00933 0.93081,-14.2196 3.37363,-27.65575 0.62496,-3.43737 4.43303,-16.20162 5.96687,-20.00013 6.26958,-15.5267 8.06492,-19.25491 9.1913,-19.08691 0.34983,0.0522 0.73643,4.49311 0.85907,9.86884 0.19929,8.73019 1.38806,16.29202 2.56135,16.29202 0.23404,0 0.86527,-2.09424 1.40237,-4.65386 2.9613,-14.11098 7.71469,-29.99972 11.19418,-37.41727 0.76838,-1.6382 2.76149,-5.99426 4.42908,-9.68011 1.66755,-3.68586 5.19601,-10.3875 7.84096,-14.89242 7.81653,-13.31316 9.7239,-16.06894 17.08642,-24.68654 l 3.91444,-4.58166 -6.9835,-4.19351 c -7.8228,-4.69741 -15.99222,-8.61022 -17.97289,-8.60808 -0.72116,7.1e-4 -3.30905,2.01597 -5.75092,4.47822 -8.35796,8.42777 -32.14758,28.00219 -42.54745,35.00858 -13.59668,9.16019 -37.41708,23.80473 -38.71999,23.80473 -0.28783,0 -3.4311,1.64835 -6.98509,3.66295 -3.55396,2.01457 -8.2874,4.38601 -10.51872,5.26977 -2.23131,0.88376 -5.72761,2.37212 -7.76955,3.30742 -8.73411,4.00084 -25.8365,11.21662 -28.68606,12.10316 -1.00533,0.31282 -1.29493,-0.0326 -1.29493,-1.54547 0,-1.07161 0.25318,-1.9484 0.56262,-1.9484 0.52498,0 5.62572,-6.58835 10.85675,-14.02303 1.24842,-1.77426 3.22,-4.37113 4.38139,-5.77081 1.16133,-1.39966 1.94117,-2.54484 1.73294,-2.54484 -0.58987,0 -10.12949,5.16893 -13.83392,7.49579 -4.64179,2.91563 -16.00478,7.45622 -24.7885,9.90544 -4.06977,1.13482 -8.23202,2.30117 -9.24945,2.59191 -1.42691,0.40779 -1.79964,0.9492 -1.63022,2.36787 0.50246,4.20653 0.15872,7.48212 -1.02875,9.80131 -1.57895,3.08396 -10.61643,12.54287 -15.28494,15.99778 -1.93316,1.43059 -3.51408,2.99141 -3.51321,3.46841 7.5e-4,0.4771 2.01666,3.88312 4.47956,7.56895 8.75171,13.09753 20.13429,33.87477 24.78531,45.24212 1.04586,2.55618 2.71379,6.41592 3.70654,8.57722 0.99272,2.16129 1.80493,4.09165 1.80493,4.28968 0,0.19819 0.62767,1.78052 1.3948,3.51661 2.81411,6.36833 7.12203,20.14945 8.55163,27.35675 0.60928,3.07158 1.57308,7.76269 2.14176,10.42472 0.96732,4.52788 1.58139,8.57608 3.47329,22.89714 0.41927,3.17394 0.89375,9.45352 1.05436,13.95458 0.3181,8.91513 -1.25489,26.91824 -2.45774,28.1287 -1.08231,1.08913 -4.95026,-2.4082 -9.16341,-8.28533 -2.44418,-3.40946 -3.53165,-4.45552 -3.57011,-3.43412 -0.0304,0.80781 -0.0237,5.99235 0.0144,11.52115 0.0612,8.65083 -0.49547,18.22857 -1.86055,32.01865 -0.52881,5.34198 -5.12537,24.09996 -8.11977,33.1359 -3.49956,10.55977 -10.10243,27.26867 -11.81556,29.89977 -2.43363,3.7378 -2.94025,3.0565 -12.55811,-16.8692 -3.06397,-6.34794 -6.18777,-12.71429 -6.94176,-14.14768 -1.25121,-2.37859 -5.22189,-12.17985 -9.95517,-24.57261 -2.46124,-6.4444 -8.54365,-32.31999 -9.84545,-41.88483 -0.51922,-3.81486 -1.35996,-4.53851 -2.16297,-1.86157 -0.27644,0.92147 -1.49491,3.3222 -2.70785,5.33496 -1.59635,2.64907 -2.09096,4.23463 -1.7914,5.74203 0.22767,1.14525 0.14315,2.25084 -0.1879,2.45646 -1.13278,0.70474 -4.53116,-5.66321 -6.06711,-11.36844 -3.25476,-12.08982 -6.37868,-26.6432 -5.99663,-27.93673 0.10377,-0.35238 -0.52201,-4.87593 -1.39134,-10.05238 -1.43855,-8.56581 -1.54258,-11.21862 -1.15721,-29.5165 0.50034,-23.75801 2.27403,-37.55807 6.62235,-51.5229 0.99549,-3.19713 2.04471,-6.98582 2.33147,-8.41919 1.56608,-7.82654 10.58804,-30.00722 14.87144,-36.56161 1.24574,-1.90627 1.22038,-1.99451 -1.61364,-5.61993 -4.16272,-5.32515 -9.8952,-17.69104 -9.91897,-21.39677 -0.0293,-4.56066 -0.009,-4.55145 -10.20373,-4.59197 -9.71237,-0.0382 -14.10733,-0.96448 -25.96825,-5.47104 -4.09498,-1.55585 -5.25541,-1.49411 -5.25541,0.27963 0,0.55697 -0.47611,1.96128 -1.05801,3.12065 -0.5819,1.15947 -1.77373,4.62118 -2.64841,7.69277 -0.87478,3.07158 -2.26205,7.93024 -3.08293,10.79701 -4.5782,15.98884 -8.06058,42.48115 -6.94226,52.81354 l 0.55819,5.15774 2.71199,-5.18634 c 1.49159,-2.85243 4.62207,-7.66011 6.95665,-10.68369 2.33461,-3.02355 4.24475,-5.92284 4.24475,-6.4429 0,-0.52003 0.35596,-1.16692 0.79105,-1.43749 0.55495,-0.34516 0.6453,2.25118 0.30278,8.69975 -0.26856,5.05542 -0.61201,9.3932 -0.76318,9.63938 -1.39749,2.27534 -2.62808,67.56389 -1.52869,81.09968 0.18294,2.25249 0.72077,10.46198 1.19522,18.24329 0.47439,7.7813 1.33555,17.16353 1.9137,20.84941 0.57815,3.68589 1.56823,10.89018 2.2001,16.00947 2.18644,17.71292 4.18416,27.79193 7.31312,36.89612 3.9033,11.3572 4.70435,13.44903 6.61424,17.27139 0.97304,1.94725 3.35403,6.72364 5.29106,10.6144 2.98165,5.98879 7.47054,14.32209 10.02778,18.61549 0.36587,0.6141 1.37202,2.4574 2.23589,4.0955 3.64656,6.9153 9.12481,16.4367 9.86056,17.1383 2.07066,1.9748 3.45771,4.0278 3.74868,5.5483 0.17555,0.9179 0.96818,2.7752 1.76118,4.1273 l 1.44189,2.4594 -1.59922,0.4318 c -0.87952,0.2373 -1.76569,0.4141 -1.96917,0.3924 -0.20353,-0.025 -2.70079,-3.7086 -5.54964,-8.193 z m 44.54175,-26.9305 c 2.32802,-3.1153 10.69483,-28.57085 12.42071,-37.79001 0.65171,-3.48099 1.4838,-7.05357 1.8491,-7.93959 0.67732,-1.642 2.0855,-9.91879 3.84331,-22.58939 1.05742,-7.6227 1.35148,-37.36226 0.42951,-43.43461 -0.57423,-3.78182 0.35874,-4.52285 1.97889,-1.57182 0.43602,0.79426 2.58637,4.29268 4.7785,7.77422 4.35704,6.91991 7.38539,10.57449 8.29405,10.00936 1.31518,-0.81793 1.53701,-7.89018 0.69415,-22.13371 -0.48988,-8.27942 -1.50591,-18.57191 -2.25776,-22.87208 -2.33039,-13.32838 -5.88941,-28.45946 -7.33216,-31.1722 -0.43675,-0.8213 -0.79413,-2.34511 -0.79413,-3.3863 0,-1.83086 -3.91644,-13.18186 -6.75287,-19.57196 -0.76266,-1.71805 -1.38663,-3.39612 -1.38663,-3.729 0,-0.33291 -0.78705,-2.11043 -1.74907,-3.9501 -0.96201,-1.83972 -2.17397,-4.6852 -2.69321,-6.32339 -0.51929,-1.63815 -2.00578,-5.32403 -3.30336,-8.19085 -1.29757,-2.86679 -2.83267,-6.36682 -3.41139,-7.77783 -4.92492,-12.00771 -18.06824,-35.03793 -19.99605,-35.03793 -0.3375,0 -2.20681,1.02162 -4.15409,2.27027 -3.03102,1.94356 -4.01968,2.20946 -6.8703,1.84761 -1.83143,-0.23257 -3.72473,-0.1584 -4.2074,0.1642 -2.87268,1.92121 -12.38525,24.52156 -16.06215,38.16131 -1.4498,5.37791 -4.8287,20.53777 -5.22045,23.42194 -0.16941,1.24716 -1.01855,5.8603 -1.88711,10.25143 -1.45451,7.35388 -1.5548,9.76296 -1.27086,30.52955 0.34346,25.12447 1.29376,34.54979 4.89907,48.59122 1.25958,4.90559 2.29016,9.3236 2.29016,9.81778 0,0.49414 0.33902,1.79575 0.75339,2.89249 l 0.75337,1.99407 1.74898,-2.59356 c 5.27585,-7.82348 5.69727,-9.00488 5.55256,-15.5673 -0.12104,-5.49148 0.5505,-13.19047 1.21374,-13.91434 0.13139,-0.14362 0.59401,-0.0399 1.02808,0.23016 0.49449,0.30752 0.78886,4.15869 0.78828,10.3131 -7.3e-4,10.458 -0.0818,9.99813 6.78137,38.49028 1.62774,6.75758 4.46934,16.64218 6.31459,21.96618 1.84525,5.32382 4.3605,12.69565 5.58934,16.38155 1.22884,3.68634 2.80406,8.04201 3.50039,9.68051 0.69635,1.6381 1.73358,4.14992 2.30488,5.58225 0.57134,1.43224 2.2917,4.95059 3.82304,7.81839 1.53134,2.8681 3.52924,6.7982 4.43974,8.7341 1.76582,3.7538 2.18477,4.0891 3.27979,2.6238 z m 89.90874,-84.05407 c 2.15669,-0.46344 5.32574,-1.81241 7.04241,-2.99804 4.59518,-3.17338 12.04789,-14.34673 12.04789,-18.06248 0,-0.47933 -1.51316,-1.27882 -3.36262,-1.77656 -2.6078,-0.70188 -4.55932,-2.1154 -8.69446,-6.29759 -7.82274,-7.91177 -11.76443,-15.81607 -15.2267,-30.53422 -2.79305,-11.87329 1.98675,-34.70057 8.62411,-41.18741 2.514,-2.45692 2.5447,-2.55789 1.34016,-4.40783 -2.86737,-4.40377 -12.95074,-10.06255 -17.82839,-10.00529 -6.49773,0.0766 -10.50147,3.50693 -15.41453,13.2082 -5.5464,10.95197 -7.17529,19.50569 -7.193,37.77218 -0.009,10.12704 0.31907,14.61402 1.51031,20.60902 3.91386,19.69614 8.59189,30.44716 16.58789,38.12252 3.33129,3.1976 6.65011,4.8882 11.16894,5.68902 4.46028,0.79039 5.15184,0.78073 9.39799,-0.1322 z m 25.88302,-7.06587 c 9.18008,-4.60758 10.89113,-7.40428 13.61194,-22.24898 3.95528,-21.57966 -3.49437,-57.49666 -15.3775,-74.13872 -1.74749,-2.44737 -4.18986,-5.86689 -5.42744,-7.599 -2.80897,-3.93135 -8.87162,-7.65633 -14.31261,-8.7938 -5.69083,-1.18972 -15.91759,-0.5195 -20.07877,1.31591 l -3.31607,1.46263 5.30917,0.45423 c 5.74086,0.4912 8.21437,1.5149 13.9297,5.76494 9.59865,7.13785 17.09392,19.38844 21.69898,35.46563 2.82396,9.85901 3.42963,15.21 3.44472,30.4311 0.0163,16.82068 -1.09189,23.78909 -4.69385,29.50458 -1.13441,1.80008 -2.66959,4.87231 -3.41146,6.82707 -0.74188,1.95487 -1.63793,3.73401 -1.99118,3.95372 -0.35322,0.21981 -0.44991,0.71258 -0.21463,1.09529 0.64976,1.05792 3.7553,0.0565 10.82918,-3.4946 z m -272.62685,-5.91839 c 21.28215,-4.33633 35.49362,-9.98215 47.20462,-18.75322 2.59544,-1.94391 7.0777,-5.20977 9.9606,-7.25746 l 5.24152,-3.72311 -0.56992,-11.16931 c -0.31348,-6.14315 -0.55586,-12.50969 -0.53858,-14.14787 0.0609,-5.78466 1.07357,-32.1065 1.48969,-38.72037 0.23192,-3.68586 0.55958,-9.04717 0.72822,-11.91392 0.1685,-2.86678 0.81226,-8.86489 1.43025,-13.32908 0.61808,-4.46424 0.99828,-8.243 0.84495,-8.39727 -0.80148,-0.80655 -5.02162,6.51841 -8.55821,14.85438 -4.19727,9.8935 -8.14434,1.67354 -7.17648,-14.94533 0.59242,-10.17205 1.09801,-16.01969 1.65471,-19.13695 0.2196,-1.22858 0.67598,-4.07681 1.01468,-6.32925 0.81192,-5.40004 3.1053,-14.48575 6.74043,-26.70391 1.62816,-5.47243 2.80884,-10.10231 2.6237,-10.28863 -0.8624,-0.86782 -8.94009,4.02862 -19.72258,11.9553 -3.05232,2.24385 -7.4688,5.36063 -9.81438,6.92613 -2.34561,1.5655 -7.67327,5.20752 -11.83931,8.09338 -8.7943,6.09194 -8.61858,5.56042 -5.40458,16.34698 1.09825,3.68591 2.4953,8.37703 3.10449,10.42475 1.67044,5.61471 3.18087,11.77671 3.19411,13.03087 0.009,0.98494 -3.55191,-5.95084 -6.88409,-13.40322 -1.57982,-3.53319 -6.31913,-17.37469 -7.52121,-21.96636 -0.53612,-2.04771 -1.47164,-5.56603 -2.07897,-7.81847 -0.60732,-2.25251 -1.46274,-6.06409 -1.90095,-8.47022 -0.43819,-2.40609 -1.25009,-5.28933 -1.80428,-6.4072 -1.39467,-2.81336 0.0355,-5.39069 6.98037,-12.57925 9.81079,-10.15508 18.06078,-20.30508 20.64103,-25.39463 2.41734,-4.76835 2.82022,-10.75119 1.40901,-20.92553 -1.48041,-10.67302 -2.13271,-13.46489 -3.98757,-17.06715 -5.70718,-11.08376 -10.53241,-13.9868 -21.72822,-13.07263 -9.48341,0.77432 -18.78634,2.89499 -21.6574,4.93693 -7.83057,5.56928 -12.54785,15.13432 -12.04009,24.41325 0.45576,8.32941 6.25742,11.84081 18.01616,10.90431 6.33948,-0.50492 10.27368,0.25436 9.32466,1.7996 -0.20648,0.33611 -3.57363,1.05298 -7.48272,1.59306 -6.92121,0.95628 -7.17588,1.06119 -9.72283,4.00545 -2.91316,3.36756 -6.63893,10.67319 -7.3306,14.37409 -0.6169,3.30082 0.0201,5.31594 2.65138,8.38188 2.36484,2.75596 2.74185,3.72308 1.45122,3.72308 -3.06688,0 -10.31074,-9.08511 -10.31074,-12.93154 0,-5.88913 1.87673,-8.88206 8.83989,-14.09775 l 4.0302,-3.01878 -2.97385,-1.27092 c -3.40741,-1.45629 -8.00137,-6.48604 -9.16517,-10.03464 -1.18601,-3.6163 0.18016,-12.92494 2.65228,-18.07167 2.97036,-6.18404 7.19249,-10.94725 11.64029,-13.13187 2.22847,-1.09457 7.26757,-2.47219 11.98472,-3.27644 7.80687,-1.33103 8.13274,-1.46074 7.97343,-3.17281 -0.45482,-4.88729 -0.1065,-15.40069 0.59958,-18.0985 1.27787,-4.88255 3.73079,-8.45427 12.06435,-17.56686 8.02799,-8.7785 10.21348,-12.23857 11.5659,-18.31145 0.60522,-2.71761 0.53081,-4.30718 -0.34124,-7.28838 -2.47307,-8.45501 -13.39674,-18.33294 -20.27378,-18.33294 -3.67242,0 -9.73834,2.53345 -9.73834,4.06723 0,0.52569 0.70546,2.56067 1.56767,4.52218 1.84951,4.20747 1.5399,9.6535 -0.85906,15.11096 -1.73135,3.93871 -7.39535,12.75313 -9.12109,14.19437 -0.66381,0.55438 -1.20693,1.32546 -1.20693,1.71345 0,0.38801 -1.01962,2.19676 -2.26584,4.01947 -3.65791,5.35017 -6.79113,12.80409 -7.28158,17.32286 -0.39847,3.67138 -0.64286,4.17095 -1.92903,3.94339 -2.14384,-0.37931 -2.68769,-1.59671 -2.21221,-4.95176 0.49185,-3.47028 8.523,-17.99042 14.31598,-25.88289 7.30356,-9.95051 9.24136,-15.66203 7.51612,-22.15298 -1.35958,-5.11513 -5.70602,-8.88653 -12.73588,-11.05089 -8.21942,-2.53059 -11.64978,-1.9155 -18.518,3.32074 -5.20179,3.96573 -11.38743,10.34073 -12.99454,13.39228 -0.74553,1.41563 -0.49205,1.70856 2.75716,3.18631 6.26741,2.85038 9.02897,9.22014 6.68593,15.42171 -0.4199,1.11136 -3.66645,5.8466 -7.21455,10.52278 -9.44449,12.44707 -10.52088,14.73252 -10.52088,22.33808 0,5.8983 -0.0737,6.18231 -1.41641,5.45918 -1.1309,-0.60905 -1.47249,-1.77768 -1.69447,-5.79703 -0.24283,-4.39456 0.0176,-5.69648 2.05513,-10.24653 1.28326,-2.86682 4.85579,-8.45274 7.939,-12.41317 11.08035,-14.23295 11.45911,-18.57672 1.99622,-22.89385 -1.8314,-0.83553 -4.39134,-1.52645 -5.68873,-1.5355 -3.67956,-0.0255 -11.9152,2.11347 -15.83624,4.11289 -3.14031,1.60131 -11.77302,9.4915 -11.77302,10.7603 0,0.26322 -1.361203,2.29829 -3.024895,4.52237 -7.191949,9.61434 -15.048478,28.7654 -16.47438,40.15792 -0.179429,1.43338 -0.702802,3.6275 -1.163102,4.87584 -0.460301,1.24831 -1.451817,5.93937 -2.203337,10.42471 -1.81077,10.80708 -2.138453,40.39086 -0.539812,48.73698 2.354923,12.29454 9.797189,26.91735 17.272809,33.93826 3.033265,2.84875 3.182248,3.17095 2.409902,5.21235 -1.939325,5.12607 -8.225587,36.0658 -9.141271,44.99167 -0.188944,1.84295 -0.908766,6.86915 -1.599342,11.16937 -1.256347,7.82329 -1.712363,30.04305 -0.733528,35.74186 0.246342,1.43337 0.961497,5.2868 1.58952,8.56314 0.62805,3.27633 1.315116,6.95723 1.526873,8.17978 0.54758,3.16166 3.621015,11.27479 5.927846,15.6481 3.74111,7.09255 12.300437,17.0003 18.792837,21.7534 1.79792,1.31628 5.38584,3.99691 7.97319,5.95698 10.51061,7.96247 13.29055,9.94441 18.48943,13.18179 5.21123,3.24514 11.73147,6.00971 15.65393,6.63726 6.3434,1.01487 18.32671,0.39169 27.18823,-1.41391 z M 115.5372,740.80453 c 0,-0.60916 1.26277,-1.90977 2.80612,-2.89018 3.90052,-2.47781 7.329,-6.61072 8.24872,-9.94353 1.13353,-4.10756 0.95578,-13.5063 -0.36565,-19.33431 -1.88151,-8.29823 -12.58023,-28.83852 -18.21202,-34.96491 -1.90854,-2.07617 -0.39758,-3.20374 1.71499,-1.27982 2.22674,2.02786 8.78167,10.99746 12.99174,17.77757 3.46452,5.57939 7.00457,14.2236 7.92507,19.3517 0.5456,3.03964 0.64166,12.99603 0.1461,15.15981 -1.23507,5.39426 -6.22192,12.45166 -10.89711,15.4216 -3.28457,2.08655 -4.35808,2.25948 -4.35808,0.70207 z m 354.73041,179.10605 c 1.85584,-0.80053 5.12999,-2.60231 7.27589,-4.00396 7.46809,-4.87794 8.70613,-7.3359 4.19696,-8.33253 -4.37437,-0.96687 -5.77054,-7.82955 -2.50036,-12.29001 2.06415,-2.81542 3.08317,-3.52636 6.44502,-4.4966 3.00808,-0.86813 8.67725,0.49857 10.42557,2.51342 1.66221,1.91558 2.07324,1.39765 4.31942,-5.44283 1.99447,-6.07384 2.65851,-19.37896 1.37142,-27.47771 -1.73515,-10.91817 -4.70875,-18.0939 -12.01569,-28.99555 -10.93112,-16.30882 -22.36908,-23.23291 -34.92102,-21.13988 -5.40956,0.90208 -13.0073,4.07391 -13.0073,5.43024 0,0.47982 1.83318,2.86501 4.07377,5.30035 14.34003,15.58664 22.21461,36.53523 23.66303,62.95004 0.54498,9.93872 -0.80258,19.58451 -4.10295,29.36899 -1.19633,3.54674 -2.17514,6.81378 -2.17514,7.26008 0,1.25942 3.23302,0.95986 6.95138,-0.64405 z m 11.52846,-37.30063 c -1.25555,-2.36083 0.43505,-9.25595 2.96922,-12.11008 1.85367,-2.08771 2.30924,-2.26158 4.18957,-1.59872 3.03302,1.06917 4.04832,5.3787 2.11722,8.98714 -3.07299,5.74227 -7.52739,8.00961 -9.27601,4.72166 z m 6.53622,-7.96892 c 0.26568,-3.69527 -0.508,-4.03411 -2.28787,-1.00204 -1.80269,3.07092 -1.6566,4.69793 0.39542,4.40465 1.38403,-0.19761 1.70326,-0.77182 1.89245,-3.40261 z m -43.35923,30.66716 c 1.18326,-4.26391 0.75415,-22.68649 -0.77267,-33.17349 -1.70099,-11.68374 -4.63217,-21.14779 -9.6435,-31.13663 -4.18487,-8.34166 -5.21962,-9.25693 -7.75525,-6.85981 -2.9991,2.83528 -5.39049,10.84098 -6.03747,20.21185 -0.24032,3.48112 -0.59961,7.66958 -0.79837,9.30777 -0.33376,2.75058 0.58183,8.56747 2.62667,16.68761 1.49748,5.94649 8.56412,18.78066 12.39033,22.5028 3.26733,3.17845 6.98025,5.23832 8.68426,4.81788 0.38478,-0.0952 0.97251,-1.15599 1.306,-2.35798 z m 41.22662,-4.0239 c 1.26471,-0.52717 3.42316,-0.77497 4.79651,-0.55073 2.32448,0.37959 2.52908,0.24676 2.96025,-1.92267 0.59161,-2.97673 -2.09122,-5.98865 -5.33443,-5.98865 -4.60533,0 -10.09598,6.52644 -8.31231,9.8804 1.0259,1.92894 2.51495,2.31104 3.10293,0.79625 0.26819,-0.69087 1.52235,-1.68746 2.78705,-2.2146 z m 29.1607,-11.49502 c 6.29566,-2.21375 9.82239,-4.65639 16.76484,-11.61127 6.60969,-6.62161 9.27218,-11.29747 10.48483,-18.41359 1.01188,-5.93818 0.12474,-11.87631 -2.23929,-14.98658 l -1.33287,-1.75374 -2.89797,1.48544 c -4.17755,2.14139 -10.4576,3.88361 -13.99884,3.88361 -4.86261,0 -10.48286,-3.32811 -13.83216,-8.19087 -2.17572,-3.15886 -3.17258,-5.71313 -4.35908,-11.16936 -1.6336,-7.51186 -1.52056,-11.83363 0.40756,-15.58566 1.03199,-2.00826 6.59308,-7.76544 9.732,-10.07515 1.31674,-0.96888 1.31932,-1.07189 0.0624,-2.46984 -2.12996,-2.36844 -10.21747,-6.11739 -14.2075,-6.5859 -7.27703,-0.85447 -16.34284,2.97895 -24.09656,10.18904 -2.00849,1.86769 -3.6495,3.87814 -3.64671,4.46772 8.4e-4,0.58957 1.24995,1.90964 2.77159,2.93348 4.33139,2.91452 8.87429,7.33435 13.7764,13.40321 2.48105,3.07162 5.08407,6.21784 5.78444,6.9916 2.59361,2.86564 8.09774,15.20387 10.00208,22.42099 1.6569,6.27942 1.96087,8.96306 1.93977,17.12631 -0.0162,6.6234 -0.40971,11.08152 -1.24315,14.11816 -1.78841,6.51586 -1.75776,6.60947 1.98061,6.04535 1.75931,-0.26549 5.42587,-1.26585 8.14786,-2.22295 z m -2.65211,-17.62789 c -1.66701,-0.97704 -1.76018,-7.23796 -0.17717,-11.90781 2.20403,-6.50204 8.34424,-10.59893 9.68489,-6.46194 0.94599,2.91908 0.50813,10.49433 -0.79366,13.73121 -1.86136,4.62827 -5.46176,6.54479 -8.71398,4.63854 z m 5.60832,-5.32884 c 1.60436,-2.16454 2.77224,-10.99324 1.45418,-10.99324 -1.95371,0 -4.81442,5.12212 -5.66919,10.15067 -0.66766,3.92771 1.59326,4.37964 4.21501,0.84257 z m 6.42346,4.29149 c -0.78719,-2.08364 0.68427,-7.21716 2.71652,-9.47691 2.95102,-3.28149 6.55107,10e-4 5.72196,5.22112 -0.60872,3.83075 -2.66567,6.09738 -5.53331,6.09738 -1.66942,0 -2.37943,-0.45005 -2.90517,-1.84159 z m 5.91215,-5.37682 c 0,-1.1382 -0.35314,-1.72537 -0.92496,-1.53795 -1.37134,0.44955 -2.97181,4.19018 -2.4118,5.63696 0.42933,1.10922 0.65527,1.05012 1.91182,-0.50003 0.7837,-0.96682 1.42494,-2.58639 1.42494,-3.59898 z m -7.58542,-68.32199 c 8.24592,-4.23796 7.95751,-3.82031 6.22213,-9.00826 -1.44438,-4.31816 -1.55791,-4.43944 -4.35548,-4.65555 -1.67735,-0.12961 -4.29292,0.3909 -6.28687,1.25098 -3.62927,1.5655 -9.45309,6.38549 -9.45309,7.8237 0,0.47352 1.14768,1.4829 2.55038,2.24303 1.40265,0.76019 3.29208,2.17668 4.19873,3.14783 0.9066,0.97117 1.75647,1.76571 1.88851,1.76571 0.13193,0 2.4881,-1.15532 5.23569,-2.56744 z m -39.30032,-2.44182 c 6.48844,-3.48264 6.63304,-3.52023 13.61189,-3.53693 l 7.05374,-0.0161 2.68142,-2.69777 c 4.42725,-4.45436 10.68563,-7.66778 15.76915,-8.09683 l 4.43975,-0.37472 0.45658,-3.76426 c 1.06843,-8.80843 6.73427,-15.41174 16.5624,-19.30279 8.02528,-3.17726 7.69473,-2.87383 6.80122,-6.24241 -1.2484,-4.70665 0.49447,-12.86341 3.34839,-15.6713 2.29034,-2.25334 8.88828,-5.3616 14.27502,-6.72495 2.28881,-0.57925 3.29647,-1.36821 4.41349,-3.45547 1.09417,-2.04458 7.26149,-8.10926 9.89693,-9.73225 0.33893,-0.20872 3.78829,-14.49827 3.80185,-15.74987 0.0163,-1.54764 -4.79721,-5.67364 -15.65065,-13.41406 -11.51429,-8.21175 -31.90245,-20.98681 -33.49357,-20.98681 -0.98111,0 -4.2883,3.70613 -7.30917,8.19083 -6.5073,9.66069 -8.63734,13.27977 -13.66001,23.20943 -7.70814,15.23895 -9.6045,19.92036 -13.37151,33.00957 -3.19262,11.09337 -3.65863,13.29416 -4.96254,23.43622 -1.54574,12.0228 -1.85883,12.53026 -4.64914,7.53425 -2.60875,-4.67081 -4.64852,-11.91484 -5.09805,-18.10482 -0.22955,-3.16244 -0.69348,-5.57828 -1.03073,-5.3685 -0.70716,0.43979 -6.05077,17.49906 -7.21461,23.03235 -0.43074,2.04774 -1.14429,6.9064 -1.58571,10.79705 -0.44136,3.89059 -1.11248,9.58698 -1.4913,12.65854 -1.40926,11.42627 -1.61457,14.89243 -0.88207,14.89243 0.40101,0 3.68025,-1.58398 7.28723,-3.51997 z M 311.21852,758.2135 c 4.52115,-1.26314 19.25257,-14.47339 24.15307,-21.65906 3.31363,-4.85866 3.53303,-6.48894 1.28498,-9.54877 -2.16375,-2.94509 -8.3456,-5.33874 -23.20599,-8.98547 -1.64147,-0.40282 -6.80266,-0.63698 -11.4693,-0.52037 l -8.48484,0.21202 0.26281,1.86158 c 0.25352,1.7961 0.2125,1.81579 -1.16822,0.55848 -0.78703,-0.71673 -1.7746,-1.30312 -2.19461,-1.30312 -1.43329,0 -1.75133,7.53327 -0.50216,11.89648 4.34518,15.17769 7.33804,21.36909 12.22088,25.28134 4.10046,3.28548 4.71213,3.43373 9.10338,2.20688 z m 303.1883,-28.6488 c 1.5394,-8.72024 -0.0932,-12.58912 -6.79928,-16.11301 -3.31098,-1.73982 -4.64864,-2.05526 -7.17473,-1.69188 -4.14959,0.59693 -11.41998,3.51938 -15.81353,6.35643 -3.73975,2.41495 -8.82982,7.58654 -8.82982,8.97123 0,0.55724 2.23951,0.6653 7.21456,0.34802 9.39167,-0.59887 25.74143,2.19639 28.64552,4.89738 1.26842,1.17969 2.23097,0.21318 2.75728,-2.76817 z m -329.85038,-2.2524 c 0.90933,-0.35112 1.17047,-1.5873 1.17047,-5.54069 0,-2.79882 0.35108,-5.30711 0.78016,-5.57397 1.72181,-1.07082 -2.84101,-6.02996 -17.75291,-19.29462 -4.11858,-3.66359 -7.99492,-6.73593 -8.61411,-6.82732 -0.61918,-0.0916 -2.5264,-1.46555 -4.23833,-3.05346 -5.63849,-5.2302 -17.45433,-9.07741 -28.01314,-9.12111 l -6.41149,-0.0265 -0.51634,5.54504 c -0.71382,7.66527 0.43893,11.93022 4.78541,17.70547 7.60184,10.10066 19.66303,18.39091 32.70821,22.48204 8.73277,2.7387 23.26346,4.8013 26.10207,3.70515 z m 61.47684,-8.03545 c 4.47677,-1.45039 10.96986,-3.84666 14.42915,-5.32511 3.45929,-1.47848 9.61943,-4.05644 13.68919,-5.72881 4.06974,-1.67238 8.28339,-3.65607 9.36365,-4.40823 1.08027,-0.75217 2.15455,-1.36755 2.38725,-1.36755 0.23286,0 4.97523,-2.68063 10.53885,-5.95694 13.2903,-7.82649 14.2266,-7.83395 7.12346,-0.0572 -10.83763,11.86574 -12.80981,14.07149 -15.69634,17.55551 -1.69656,2.04772 -3.56775,4.63867 -4.15822,5.75763 l -1.07362,2.03452 5.74685,-2.67262 c 3.16082,-1.46993 6.91235,-3.16073 8.33673,-3.75733 5.40628,-2.26436 9.19935,-4.14654 17.236,-8.55273 4.56082,-2.50054 11.12279,-6.04523 14.58208,-7.87711 3.45936,-1.83178 6.7891,-3.75867 7.39958,-4.28192 0.61046,-0.52328 1.7759,-1.15495 2.58983,-1.40373 0.81396,-0.24901 3.6443,-1.95741 6.28961,-3.79692 4.79951,-3.33749 8.56907,-5.88865 21.0188,-14.22533 15.64858,-10.47865 16.66341,-11.24125 31.1481,-23.40626 9.70575,-8.15137 24.86905,-23.70523 30.48311,-31.26827 2.88802,-3.89065 6.33193,-8.41425 7.65313,-10.05242 2.56938,-3.18599 8.11095,-14.32603 8.11095,-16.30527 0,-0.65637 -0.27971,-1.19337 -0.62159,-1.19337 -2.95903,0 -40.78321,12.49448 -49.32541,16.29373 -2.03489,0.90498 -5.00959,2.21649 -6.61049,2.91441 -5.63126,2.45507 -22.2936,11.11983 -26.31754,13.68571 -2.23835,1.42728 -4.56919,2.81858 -5.17967,3.09167 -0.61046,0.27316 -3.60726,2.15817 -6.65962,4.189 -3.05232,2.03081 -7.71396,4.93799 -10.35935,6.46046 -2.64534,1.5224 -5.64218,3.34486 -6.65958,4.04986 -1.01743,0.70501 -5.8219,3.914 -10.67662,7.13109 -8.59364,5.69484 -16.0471,10.79333 -27.20917,18.61229 -8.00136,5.60489 -22.59965,16.64578 -26.86036,20.31482 -2.03485,1.75231 -4.5322,3.87246 -5.54964,4.71142 -1.01741,0.83898 -3.86012,3.40216 -6.31706,5.696 -2.45695,2.29378 -8.01695,7.31781 -12.35554,11.16437 -4.33858,3.84665 -8.09038,7.5237 -8.3373,8.17125 -0.48976,1.28428 1.65827,3.31339 2.93141,2.76916 0.42343,-0.18083 4.43267,-1.51577 8.90939,-2.96609 z m -14.42909,-1.14075 c 0,-0.68569 7.50338,-8.14572 21.83607,-21.70998 6.6082,-6.25394 12.85645,-11.67744 24.37484,-21.15767 1.99039,-1.63818 5.25907,-4.48637 7.26368,-6.32929 2.0046,-1.84299 5.72824,-4.85869 8.27457,-6.70159 2.54641,-1.84297 7.33495,-5.36134 10.64124,-7.81855 3.30625,-2.45724 7.70977,-5.64052 9.78562,-7.0739 2.07578,-1.43339 5.37807,-3.84261 7.33828,-5.3538 l 3.56414,-2.74766 2.27253,-9.53863 c 2.69965,-11.33113 4.17593,-25.1362 4.16526,-38.9512 -0.009,-10.28955 -0.8304,-16.04923 -3.50911,-24.57257 -1.90695,-6.0677 -2.88396,-7.65485 -7.56298,-12.28625 -4.39152,-4.34674 -4.86823,-4.73004 -12.36124,-9.93866 -9.42824,-6.55381 -38.23855,-19.28393 -55.17919,-24.38144 -5.41273,-1.6287 -6.84459,-2.3463 -6.84459,-3.43028 0,-1.11274 0.38295,-1.28224 2.03489,-0.90101 3.39967,0.78466 15.19039,4.74822 17.9007,6.01758 1.40067,0.65593 6.81626,2.81417 12.03464,4.79599 15.5593,5.90905 33.86063,16.07393 43.83525,24.34689 4.80321,3.9838 5.27671,4.65204 7.23217,10.20621 1.15087,3.26878 2.4417,7.28359 2.86845,8.92183 3.79423,14.56314 3.76031,39.73178 -0.079,58.33228 -0.87383,4.23394 -1.44658,7.8411 -1.27277,8.016 0.17374,0.1748 2.94697,-1.41127 6.16269,-3.52467 11.68064,-7.67674 29.56237,-16.58156 41.7346,-20.78319 2.64534,-0.91311 7.01114,-2.64415 9.70181,-3.84679 l 4.89209,-2.18653 -0.31082,-5.345 c -0.17083,-2.93972 -0.60905,-6.85286 -0.97365,-8.69574 -0.36455,-1.84297 -0.86581,-5.52888 -1.11387,-8.1909 -1.72785,-18.54222 -10.02643,-56.5397 -16.99812,-77.83115 -1.34429,-4.1054 -3.00985,-9.80175 -3.7013,-12.65854 -1.36515,-5.64024 -5.90393,-21.0667 -7.16967,-24.36834 -0.86097,-2.24566 -0.88035,-2.25295 -4.21275,-1.58229 -1.71752,0.34568 -2.31333,0.87245 -2.31605,2.04773 -8.4e-4,1.43758 -0.17013,1.37797 -1.82269,-0.65152 -2.43665,-2.99234 -4.11126,-8.15412 -5.55167,-17.11225 l -1.195,-7.43215 -2.5114,3.70906 c -1.38119,2.03995 -5.45419,6.62964 -9.05101,10.19926 -5.04666,5.00858 -7.80953,7.09672 -12.10195,9.14649 -3.05926,1.46095 -6.49507,2.84394 -7.63507,3.07336 -1.95808,0.39411 -2.16139,0.17641 -3.67496,-3.9341 -5.56477,-15.11247 -5.11636,-31.77393 1.23445,-45.86863 2.68703,-5.9636 6.07134,-9.83972 10.61329,-12.15585 1.96975,-1.00443 3.58136,-2.03774 3.58136,-2.29621 0,-0.61825 -29.20888,0.40136 -35.964,1.25543 -2.8907,0.3655 -9.71685,0.87119 -15.16913,1.12374 -5.45222,0.25257 -13.57593,0.96509 -18.05266,1.58331 -4.47672,0.61826 -10.47038,1.40672 -13.31919,1.7522 -23.00676,2.78981 -37.28183,5.25346 -51.63113,8.91055 -6.01346,1.5326 -11.11652,2.97066 -11.34007,3.19564 -0.22363,0.225 0.28448,0.62986 1.12911,0.89958 1.82455,0.58275 2.01202,2.78847 0.35466,4.17259 -0.64953,0.5425 -3.00986,3.43169 -5.24521,6.42048 -2.23528,2.98878 -4.34602,5.43412 -4.69046,5.43412 -2.05207,0 -4.42236,-1.61684 -4.42236,-3.01658 0,-1.78256 5.6853,-9.54696 8.27089,-11.29552 0.94518,-0.63918 1.49953,-1.3912 1.23189,-1.67118 -0.63523,-0.66445 -16.9964,3.88747 -18.18482,5.0593 -0.63756,0.62864 -0.72217,1.68084 -0.28074,3.49187 2.30357,9.45163 4.79674,28.57005 5.63012,43.17401 0.71751,12.57357 0.74262,12.65856 3.73614,12.65856 1.40597,0 2.55631,-0.1998 2.55631,-0.44386 0,-0.24425 -0.55039,-2.33837 -1.22318,-4.65389 -1.84149,-6.33826 -1.85643,-26.68046 -0.0237,-31.76106 3.17493,-8.79942 11.18191,-12.67666 16.48939,-7.98463 3.91399,3.46015 7.57791,8.6353 10.27953,14.51945 3.86709,8.42251 5.02071,14.3323 4.64881,23.81492 l -0.31415,8.01106 2.6454,0.66358 c 1.45497,0.36501 3.56114,0.87112 4.68032,1.12472 1.11916,0.25369 2.03487,0.80152 2.03487,1.21742 0,0.86882 -11.23233,0.37438 -19.97884,-0.87944 -7.40598,-1.0617 -31.29213,-0.32205 -38.4776,1.19153 -12.22891,2.5758 -14.35255,4.01976 -18.71376,12.72415 -4.52695,9.03524 -4.22499,32.41808 0.56769,43.96095 2.0204,4.86608 6.53995,9.45232 11.23389,11.39978 7.78867,3.23146 22.94843,2.90501 37.25028,-0.80207 6.13715,-1.59075 18.37242,-6.13793 21.82872,-8.11258 4.81426,-2.75036 14.2111,-8.45331 16.96373,-10.29521 4.83121,-3.23281 14.18913,-12.51597 16.79477,-16.66079 2.86003,-4.54936 3.60858,-5.19818 4.82501,-4.18225 1.64331,1.37242 -0.76645,6.35747 -5.65547,11.69951 -4.87084,5.32219 -18.70017,16.38145 -25.04294,20.02682 -2.02178,1.16194 -8.986,7.32226 -15.47616,13.68956 -6.49012,6.36728 -15.6784,14.69657 -20.41852,18.50954 -4.74006,3.81296 -8.61824,7.16733 -8.61824,7.45418 0,0.952 13.82508,2.2496 23.96776,2.2496 19.88567,0 38.63874,-5.71676 54.36361,-16.57235 10.27862,-7.09586 30.4421,-27.36478 30.4421,-30.6014 0,-0.81059 -0.80174,-1.42528 -2.23531,-1.71379 -4.83414,-0.97296 -3.38614,-3.55496 1.56027,-2.7822 2.54548,0.39768 4.03936,1.28286 6.77966,4.0172 1.93312,1.92889 3.51477,3.89005 3.51477,4.35811 0,1.25879 -2.73179,1.03374 -3.22739,-0.26597 -0.23426,-0.61427 -0.88522,-1.11693 -1.44664,-1.11693 -0.78811,0 -1.12099,2.07844 -1.46092,9.12162 -0.46205,9.57429 -0.94937,12.60963 -3.97519,24.75868 -4.64475,18.64963 -14.18026,30.56295 -30.95741,38.67686 -12.03464,5.82035 -30.7539,11.44886 -43.37136,13.04089 -10.61346,1.3392 -22.6075,0.86449 -28.95927,-1.14618 -0.92102,-0.29159 -1.29491,-10e-4 -1.29491,1.00113 0,1.84372 3.11687,9.5312 6.73714,16.61661 1.58524,3.10252 2.8823,5.89028 2.8823,6.1949 0,0.30466 -0.73031,0.44684 -1.62293,0.31596 -2.88493,-0.42298 -8.02548,-10.63376 -11.31258,-22.47052 -0.66618,-2.39885 -1.02713,-4.54688 -0.80202,-4.77338 0.22505,-0.22641 2.15938,-0.0213 4.2985,0.45805 9.18287,2.05361 24.8387,2.64917 30.24916,1.15062 1.01072,-0.27995 5.45592,-7.20754 9.26566,-14.44 4.17954,-7.93446 10.1898,-23.55272 9.27815,-24.11009 -0.27845,-0.17018 -4.16906,0.32535 -8.64578,1.10127 -11.04209,1.91383 -20.35111,2.3183 -30.21504,1.31269 -4.54447,-0.4633 -11.1509,-0.92936 -14.68094,-1.03574 -9.76734,-0.29437 -10.4944,-1.61356 -3.38612,-6.14385 2.54358,-1.62107 7.46315,-5.08569 10.93236,-7.69913 7.35507,-5.54069 24.60038,-20.80809 24.08721,-21.32454 -0.1931,-0.19441 -1.45031,0.0444 -2.79376,0.53021 -3.84008,1.38893 -12.76857,3.63132 -19.7404,4.95774 -7.21984,1.37365 -20.68582,1.00871 -27.39401,-0.74237 l -3.8314,-1.0001 -1.98031,3.43518 c -1.0892,1.88937 -5.73831,9.04115 -10.33133,15.89289 -4.59304,6.85168 -8.351,12.70377 -8.351,13.00465 0,0.30091 -0.66402,1.22902 -1.47555,2.06252 -2.34612,2.40951 -4.73587,5.69216 -7.06617,9.70628 -3.82025,6.58069 -2.86387,13.71822 3.84132,28.66794 1.37767,3.07158 2.82683,6.08726 3.22036,6.70163 0.39359,0.6143 2.07979,3.29495 3.74715,5.95693 7.85801,12.54568 16.98995,23.09374 23.92993,27.64071 2.88803,1.89221 6.25004,4.52037 7.47091,5.84033 1.22093,1.31996 3.8848,3.52625 5.91967,4.90296 4.39242,2.97166 12.92458,11.11716 20.07283,19.16328 l 5.14929,5.79594 7.09062,-0.84152 c 8.70185,-1.03271 14.87421,-0.21341 24.99242,3.31659 7.61495,2.65685 9.66084,3.07915 9.66084,1.99425 z M 435.25574,511.18793 c -0.58832,-1.10621 -0.28532,-1.8091 1.52475,-3.53696 5.29337,-5.05294 10.74287,-13.38858 11.78738,-18.03006 1.21761,-5.41068 -6.16362,-9.86846 -16.96542,-10.246 -5.96244,-0.20825 -8.22436,-1.28176 -5.16641,-2.45173 1.94209,-0.74306 10.18791,-0.55389 14.16395,0.32487 5.25428,1.16132 12.35686,9.49541 12.35686,14.49935 0,3.54949 -4.23124,10.92483 -9.27515,16.16721 -4.67546,4.85939 -7.08468,5.79537 -8.42596,3.27332 z m -94.03215,-3.25688 c -2.2334,-1.13478 -3.40765,-2.24355 -3.56623,-3.36725 -0.27549,-1.95207 0.16451,-2.02504 4.02818,-0.66864 4.43573,1.55707 13.78978,0.8365 18.74949,-1.44442 5.5759,-2.5643 14.96551,-12.36612 16.93027,-17.67345 1.53139,-4.13688 3.81586,-5.6736 3.81586,-2.56685 0,2.67154 -3.24643,8.66166 -7.07537,13.05512 -9.69528,11.12459 -24.60915,16.86907 -32.8822,12.66549 z m -19.23883,-8.4381 c -4.68233,-2.17643 -5.99848,-3.59117 -8.61765,-9.26312 -3.73165,-8.08115 -4.77355,-13.09859 -4.87081,-23.45564 -0.0751,-7.99202 0.20469,-10.75268 1.60228,-15.83099 0.93119,-3.38297 1.98865,-6.33471 2.3499,-6.55935 0.36121,-0.22476 0.6568,-0.98911 0.6568,-1.69877 0,-1.65402 5.65296,-7.22999 8.37268,-8.25866 3.10942,-1.17611 6.15285,-0.95866 9.31694,0.66575 6.93911,3.56241 10.79093,8.64775 14.53064,19.18399 7.42591,20.92204 1.84395,41.72775 -12.33164,45.964 -5.16559,1.54368 -6.23678,1.471 -11.00914,-0.74721 z m 10.05644,-1.42479 c 5.7655,-2.4242 8.18863,-5.76502 10.75135,-14.82302 2.37907,-8.40886 2.15538,-16.45575 -0.71212,-25.61998 -2.02247,-6.46361 -3.00357,-8.37878 -6.28263,-12.26366 -2.40642,-2.85116 -5.37609,-5.38732 -7.80022,-6.66171 -3.65672,-1.92233 -4.05411,-1.98517 -6.03531,-0.95412 -4.09098,2.12882 -6.7731,6.92963 -9.53844,17.0729 -1.75723,6.44558 -1.91741,11.00377 -0.67535,19.21569 0.85536,5.65483 2.09046,8.27798 1.49956,3.1848 -0.77006,-6.63811 2.71924,-13.05104 7.10116,-13.05104 3.01295,0 7.23075,5.09365 9.00534,10.87531 1.82053,5.93148 1.89187,8.53791 0.31985,11.6865 -2.71996,5.44778 -8.01154,6.69193 -11.752,2.76308 -2.98732,-3.13775 -3.19664,-2.19506 -0.46413,2.09013 2.836,4.4473 4.46547,5.9854 7.22182,6.81658 3.12961,0.94383 4.47182,0.88337 7.36112,-0.33146 z m -6.45634,-11.08238 c 3.32171,-3.55811 2.69082,-9.7814 -1.70154,-16.78314 -1.63426,-2.60522 -2.31867,-3.10769 -3.97147,-2.91574 -6.21965,0.72239 -3.59833,21.45365 2.71272,21.45365 0.72713,0 2.05927,-0.78966 2.96029,-1.75477 z m 14.89877,-62.04555 c -1.83139,-1.88308 -5.05026,-4.19808 -7.15311,-5.14451 -2.31692,-1.0428 -4.01994,-2.34414 -4.32231,-3.30287 -0.66906,-2.12135 -0.38092,-2.29389 3.88619,-2.32714 6.31068,-0.0493 12.59216,4.36495 14.60788,10.26528 1.17181,3.43009 0.92554,4.00508 -1.69766,3.96406 -1.36602,-0.0213 -3.03663,-1.10604 -5.32099,-3.45482 z m 279.41516,286.14775 c 4.52095,-9.57993 3.94864,-18.34229 -1.6261,-24.8962 -4.95347,-5.8235 -11.85832,-5.88456 -20.20799,-0.1784 -4.72688,3.23018 -4.90834,3.55939 -8.19032,14.85546 -2.63933,9.08426 -2.86409,11.66268 -0.95071,10.90562 2.2813,-0.90263 12.06263,-2.62572 14.8642,-2.61851 2.90265,0.009 9.10386,3.16419 11.51893,5.86367 0.77526,0.86656 1.54092,1.57559 1.70132,1.57559 0.16053,0 1.46125,-2.47816 2.89067,-5.50701 z m -9.64851,-7.5771 c -2.07633,-2.08937 -1.4677,-6.11824 1.35303,-8.9567 1.38372,-1.39247 3.00783,-2.53174 3.60917,-2.53174 3.40109,0 4.0666,7.68274 0.93819,10.83084 -2.08793,2.10114 -4.22884,2.33977 -5.90039,0.6576 z m 5.19134,-3.66448 c 0.76242,-1.17091 1.03514,-2.55136 0.7388,-3.73951 -0.39983,-1.6031 -0.68615,-1.76683 -1.9238,-1.1003 -1.71968,0.92614 -3.94078,4.93933 -3.3058,5.97321 0.82831,1.34876 3.27698,0.73074 4.4908,-1.1334 z m -10.08436,-20.48633 c 1.44115,-0.40291 3.45271,-0.73256 4.47015,-0.73256 2.75232,0 7.4926,1.46825 8.71645,2.69979 0.59108,0.59482 1.45233,0.94785 1.91382,0.7845 1.44152,-0.51032 0.69834,-9.13377 -1.35987,-15.77933 -2.19122,-7.07508 -4.76979,-10.05191 -8.70715,-10.05191 -3.52446,0 -9.94188,2.2954 -12.55508,4.4908 -2.07117,1.74002 -2.45152,2.65879 -3.13709,7.57807 -0.42909,3.07895 -0.67194,8.11754 -0.53972,11.19683 l 0.24031,5.59875 4.16896,-2.52619 c 2.29286,-1.38942 5.34804,-2.85588 6.78916,-3.25875 z m -2.23684,-24.53158 c 1.22093,-0.76844 3.69612,-1.1345 7.67143,-1.1345 l 5.86897,0 -0.34525,-4.85579 c -0.73064,-10.2759 -6.47122,-15.61722 -14.45861,-13.45287 -5.33798,1.4464 -7.65392,7.74153 -6.07387,16.50988 0.46945,2.60518 1.00304,4.9801 1.18573,5.27754 0.35848,0.58368 3.25131,-0.51874 6.1516,-2.34426 z m -0.32258,-21.95075 c 5.94254,-0.81897 6.29134,-1.02138 6.27338,-3.63992 -0.0338,-4.92165 -4.68846,-11.67763 -8.04566,-11.67763 -1.8528,0 -5.02172,3.3548 -6.00718,6.35956 -0.69634,2.12324 -0.68653,3.44971 0.0454,6.17687 1.22617,4.56709 1.3228,4.70402 2.78405,3.94248 0.68752,-0.35832 2.91488,-0.88089 4.94979,-1.16136 z m -287.05546,-1.92705 c 15.43947,-4.16358 29.71494,-10.86268 40.16426,-18.84805 3.51026,-2.68253 3.78636,-3.08372 2.46168,-3.57679 -4.46624,-1.66261 -23.06418,1.85709 -31.18127,5.90111 -5.57503,2.7775 -12.86277,8.78926 -15.94743,13.15527 -3.92992,5.56241 -3.85129,5.6213 4.50276,3.36846 z m 281.08958,-15.38757 c 2.91341,-0.94111 3.06112,-1.84806 0.75103,-4.61079 -1.47478,-1.76368 -2.55368,-2.32757 -4.45328,-2.32757 -4.60416,0 -6.18116,5.8392 -2.31331,8.56542 1.29462,0.91255 1.72127,0.92516 2.69032,0.0798 0.63331,-0.5526 2.12971,-1.32074 3.32524,-1.70689 z m -273.06463,-2.7871 c 7.19477,-4.11311 16.40352,-6.37923 27.81561,-6.84489 5.08725,-0.20752 9.98459,-0.52699 10.88315,-0.70977 5.79736,-1.1793 14.38875,-26.10455 15.50994,-44.99705 l 0.3756,-6.3293 -4.61782,5.21235 c -12.91471,14.57748 -22.51447,22.18255 -37.50493,29.71167 -5.0914,2.55724 -8.32449,4.61738 -8.32449,5.30447 0,0.61784 -1.98315,4.91032 -4.40703,9.53882 -4.65093,8.88121 -6.33036,12.70003 -5.40327,12.28651 0.30849,-0.13777 2.86143,-1.56539 5.67324,-3.17281 z m 262.58587,-3.32505 c 1.23938,-2.11127 1.22747,-2.1759 -0.62429,-3.39688 -2.44002,-1.60887 -4.32592,-1.21642 -4.63421,0.96428 -0.2519,1.78165 1.6798,4.58485 3.1594,4.58485 0.45962,0 1.40423,-0.96847 2.0991,-2.15225 z M 296.97293,487.43746 c 0.46752,-1.12626 0.99046,-4.75256 1.16218,-8.05841 0.52327,-10.0774 -3.88983,-21.92107 -10.88628,-29.21619 -3.38312,-3.52748 -4.07877,-3.92801 -6.46635,-3.7231 -2.03752,0.17479 -3.19233,0.87431 -4.84318,2.93324 -2.73773,3.41452 -3.49175,6.70911 -3.51393,15.35352 -0.0163,6.73135 0.84161,9.07964 1.71453,4.68767 1.08854,-5.47708 8.7027,-5.62123 11.26421,-0.2132 1.63007,3.44153 2.30789,13.28687 1.14573,16.64168 -1.07755,3.11047 -0.33956,3.61609 5.30001,3.63114 3.9668,0.0104 4.33399,-0.13535 5.12308,-2.03629 z m -13.85487,-2.38305 c 1.67192,-3.25351 1.38929,-7.76618 -0.7747,-12.36934 -1.91764,-4.07912 -3.72274,-5.14101 -5.30117,-3.11855 -2.34196,3.0007 -1.33242,11.7422 1.78687,15.47266 2.30826,2.76055 2.87722,2.76254 4.289,0.0144 z m 139.95808,-21.44484 c 6.51025,-3.56995 16.34715,-13.37818 21.65717,-21.59406 2.18372,-3.37872 4.369,-6.14312 4.85607,-6.14312 0.56112,0 0.89151,1.29621 0.9015,3.53695 0.0237,5.26102 2.1073,18.01779 3.48073,21.30851 1.18425,2.83741 1.22805,2.86168 3.02544,1.67658 5.42641,-3.57794 11.9269,-13.46868 12.92888,-19.67175 0.69601,-4.30912 2.46905,-3.89879 3.94117,0.91206 2.56299,8.37595 6.12567,13.83169 9.0323,13.83169 1.22575,0 5.24638,-5.80024 7.59986,-10.96372 1.47961,-3.24621 1.97082,-5.53367 2.00281,-9.32703 0.025,-2.84106 0.36404,-5.01661 0.78235,-5.00449 0.407,0.0116 2.22428,2.07822 4.03838,4.59201 4.42737,6.13492 10.39203,12.53929 14.06175,15.09849 2.9452,2.05388 3.03706,2.06833 4.52603,0.71229 2.63568,-2.40023 7.82642,-10.84691 12.18254,-19.82404 3.74959,-7.72716 4.31449,-9.5188 5.22946,-16.58601 0.90049,-6.95559 0.88649,-8.62293 -0.11436,-13.65368 -1.61142,-8.09757 -4.65728,-13.98989 -9.75321,-18.86796 -6.7902,-6.49995 -13.32249,-9.97061 -22.147,-11.76683 -4.1337,-0.84142 -9.23945,-1.52984 -11.34609,-1.52984 -10.43897,0 -30.82842,8.49911 -42.69456,17.79677 -3.98743,3.12431 -7.68644,6.59714 -8.21998,7.71743 -0.54655,1.14749 -1.57557,2.03685 -2.35677,2.03685 -1.35297,0 -3.3281,-1.50073 -3.83122,-2.91108 -0.51114,-1.43277 -16.10498,-10.35204 -25.77949,-14.74517 -12.41628,-5.63813 -20.20839,-8.40671 -33.10441,-11.76209 -13.25003,-3.44749 -30.02286,-4.78214 -43.85095,-3.48938 -12.23569,1.14392 -24.96343,2.79839 -31.86528,4.14218 -6.88627,1.34072 -27.95872,8.00831 -29.92107,9.46732 -0.40693,0.30263 -4.06969,1.89144 -8.1395,3.53072 -7.15632,2.88252 -18.503,8.50551 -19.94174,9.88239 -1.16225,1.11229 0.9375,0.79717 9.95239,-1.4937 4.68019,-1.18932 11.3398,-2.66379 14.79907,-3.2766 3.45933,-0.61278 11.39043,-2.01721 17.62466,-3.12097 6.2343,-1.10377 11.53764,-1.80296 11.78529,-1.55378 0.60444,0.60827 -2.10299,2.61813 -3.56687,2.64787 -1.80343,0.0365 -11.00994,3.32504 -15.89636,5.67786 -16.32294,7.85949 -41.96795,28.48139 -49.5136,39.81531 -1.20957,1.81678 -2.95996,4.25311 -3.88972,5.41405 -2.16307,2.70073 -1.53923,3.70442 1.49218,2.40075 9.05192,-3.89269 12.40595,-5.16554 21.61568,-8.2031 5.69767,-1.87916 10.85884,-3.62683 11.46934,-3.88368 0.61041,-0.25685 1.77589,-0.58109 2.58983,-0.72053 0.81391,-0.13937 3.97725,-0.92227 7.02953,-1.73967 8.97355,-2.40308 20.25049,-5.02927 33.29805,-7.75456 6.71506,-1.40265 14.7066,-3.07643 17.75892,-3.71952 11.58148,-2.44006 38.38738,-5.60489 64.00611,-7.5568 2.84885,-0.21718 6.62472,-0.57629 8.39087,-0.79837 4.66197,-0.58619 51.74919,-0.48382 52.71144,0.11442 1.48204,0.92173 -0.57878,2.04638 -4.80799,2.62392 -16.55054,2.26011 -25.02705,15.42214 -25.14233,39.04011 -0.0406,8.32588 0.19332,10.35701 1.67398,14.51843 0.94666,2.66109 1.87602,5.09042 2.06523,5.39855 0.64735,1.05405 2.2848,0.55833 7.37377,-2.23217 z m -30.10039,552.40773 c 0.74461,-1.4 -0.85689,-6.9921 -5.12679,-17.90118 -1.60152,-4.09144 -1.79186,-4.82597 -4.35545,-16.80811 -0.78862,-3.68575 -2.00419,-9.14681 -2.70126,-12.13562 -0.69706,-2.98859 -1.05707,-5.64538 -0.79991,-5.90399 2.07489,-2.08801 23.47902,16.12962 25.62531,21.81024 1.11211,2.94383 0.99316,9.47832 -0.24986,13.72809 -1.11726,3.81957 -5.65937,11.85167 -9.36915,16.56807 -1.89145,2.4045 -4.22352,2.9004 -3.02279,0.6425 z m 4.65442,-7.631 c 6.19625,-11.35669 6.88032,-13.91535 5.32917,-19.93169 -1.19252,-4.62519 -1.94338,-5.87046 -6.35895,-10.54443 -3.18892,-3.37538 -11.87116,-10.37779 -12.86773,-10.37779 -0.86816,0 0.31432,5.67941 2.92386,14.04288 1.35978,4.35816 3.20557,10.60452 4.1018,13.88085 2.55424,9.33748 4.60008,16.00928 4.90905,16.00928 0.15563,0 1.03883,-1.3854 1.9628,-3.0791 z M 268.03894,969.48021 c -1.20188,-1.4574 -2.87015,-7.85541 -4.16205,-15.9626 -0.60838,-3.81761 -1.47067,-8.50905 -1.91618,-10.42486 -0.87799,-3.77573 -1.37382,-32.15136 -0.56182,-32.15136 0.27233,0 1.57999,1.75915 2.90587,3.90928 4.90011,7.94609 6.21333,9.90886 7.86298,11.75169 0.92828,1.03696 3.02694,4.48968 4.66366,7.67235 3.18408,6.19204 3.66426,9.43207 1.9877,13.41311 -1.49755,3.556 -2.67081,6.82399 -5.45368,15.19097 -2.49788,7.51022 -3.52605,8.78443 -5.32648,6.60142 z m 3.36709,-11.44161 c 0.62849,-1.53579 1.58172,-3.79759 2.11829,-5.02579 4.26291,-9.76121 2.87399,-16.02337 -6.29029,-28.36035 l -3.70578,-4.98875 0.0103,4.38819 c 0.0212,6.8751 4.99491,36.77909 6.11771,36.77909 0.33226,0 1.11832,-1.25639 1.74678,-2.79239 z m 116.9025,-159.72136 c -0.38645,-6.16702 -1.94769,-36.79101 -2.18879,-42.93341 -0.1332,-3.38693 0.92705,-4.67405 2.38873,-2.90068 3.74039,4.53796 7.98286,10.25381 12.81021,17.25922 5.42867,7.8781 5.70963,8.48742 5.73467,12.43788 0.0316,4.98129 -1.58348,7.75673 -9.60656,16.50935 -3.70129,4.0378 -5.80988,5.77079 -7.02158,5.77079 -1.64467,0 -1.75116,-0.30893 -2.11668,-6.14315 z m 10.55408,-8.37701 c 1.60145,-2.45722 3.31688,-5.86225 3.81207,-7.56669 0.80043,-2.75523 0.72601,-3.4574 -0.67086,-6.32931 -0.86419,-1.77669 -3.77699,-6.21883 -6.47286,-9.87151 -4.05168,-5.48966 -5.02198,-6.42472 -5.59598,-5.39262 -0.38192,0.68677 -0.53953,1.50079 -0.35024,1.80894 0.32186,0.52405 0.53726,3.89358 1.62131,25.36251 0.23429,4.63976 0.61888,8.94193 0.8547,9.5604 0.51025,1.33807 2.27675,-0.62836 6.80186,-7.57172 z"
       id="path4201"
       inkscape:connector-curvature="0" />
  </g>
</svg>
