<?xml version="1.0" encoding="UTF-8" standalone="no"?>
<!-- Created with Inkscape (http://www.inkscape.org/) -->

<svg
   xmlns:dc="http://purl.org/dc/elements/1.1/"
   xmlns:cc="http://creativecommons.org/ns#"
   xmlns:rdf="http://www.w3.org/1999/02/22-rdf-syntax-ns#"
   xmlns:svg="http://www.w3.org/2000/svg"
   xmlns="http://www.w3.org/2000/svg"
   xmlns:sodipodi="http://sodipodi.sourceforge.net/DTD/sodipodi-0.dtd"
   xmlns:inkscape="http://www.inkscape.org/namespaces/inkscape"
   width="250mm"
   height="250mm"
   viewBox="0 0 885.82675 885.82677"
   id="svg2"
   version="1.1"
   inkscape:version="0.91 r"
   sodipodi:docname="pedro.svg">
  <defs
     id="defs4" />
  <sodipodi:namedview
     id="base"
     pagecolor="#ffffff"
     bordercolor="#666666"
     borderopacity="1.0"
     inkscape:pageopacity="0.0"
     inkscape:pageshadow="2"
     inkscape:zoom="0.49497475"
     inkscape:cx="623.51147"
     inkscape:cy="403.681"
     inkscape:document-units="px"
     inkscape:current-layer="layer1"
     showgrid="false"
     inkscape:window-width="1280"
     inkscape:window-height="776"
     inkscape:window-x="0"
     inkscape:window-y="24"
     inkscape:window-maximized="1"
     inkscape:snap-others="false" />
  <metadata
     id="metadata7">
    <rdf:RDF>
      <cc:Work
         rdf:about="">
        <dc:format>image/svg+xml</dc:format>
        <dc:type
           rdf:resource="http://purl.org/dc/dcmitype/StillImage" />
        <dc:title></dc:title>
      </cc:Work>
    </rdf:RDF>
  </metadata>
  <g
     inkscape:label="Capa 1"
     inkscape:groupmode="layer"
     id="layer1"
     transform="translate(0,-166.53544)">
    <path
       style="fill:#000000"
       d="m 274.53322,1042.2044 c -3.34889,-5.5587 -7.9431,-13.1103 -10.20928,-16.7822 -2.26625,-3.6721 -4.12556,-7.0313 -4.13181,-7.4653 -0.005,-0.4337 -1.10128,-2.5104 -2.43341,-4.6145 -3.11661,-4.9225 -16.39613,-33.5287 -20.84167,-44.89687 -1.88591,-4.82187 -4.29755,-11.88248 -5.3591,-15.68965 -1.0616,-3.80741 -2.46164,-8.58335 -3.11117,-10.6141 -1.81682,-5.67926 -3.68231,-13.2755 -4.75975,-19.38114 -0.53745,-3.04607 -1.52822,-8.23745 -2.20169,-11.53708 -0.6735,-3.29959 -1.42663,-8.49101 -1.67361,-11.53659 -0.57289,-7.06438 -2.91429,-30.80953 -3.66302,-37.1484 -0.3148,-2.665 -0.81139,-4.84106 -1.10357,-4.83564 -0.29221,0.005 -2.4884,1.68818 -4.88046,3.73948 -2.39211,2.05131 -6.11067,5.02593 -8.26352,6.61017 -2.15288,1.58434 -5.12688,3.9866 -6.60885,5.33842 -6.12933,5.59068 -32.18775,18.45091 -37.38694,18.45091 -0.64646,0 -2.85267,0.56697 -4.90262,1.26004 -7.14417,2.41507 -13.38432,3.38924 -26.69905,4.16792 -13.08189,0.76514 -13.53061,0.72942 -18.70168,-1.48901 -13.253959,-5.68615 -32.248006,-18.25214 -49.66032,-32.85402 -6.971445,-5.8462 -19.271157,-19.82735 -22.529471,-25.60944 -3.906293,-6.93184 -9.773242,-25.28286 -11.042416,-34.53916 -0.487216,-3.55333 -1.255061,-8.2317 -1.706283,-10.39632 -1.077424,-5.16867 -1.040395,-29.94843 0.0595,-39.90393 0.476764,-4.31469 1.262399,-11.79051 1.745846,-16.61289 1.357254,-13.53775 1.470259,-14.31753 4.24118,-29.26565 1.431132,-7.72044 2.967999,-14.78096 3.415244,-15.69 0.447243,-0.90903 1.468959,-5.12594 2.270503,-9.37081 1.284666,-6.80363 1.305614,-7.89715 0.176749,-9.22941 -1.986058,-2.34391 -14.464619,-21.43688 -15.79645,-24.16954 -3.722977,-7.63885 -7.311228,-29.77215 -7.32431,-45.17786 -0.01164,-14.91651 2.850902,-38.30416 6.328186,-51.68465 4.384643,-16.87197 12.242155,-37.98767 17.335425,-46.58594 0.594037,-1.00289 2.362949,-4.03981 3.930864,-6.74862 1.567913,-2.70892 5.956682,-8.34956 9.752826,-12.53479 8.104872,-8.9356 14.681007,-12.48885 24.580106,-13.2813 l 5.869273,-0.46984 4.960688,-7.82941 c 2.728376,-4.30614 6.30387,-8.92283 7.94558,-10.25921 1.641686,-1.33638 4.294918,-3.60719 5.896046,-5.04623 3.530714,-3.17329 10.273014,-5.20468 17.300674,-5.21251 6.43291,-0.005 10.6266,1.18126 15.92438,4.51254 l 4.08207,2.5669 4.34924,-2.57862 c 5.31745,-3.15264 13.82193,-4.32148 19.53434,-2.68476 2.95506,0.84667 5.36423,2.68865 10.13013,7.74554 8.59172,9.11611 11.43244,16.97586 9.85428,27.2644 -1.21514,7.92182 -4.68387,14.235 -12.8865,23.45364 -15.21064,17.09473 -16.63596,19.94819 -16.61715,33.26797 0.0169,11.93647 0.13856,12.22685 5.39651,12.8876 7.16749,0.90068 14.84156,5.25866 18.40456,10.45152 5.80386,8.45893 8.77157,19.83184 9.73146,37.29318 0.55291,10.05819 0.47032,10.83704 -1.77608,16.74849 -2.14205,5.637 -6.0104,12.33071 -10.49597,18.16185 -2.95127,3.83666 -17.14274,20.74862 -19.69566,23.47136 -1.86585,1.98992 -2.33287,3.19419 -1.96845,5.07614 0.5822,3.00664 2.08422,9.02911 3.03232,12.15813 0.38453,1.26907 1.35986,5.31847 2.16744,8.99865 0.80757,3.68023 1.75048,6.69131 2.09532,6.69131 1.12151,0 8.22266,-5.34587 12.23327,-9.20938 2.15286,-2.07396 5.67572,-5.07484 7.82859,-6.66866 2.15289,-1.5939 5.73006,-4.48786 7.94935,-6.43108 2.21923,-1.94324 4.30158,-3.5332 4.6274,-3.5332 0.32581,0 2.22867,-1.18639 4.2285,-2.6365 1.99989,-1.45011 8.65379,-5.64371 14.7864,-9.31909 10.17761,-6.09965 13.63469,-9.12015 11.35939,-9.92489 -3.62388,-1.28167 -12.95483,-8.25233 -17.7969,-13.29505 -9.06703,-9.44269 -11.97544,-17.72433 -10.87265,-30.95972 0.33172,-3.98113 0.62345,-8.15912 0.64831,-9.28442 0.0251,-1.12531 0.688,-2.25233 1.47361,-2.50455 2.21418,-0.71069 12.53174,-2.22927 14.4761,-2.13067 3.80303,0.19288 6.52388,-0.28619 6.52388,-1.14905 0,-0.4995 -2.48137,-4.34129 -5.51401,-8.5372 -7.30163,-10.1022 -12.19756,-18.03294 -16.67465,-27.01065 -5.82665,-11.68394 -11.71291,-28.48624 -11.72869,-33.4796 -0.0135,-4.29942 7.90874,-18.45647 22.58322,-40.35562 5.25925,-7.84848 15.68313,-25.46332 15.68163,-26.49963 -8.3e-4,-0.6537 -1.96832,-2.61076 -4.372,-4.34905 -6.48861,-4.69235 -8.98125,-9.75241 -11.7537,-23.8601 -1.6275,-8.28149 -1.86371,-29.03422 -0.38938,-34.21134 5.42064,-19.03466 13.57517,-25.65528 34.79101,-28.24656 2.63541,-0.32195 5.34466,-0.94788 6.02057,-1.39115 1.28694,-0.84393 1.31716,-0.22258 -1.72973,-35.57306 -0.75905,-8.80646 -4.90647,-35.38949 -5.66748,-36.32521 -0.31301,-0.38494 -12.58516,3.99938 -31.67802,11.31712 -11.60466,4.44779 -20.01339,6.40826 -20.01339,4.66604 0,-0.27449 0.71371,-1.62415 1.58598,-2.99952 0.87232,-1.37543 3.41448,-5.40802 5.64922,-8.96129 10.7996,-17.17154 37.20318,-41.33711 57.04452,-52.20936 4.01534,-2.20023 6.88556,-4.14729 6.37829,-4.3267 -1.62891,-0.57612 -26.04391,5.15349 -39.1625,9.19048 -5.00067,1.53886 -6.56523,1.71267 -7.39374,0.82132 -0.82407,-0.88659 -0.3938,-1.73177 1.9936,-3.91635 1.67449,-1.53219 4.41448,-4.14353 6.08892,-5.803 3.24995,-3.22083 8.69825,-6.13368 23.94639,-12.80259 25.93615,-11.34334 36.52583,-14.55013 71.73664,-21.72356 6.50966,-1.32621 36.04975,-0.4351 44.36213,1.3382 14.97716,3.19519 48.13461,13.36309 53.93039,16.53809 1.19608,0.65515 4.52322,2.36964 7.3937,3.80995 2.87054,1.44036 9.62267,5.63023 15.00484,9.31094 5.38218,3.68065 9.77855,6.17551 9.76978,5.54414 -0.0135,-0.63141 -0.57519,-4.50122 -1.25863,-8.5996 -1.92375,-11.5367 -0.59768,-23.91265 3.88321,-36.24112 1.789,-4.92219 3.50701,-8.11112 4.88647,-9.07013 2.94318,-2.04613 3.36194,-1.10748 1.3676,3.06545 -0.93326,1.9528 -2.81984,7.08068 -4.19241,11.39547 -2.2809,7.16993 -2.49443,8.95677 -2.4817,20.76612 0.0135,8.14866 0.38878,13.60293 1.02881,14.76702 1.0149,1.84591 1.0149,1.84591 1.61484,0 7.7042,-23.70451 19.99523,-40.95962 34.97579,-49.10178 8.15541,-4.43264 12.64367,-5.65241 14.56688,-3.95885 2.07598,1.82808 1.53794,2.55555 -2.40161,3.24728 -5.84754,1.02682 -11.65613,3.68313 -16.33829,7.47179 -5.45885,4.41703 -15.50073,17.55394 -18.96149,24.80572 -3.13575,6.57072 -8.17165,20.76618 -7.36684,20.76618 0.31043,0 3.36934,-2.44263 6.79749,-5.42811 10.83977,-9.43974 29.46847,-18.60932 43.33714,-21.33176 6.80759,-1.3363 13.72534,-0.8084 25.32226,1.93233 10.7481,2.54013 16.88155,6.24613 25.90808,15.65418 6.14912,6.40896 8.21902,9.30933 10.87312,15.2359 3.10398,6.93116 3.27444,7.78584 3.2089,16.08793 -0.0382,4.86196 -0.77244,12.05726 -1.64765,16.15151 -1.56804,7.33512 -8.00092,23.47627 -11.33079,28.43075 -6.00331,8.9323 -12.46366,16.82736 -13.93913,17.03472 -3.29989,0.46387 -16.12273,-11.57044 -21.02713,-19.73417 -1.46432,-2.43743 -2.50808,-0.55037 -3.21237,5.80756 -0.63482,5.73112 -3.61752,12.55823 -7.57679,17.34283 -2.91197,3.51899 -6.02309,4.24565 -7.92326,1.85074 -0.61693,-0.77754 -2.50461,-3.00194 -4.1949,-4.94316 -1.69032,-1.94123 -3.80479,-5.25069 -4.6988,-7.35432 -0.89405,-2.10357 -1.89551,-3.82475 -2.22553,-3.82475 -0.33001,0 -1.0899,1.76514 -1.68853,3.92246 -0.59866,2.15739 -2.22635,6.4739 -3.6171,9.5921 -1.39071,3.1183 -2.52859,6.04259 -2.52859,6.49845 0,0.45587 2.32667,8.49525 5.17034,17.86532 9.52936,31.39972 16.74685,59.5233 17.91513,69.80801 0.33571,2.95559 1.17504,6.82739 1.86507,8.60407 1.43549,3.69586 6.79112,30.23696 7.63576,37.84052 0.31012,2.79192 1.32674,10.89067 2.25914,17.99733 0.93245,7.10658 1.83991,14.28758 2.01663,15.95777 0.17679,1.67016 0.51442,3.24157 0.75052,3.49211 0.23646,0.25076 5.86351,-1.40937 12.50533,-3.68862 6.64182,-2.27921 15.2075,-5.03195 19.03485,-6.11712 3.8273,-1.08523 9.27409,-2.76459 12.10399,-3.73199 6.99775,-2.39222 9.71492,-2.28037 11.41319,0.46966 1.24208,2.01136 1.24925,2.87965 0.0735,8.90668 -0.85247,4.37022 -2.223,8.03789 -3.96569,10.61274 -1.4647,2.16401 -2.66311,4.44323 -2.66311,5.06488 0,0.6217 -1.46783,2.86695 -3.26186,4.98944 -1.7941,2.12249 -5.50707,6.94521 -8.25107,10.71701 -2.74403,3.77186 -6.77584,8.99995 -8.95961,11.618 l -3.9705,4.76007 8.08979,4.34953 c 18.26219,9.81895 24.18188,13.5158 24.18188,15.10155 0,0.87182 -1.37004,2.99408 -3.04448,4.71609 -1.6744,1.72197 -3.04445,3.58967 -3.04445,4.15034 0,0.56066 1.66358,1.95032 3.69684,3.08809 4.58139,2.56363 4.48462,2.50224 19.81046,12.56809 15.24834,10.01486 21.64965,14.75532 27.37867,20.27516 2.39208,2.30474 4.54493,4.19353 4.78418,4.19729 0.23922,9.8e-4 1.25165,-1.59014 2.24998,-3.5421 1.38903,-2.71582 1.69523,-4.50151 1.30441,-7.60662 -0.91715,-7.28681 0.53157,-22.7411 2.54557,-27.15545 1.74479,-3.82428 1.7667,-4.23363 0.47428,-8.85155 -1.69711,-6.0635 -1.75531,-15.77566 -0.11474,-19.14182 1.11384,-2.28557 1.05897,-2.96327 -0.53866,-6.64546 -1.02856,-2.37063 -1.96788,-6.93626 -2.22654,-10.82274 -0.41212,-6.19103 -0.69613,-6.9924 -3.59311,-10.13816 -1.73015,-1.87871 -5.10286,-4.47276 -7.49491,-5.76473 -4.05091,-2.18784 -4.36731,-2.61019 -4.61273,-6.15749 -0.2145,-3.09958 0.10498,-4.08231 1.71583,-5.27948 2.84241,-2.11246 6.42506,-1.81585 10.10375,0.83641 2.09447,1.51016 4.40776,2.30943 6.69513,2.31342 4.48784,0.005 8.12588,2.5706 10.59103,7.46062 1.06695,2.11656 2.8264,4.31726 3.90983,4.89041 3.64206,1.92659 6.87293,8.02768 7.41225,13.99699 0.42606,4.71581 0.95575,6.00639 3.76744,9.17912 1.79942,2.03043 3.71214,4.60553 4.25053,5.72241 1.4871,3.08498 2.22416,15.2965 1.1252,18.64144 -0.83418,2.53901 -0.64452,3.40538 1.5886,7.25703 3.01257,5.19593 4.30333,12.63469 4.9226,28.37013 0.8837,22.45334 0.62035,26.36736 -2.31766,34.45078 -1.47708,4.06413 -3.47577,8.45509 -4.44155,9.75775 -1.95733,2.64024 -1.80325,3.15375 2.55552,8.51761 3.77438,4.6447 20.54124,28.69939 25.13262,36.05653 6.99626,11.2108 13.01562,24.92859 11.59855,26.43221 -1.25146,1.32781 -2.78939,-0.35163 -7.12913,-7.7852 -5.73295,-9.82003 -11.49734,-18.97644 -16.79162,-26.67246 -5.92273,-8.60945 -8.16035,-12.07872 -11.75676,-18.22798 -2.83349,-4.84476 -5.26211,-6.31438 -5.26211,-3.18419 0,0.91378 -0.42122,2.10827 -0.93608,2.65454 -0.66824,0.70907 0.29635,2.30095 3.37108,5.56337 7.76866,8.24283 14.39089,21.40488 15.41745,30.64288 0.20274,1.82465 0.78595,6.0171 1.29596,9.31664 2.08088,13.46116 2.34683,16.46992 2.52002,28.50831 0.11215,7.81097 -0.35061,16.34973 -1.22406,22.57548 -1.3399,9.55117 -1.33225,10.07125 0.16635,11.27669 0.86388,0.69501 1.81441,1.27688 2.11227,1.293 1.12094,0.0605 11.68417,9.52497 14.43002,12.92869 3.18676,3.95022 3.4259,4.63651 1.61583,4.63651 -1.39919,0 -4.71414,-2.13052 -13.29205,-8.54292 -3.22972,-2.41434 -6.26724,-4.25005 -6.75002,-4.07929 -0.48286,0.17077 -1.30646,1.93852 -1.83023,3.92828 -0.70097,2.66288 -1.47075,3.6986 -2.91654,3.92399 -1.55311,0.24244 -1.86649,-0.0472 -1.49763,-1.38439 2.29114,-8.3025 4.43438,-34.27796 3.70234,-44.87055 -0.3233,-4.6776 -0.79493,-11.82727 -1.04813,-15.88823 -0.95744,-15.35776 -5.49277,-33.48574 -9.86058,-39.41337 -0.85872,-1.16542 -2.57518,-4.2487 -3.81433,-6.85192 -4.11974,-8.65448 -8.29274,-11.83412 -19.0983,-14.55196 -8.79241,-2.2114 -14.40176,-2.54254 -25.88226,-1.52769 -11.21355,0.99121 -16.45775,2.26482 -22.25718,5.40525 -5.82167,3.15258 -6.81165,4.99055 -7.16761,13.30683 -0.20976,4.89996 0.0192,7.62296 0.67935,8.05541 0.54789,0.35925 3.42933,0.29466 6.40328,-0.14327 25.96537,-3.82522 35.95734,0.518 44.97572,19.54957 1.84335,3.88993 3.60926,8.70449 3.92429,10.699 0.31504,1.9945 1.07612,5.08004 1.69129,6.85669 0.61514,1.77665 1.3846,4.78775 1.70987,6.69132 0.55312,3.23705 0.45196,3.46102 -1.56397,3.46102 -2.22542,0 -2.54242,-0.57137 -3.58387,-6.46059 -1.24005,-7.01212 -5.13994,-18.70737 -7.93708,-23.80236 -5.83243,-10.62383 -11.97757,-14.31989 -23.80586,-14.31843 -7.71753,9.1e-4 -19.76067,1.88053 -20.53173,3.2043 -0.24596,0.42223 -1.37151,0.76769 -2.50117,0.76769 -2.83423,0 -16.57613,5.23983 -20.01527,7.63184 -8.01647,5.57568 -10.77757,18.69929 -5.98164,28.43112 1.72255,3.49537 2.63995,4.49718 3.69683,4.03702 0.77321,-0.3366 3.5893,-1.1689 6.258,-1.84951 9.13143,-2.32883 18.31036,0.49541 26.53662,8.16497 7.20835,6.72054 17.58102,22.90924 14.58978,22.77037 -1.39264,-0.0647 -6.97014,-5.94249 -10.216,-10.76616 -1.77709,-2.64095 -5.26637,-6.75315 -7.75393,-9.13822 -10.46271,-10.03149 -19.54945,-10.52894 -34.53252,-1.89025 -2.63127,1.51706 -6.34985,3.56891 -8.26357,4.55965 -9.15484,4.73958 -19.81894,14.77853 -20.99919,19.7682 -0.96543,4.08134 1.27331,17.49226 3.9547,23.68987 4.25498,9.83477 9.88338,13.41736 18.21174,11.59203 5.6023,-1.22786 12.15116,-4.49135 16.78978,-8.36699 4.90001,-4.09393 6.81304,-3.31823 4.47086,1.81293 -1.33744,2.93012 -1.30997,3.0693 1.14858,5.81332 1.38545,1.54626 4.18249,3.85211 6.21577,5.12409 5.96411,3.73109 4.25882,6.28477 -2.39206,3.58228 -1.0995,-0.44675 -1.31344,0.81356 -1.35993,8.01111 -0.0475,7.33435 -0.39099,9.28357 -2.43151,13.79481 -1.30694,2.88947 -4.17612,7.37763 -6.37602,9.97378 -2.89689,3.41876 -3.73717,4.99869 -3.04761,5.7304 1.16758,1.23886 7.76608,2.44824 13.76092,2.5222 4.46988,0.0548 7.16043,1.71679 6.0015,3.70635 -0.30865,0.52988 -2.5497,0.96338 -4.98016,0.96338 l -4.41901,0 0.48948,4.38393 c 0.53098,4.75513 5.30755,21.4159 7.2104,25.15015 0.64664,1.26902 1.74421,4.19055 2.43904,6.49225 2.79646,9.26362 10.91801,26.98048 15.96088,34.81838 2.04452,3.1773 3.71723,6.02525 3.71723,6.32841 0,0.30318 1.6047,2.68694 3.56606,5.29778 3.05155,4.06174 3.3375,4.79551 1.98158,5.08456 -1.6827,0.35894 -6.80437,-5.1919 -11.80763,-12.79738 -7.36597,-11.19676 -19.23279,-39.22706 -25.00709,-59.0681 -4.91352,-16.8835 -4.31553,-15.78417 -9.57529,-17.60347 l -4.63074,-1.6017 -5.75091,3.73493 c -9.06031,5.88438 -16.46863,8.71039 -27.31494,10.41962 -3.70356,0.58371 -4.35549,1.04839 -5.85984,4.17711 -0.93095,1.93617 -2.40683,4.06691 -3.27977,4.73499 -2.78891,2.13448 -2.82015,3.17037 -0.3359,11.16225 3.36385,10.82142 7.24519,17.35246 15.38234,25.88323 9.6228,10.08815 20.4259,17.35572 30.87957,20.77301 2.42062,0.79153 21.86127,3.80271 24.93853,3.86294 0.39703,0 0.13443,0.41671 -0.58292,0.90879 -2.65562,1.82079 -15.93334,1.04537 -23.86638,-1.39366 -14.9622,-4.60068 -26.28565,-11.95548 -36.84428,-23.93157 -6.45418,-7.32078 -9.02637,-12.2672 -13.70713,-26.35951 -2.8637,-8.62168 -3.84329,-10.61374 -5.21905,-10.61374 -0.93151,0 -1.63058,0.41531 -1.5534,0.9229 0.077,0.50767 0.35632,4.87662 0.62027,9.70894 0.26401,4.83234 1.04823,10.49511 1.74286,12.58401 3.67837,11.06203 10.87493,22.55063 19.02816,30.37651 7.26693,6.97534 20.22668,12.3809 29.75458,12.41165 2.41116,0 4.9711,0.41672 5.68876,0.90903 0.89531,0.61379 -1.18225,0.89911 -6.62041,0.90879 -7.78033,0 -17.07176,-2.22089 -23.01082,-5.53425 -2.39849,-1.33838 -9.93364,-7.66371 -12.55628,-10.54049 -6.89122,-7.559 -15.25398,-22.9174 -16.99489,-31.21171 -0.61264,-2.91879 -1.277,-5.30685 -1.47644,-5.30685 -0.19954,0 -2.58354,1.8084 -5.29807,4.01878 -8.72886,7.1076 -15.53925,9.74902 -20.58245,7.983 -2.69641,-0.94419 -3.22435,-0.77703 -6.86941,2.17512 -4.56051,3.69377 -14.20605,7.82384 -25.11034,10.75268 -10.85334,2.91479 -23.37391,2.42789 -30.32311,-1.17956 -9.11315,-4.7308 -22.21559,-20.34551 -25.21195,-30.04603 -0.57678,-1.86718 -1.54763,-4.22554 -2.15748,-5.24078 -2.8505,-4.74527 -6.43506,-27.3312 -6.51078,-41.02406 -0.0514,-9.26304 1.27729,-23.95261 2.69609,-29.81153 0.46095,-1.90356 1.25424,-5.22614 1.76282,-7.38357 0.96733,-4.10314 1.13613,-4.5406 6.74355,-17.47545 5.91928,-13.65432 11.25793,-18.98711 23.25007,-23.22466 10.44142,-3.68951 14.78654,-3.31242 29.85773,2.59146 3.54763,1.3897 3.95381,1.38124 6.08893,-0.12666 1.25821,-0.88879 4.57356,-2.7729 7.36747,-4.18687 5.61631,-2.84239 12.10361,-3.35358 20.67354,-1.62916 3.26308,0.65663 4.77234,0.64627 4.98611,-0.034 0.16849,-0.53662 1.19202,-2.10246 2.27436,-3.47969 1.78503,-2.27135 2.01871,-3.79011 2.5152,-16.34805 0.49044,-12.4063 1.09421,-17.62481 3.96583,-34.27857 0.73467,-4.26053 5.2112,-20.08148 7.01429,-24.78963 7.37013,-19.24493 9.48062,-23.86595 10.80472,-23.65772 0.41124,0.0647 0.8657,5.56909 1.00987,12.23216 0.23427,10.82085 1.63172,20.19354 3.01096,20.19354 0.27512,0 1.01716,-2.59576 1.64854,-5.76834 3.48112,-17.49019 9.06891,-37.18386 13.15919,-46.37772 0.90326,-2.0305 3.24623,-7.42972 5.20655,-11.99824 1.96026,-4.56852 6.1081,-12.87503 9.21734,-18.45875 9.18863,-16.50131 11.43081,-19.91703 20.08574,-30.59831 l 4.60156,-5.67885 -8.20936,-5.19775 c -9.196,-5.82231 -18.79947,-10.67214 -21.12781,-10.66948 -0.84775,8.7e-4 -3.88992,2.49874 -6.76043,5.55064 -9.8251,10.44599 -37.7907,34.70797 -50.01614,43.39219 -15.98341,11.35382 -43.98519,29.50534 -45.51682,29.50534 -0.33835,0 -4.03339,2.04308 -8.21123,4.54013 -4.17782,2.497 -9.74216,5.43634 -12.36516,6.53174 -2.62299,1.0954 -6.73302,2.94018 -9.1334,4.09946 -10.26728,4.95893 -30.37178,13.90271 -33.72155,15.00155 -1.1818,0.38772 -1.52224,-0.0404 -1.52224,-1.91557 0,-1.32823 0.29763,-2.415 0.66138,-2.415 0.61714,0 6.61325,-8.16608 12.76253,-17.38117 1.46756,-2.19914 3.78523,-5.41789 5.15049,-7.15276 1.36518,-1.73485 2.28191,-3.15427 2.03713,-3.15427 -0.69342,0 -11.90759,6.40676 -16.2623,9.29084 -5.45659,3.61384 -18.81422,9.24178 -29.13982,12.27753 -4.78417,1.40657 -9.67705,2.85223 -10.87308,3.21261 -1.67738,0.50543 -2.11554,1.1765 -1.91638,2.9349 0.59066,5.21388 0.18658,9.27389 -1.20934,12.14847 -1.85612,3.82249 -12.48002,15.54655 -17.96802,19.82882 -2.27251,1.77318 -4.13094,3.70777 -4.12992,4.299 8.3e-4,0.59135 2.37067,4.81303 5.2659,9.38152 10.28796,16.23403 23.66862,41.98687 29.13607,56.0764 1.22944,3.16832 3.19016,7.95237 4.35718,10.63124 1.16698,2.67886 2.12176,5.07149 2.12176,5.31695 0,0.24565 0.73785,2.2069 1.63964,4.35874 3.30809,7.89338 8.37222,24.97471 10.05277,33.90796 0.71623,3.80715 1.84921,9.62166 2.51771,12.92117 1.13712,5.61219 1.85899,10.62983 4.08299,28.3804 0.49287,3.93401 1.05064,11.71739 1.23944,17.29633 0.37394,11.05007 -1.47517,33.36445 -2.88917,34.86478 -1.27229,1.34995 -5.81921,-2.9849 -10.77193,-10.26945 -2.87323,-4.22593 -4.15159,-5.52249 -4.1968,-4.2565 -0.0358,1.00126 -0.0279,7.42736 0.0169,14.28016 0.072,10.72248 -0.58245,22.59383 -2.18715,39.68627 -0.62164,6.62124 -6.02507,29.87126 -9.5451,41.07107 -4.11387,13.08857 -11.87579,33.79885 -13.88964,37.06005 -2.86082,4.6329 -3.45637,3.7884 -14.76253,-20.90899 -3.60181,-7.86812 -7.27396,-15.75904 -8.1603,-17.53569 -1.47085,-2.9482 -6.13853,-15.0966 -11.70268,-30.4571 -2.89329,-7.98765 -10.04339,-40.05977 -11.5737,-51.91513 -0.61037,-4.72842 -1.59869,-5.62537 -2.54265,-2.30737 -0.32497,1.14214 -1.75733,4.11778 -3.18319,6.61254 -1.87656,3.28346 -2.458,5.24871 -2.10585,7.1171 0.26763,1.41951 0.16827,2.78985 -0.22089,3.04471 -1.33162,0.87351 -5.32655,-7.0194 -7.13211,-14.09088 -3.8261,-14.98501 -7.49839,-33.02353 -7.04927,-34.62683 0.12198,-0.43677 -0.61365,-6.04359 -1.63558,-12.45966 -1.69106,-10.61709 -1.81336,-13.90518 -1.36034,-36.58492 0.58817,-29.44743 2.67321,-46.55223 7.78482,-63.86127 1.17024,-3.96276 2.40364,-8.65874 2.74073,-10.43536 1.84099,-9.70079 12.44665,-37.19316 17.48195,-45.31715 1.46441,-2.36278 1.4346,-2.47215 -1.8969,-6.96575 -4.89343,-6.60038 -11.63218,-21.92758 -11.66013,-26.52074 -0.0344,-5.65281 -0.0105,-5.6414 -11.99487,-5.69162 -11.41725,-0.0474 -16.5837,-1.19545 -30.52665,-6.7812 -4.81381,-1.92844 -6.17794,-1.85192 -6.17794,0.34659 0,0.69034 -0.55968,2.43095 -1.24373,3.86796 -0.68404,1.43713 -2.08509,5.72783 -3.11331,9.53499 -1.02833,3.80714 -2.65912,9.82932 -3.6241,13.38261 -5.38185,19.81774 -9.47551,52.65425 -8.16089,65.46098 l 0.65618,6.39288 3.18804,-6.42833 c 1.75342,-3.53551 5.43342,-9.49451 8.17781,-13.24216 2.74442,-3.7476 4.98986,-7.3412 4.98986,-7.98579 0,-0.64457 0.41845,-1.44637 0.92991,-1.78174 0.65236,-0.42782 0.75858,2.79028 0.35593,10.78311 -0.3157,6.26606 -0.71944,11.64262 -0.89714,11.94775 -1.64281,2.82023 -3.08941,83.74366 -1.79704,100.52091 0.21505,2.7919 0.84729,12.96735 1.40503,22.61208 0.55766,9.64471 1.56999,21.27374 2.24963,25.84228 0.67963,4.56856 1.84351,13.49809 2.5863,19.84332 2.57024,21.95469 4.91864,34.44736 8.59684,45.73176 4.58848,14.07695 5.53014,16.66972 7.7753,21.40743 1.14384,2.41356 3.94278,8.33377 6.21984,13.15627 3.50504,7.42296 8.7819,17.75191 11.78803,23.07341 0.4301,0.7612 1.61286,3.046 2.62838,5.0763 4.28667,8.5713 10.72656,20.3729 11.59146,21.2425 2.43414,2.4476 4.06467,4.9923 4.40671,6.877 0.20637,1.1377 1.13814,3.4398 2.07033,5.1156 l 1.695,3.0484 -1.87994,0.5352 c -1.03391,0.2942 -2.07563,0.5132 -2.31484,0.4864 -0.23925,-0.031 -3.17488,-4.5968 -6.52381,-10.1551 z m 52.36051,-33.3796 c 2.73668,-3.8615 12.57218,-35.4129 14.60101,-46.83981 0.76611,-4.31459 1.74426,-8.74271 2.17369,-9.84091 0.79622,-2.03522 2.45158,-12.29407 4.51796,-27.99895 1.24304,-9.44813 1.58872,-46.30952 0.5049,-53.83605 -0.67503,-4.68746 0.42172,-5.60595 2.32627,-1.94822 0.51256,0.98446 3.04037,5.32066 5.6173,9.63594 5.12186,8.57704 8.68181,13.1068 9.74997,12.40633 1.54605,-1.0138 1.80681,-9.77967 0.816,-27.43414 -0.57587,-10.26213 -1.77026,-23.0194 -2.65408,-28.34935 -2.73946,-16.52017 -6.92323,-35.27473 -8.61923,-38.63711 -0.51342,-1.01797 -0.93353,-2.9067 -0.93353,-4.19722 0,-2.26931 -4.60392,-16.33858 -7.93826,-24.25894 -0.89653,-2.12947 -1.63003,-4.20939 -1.63003,-4.62199 0,-0.41264 -0.92521,-2.61582 -2.0561,-4.89604 -1.13088,-2.28028 -2.55559,-5.80719 -3.16597,-7.83767 -0.61045,-2.03045 -2.35787,-6.599 -3.88323,-10.15235 -1.52534,-3.55331 -3.3299,-7.8915 -4.01021,-9.64042 -5.78944,-14.88323 -21.23991,-43.42858 -23.50612,-43.42858 -0.39675,0 -2.59419,1.26628 -4.88329,2.81394 -3.56308,2.40899 -4.72528,2.73856 -8.0763,2.29006 -2.15291,-0.28826 -4.37856,-0.19633 -4.94595,0.20352 -3.37695,2.3813 -14.55934,30.39383 -18.88167,47.29994 -1.7043,6.66578 -5.67632,25.45602 -6.13684,29.03087 -0.19914,1.54582 -1.19735,7.26369 -2.21837,12.70637 -1.70983,9.11494 -1.82773,12.10094 -1.49394,37.84057 0.40375,31.14112 1.52086,42.82356 5.75904,60.22753 1.48068,6.08035 2.69217,11.55636 2.69217,12.16888 0,0.61248 0.39853,2.22579 0.88564,3.58517 l 0.88561,2.47159 2.056,-3.21464 c 6.20196,-9.697 6.69735,-11.16131 6.52724,-19.29526 -0.14229,-6.80654 0.64713,-16.34923 1.4268,-17.24645 0.15445,-0.17802 0.69828,-0.0494 1.20855,0.28528 0.58129,0.38115 0.92733,5.15457 0.92665,12.78281 -8.3e-4,12.96241 -0.0962,12.39241 7.97176,47.70768 1.91347,8.37584 5.25388,20.62754 7.42303,27.22649 2.16917,6.59874 5.12594,15.73593 6.57049,20.3045 1.44454,4.56912 3.29628,9.96786 4.11484,11.99874 0.81858,2.03038 2.03789,5.14372 2.70947,6.91905 0.67164,1.77522 2.69398,6.13613 4.49413,9.69069 1.80015,3.55494 4.14875,8.42615 5.21908,10.82565 2.07579,4.6528 2.56829,5.0683 3.85552,3.2522 z M 432.58486,904.64192 c 2.53527,-0.57443 6.26061,-2.24644 8.27862,-3.716 5.40181,-3.93331 14.16275,-17.78239 14.16275,-22.38796 0,-0.59411 -1.77878,-1.58506 -3.95289,-2.202 -3.06556,-0.86996 -5.35965,-2.62198 -10.22066,-7.80569 -9.19593,-9.80643 -13.82954,-19.6036 -17.89957,-37.84636 -3.28334,-14.71663 2.33551,-43.01043 10.13798,-51.05071 2.9553,-3.04528 2.99138,-3.17043 1.57541,-5.46338 -3.37071,-5.45836 -15.22409,-12.47227 -20.95796,-12.4013 -7.63832,0.095 -12.34487,4.34675 -18.12036,16.37123 -6.52,13.57466 -8.43483,24.17678 -8.45565,46.81761 -0.0105,12.5522 0.37509,18.11369 1.77543,25.54434 4.60089,24.41283 10.10009,37.73844 19.49969,47.25184 3.91606,3.96334 7.81746,6.0588 13.12952,7.05139 5.24323,0.97967 6.05618,0.9677 11.04769,-0.16386 z m 30.42647,-8.75796 c 10.79153,-5.71098 12.80293,-9.17741 16.00136,-27.57702 4.64957,-26.74741 -4.10777,-71.26558 -18.07684,-91.89298 -2.05424,-3.03345 -4.92534,-7.27185 -6.38016,-9.41876 -3.30205,-4.8728 -10.42893,-9.48982 -16.82502,-10.89969 -6.68978,-1.47461 -18.71173,-0.64389 -23.60335,1.63105 l -3.89817,1.81289 6.24113,0.563 c 6.7486,0.60884 9.65631,1.87768 16.37489,7.14549 11.28358,8.84718 20.09455,24.03146 25.50798,43.95871 3.31967,12.21998 4.03165,18.85239 4.0494,37.71854 0.0192,20.84879 -1.28356,29.48595 -5.5178,36.57015 -1.33355,2.23115 -3.13821,6.0391 -4.01031,8.46197 -0.8721,2.42301 -1.92544,4.6282 -2.3407,4.90054 -0.41523,0.27244 -0.52889,0.88322 -0.25231,1.35757 0.76382,1.31126 4.4145,0.0701 12.73012,-4.33146 z m -320.48319,-7.33569 c 25.01797,-5.37476 41.72409,-12.37261 55.49082,-23.24412 3.05104,-2.40942 8.3201,-6.45737 11.70906,-8.99542 l 6.16161,-4.6147 -0.66997,-13.84407 c -0.3685,-7.61427 -0.65343,-15.50542 -0.63312,-17.53591 0.0716,-7.16992 1.26202,-39.79515 1.75119,-47.99287 0.27263,-4.56852 0.6578,-11.21373 0.85605,-14.76699 0.19807,-3.55329 0.95484,-10.98779 1.68131,-16.52104 0.72658,-5.53331 1.17352,-10.21697 0.99328,-10.40819 -0.94218,-0.99969 -5.90311,8.07939 -10.06051,18.41161 -4.93405,12.26273 -9.57397,2.0743 -8.43622,-18.52435 0.69641,-12.60797 1.29075,-19.85597 1.94517,-23.71973 0.25815,-1.5228 0.79464,-5.0531 1.1928,-7.84494 0.95444,-6.69321 3.65039,-17.95471 7.92363,-33.09879 1.91397,-6.78294 3.3019,-12.52155 3.08426,-12.75248 -1.01379,-1.07564 -10.50942,4.99337 -23.18465,14.81827 -3.58811,2.7812 -8.77985,6.64436 -11.53717,8.58476 -2.75736,1.94039 -9.02022,6.45458 -13.91756,10.03153 -10.33803,7.5508 -10.13146,6.89199 -6.35329,20.26165 1.29104,4.56858 2.93333,10.38311 3.64945,12.92119 1.96367,6.95929 3.73923,14.59693 3.75479,16.15142 0.0105,1.22082 -4.1754,-7.3759 -8.0925,-16.61293 -1.85714,-4.3793 -7.42838,-21.53547 -8.84147,-27.22672 -0.63023,-2.53809 -1.72997,-6.89895 -2.44391,-9.69078 -0.71392,-2.79194 -1.7195,-7.51629 -2.23464,-10.49862 -0.5151,-2.98229 -1.46953,-6.55598 -2.12099,-7.94155 -1.63949,-3.48709 0.0417,-6.68162 8.20569,-15.59165 11.53295,-12.58696 21.23112,-25.16761 24.26431,-31.47598 2.84167,-5.91024 3.31527,-13.32581 1.65634,-25.93663 -1.74027,-13.22893 -2.50708,-16.68938 -4.68753,-21.15429 -6.70902,-13.73802 -12.38125,-17.33626 -25.54236,-16.20318 -11.1481,0.95975 -22.08405,3.58828 -25.45909,6.1192 -9.20513,6.90298 -14.75048,18.75859 -14.15358,30.25958 0.53576,10.32408 7.35583,14.67637 21.17868,13.5156 7.4523,-0.62583 12.0771,0.31528 10.96149,2.23056 -0.24273,0.41659 -4.20094,1.30514 -8.79622,1.97455 -8.13615,1.18529 -8.43552,1.31532 -11.42956,4.96466 -3.42453,4.174 -7.80431,13.22913 -8.61739,17.8163 -0.72519,4.09128 0.0237,6.58896 3.11679,10.38911 2.77996,3.41594 3.22315,4.61466 1.70597,4.61466 -3.60524,0 -12.12067,-11.26075 -12.12067,-16.0283 0,-7.29942 2.20617,-11.00907 10.39163,-17.47378 l 4.73765,-3.74171 -3.49587,-1.57527 c -4.00554,-1.80503 -9.40592,-8.03927 -10.77401,-12.43767 -1.3942,-4.4823 0.21178,-16.02012 3.11785,-22.39935 3.49177,-7.66496 8.45505,-13.56883 13.68361,-16.27661 2.61965,-1.35668 8.5433,-3.0642 14.0885,-4.06106 9.17726,-1.64978 9.56034,-1.81055 9.37306,-3.93261 -0.53466,-6.05767 -0.1252,-19.08874 0.70483,-22.43261 1.50219,-6.05179 4.38569,-10.47884 14.18211,-21.77366 9.4372,-10.88072 12.00633,-15.16938 13.59614,-22.69655 0.71147,-3.36841 0.62399,-5.33864 -0.40113,-9.03375 -2.90719,-10.47977 -15.74838,-22.72321 -23.8326,-22.72321 -4.31707,0 -11.44779,3.14015 -11.44779,5.04123 0,0.65158 0.82929,3.17388 1.84286,5.60513 2.17417,5.21504 1.81021,11.96526 -1.00987,18.72963 -2.03526,4.88193 -8.6935,15.80716 -10.72218,17.59355 -0.78033,0.68713 -1.41879,1.64286 -1.41879,2.12377 0,0.48092 -1.1986,2.72283 -2.66358,4.98203 -4.30002,6.63139 -7.98324,15.87033 -8.55978,21.47122 -0.46841,4.55058 -0.7557,5.16979 -2.26765,4.88773 -2.52016,-0.47014 -3.15947,-1.97908 -2.60053,-6.13758 0.57818,-4.30132 10.0191,-22.29865 16.82898,-32.08115 8.58561,-12.3334 10.86356,-19.41267 8.83548,-27.45804 -1.59824,-6.34006 -6.70764,-11.01461 -14.97151,-13.69728 -9.66224,-3.1366 -13.69476,-2.37421 -21.768616,4.11597 -6.1149,4.91542 -13.386355,12.81707 -15.275574,16.59938 -0.876399,1.75463 -0.578424,2.11771 3.241146,3.94935 7.36758,3.53296 10.613896,11.42811 7.859564,19.11479 -0.493611,1.3775 -4.310055,7.24671 -8.480977,13.04271 -11.102356,15.42781 -12.367693,18.26056 -12.367693,27.68745 0,7.31079 -0.08664,7.66281 -1.665044,6.76651 -1.329416,-0.75489 -1.730968,-2.20338 -1.991913,-7.18526 -0.285456,-5.44694 0.02069,-7.06064 2.415883,-12.7003 1.508521,-3.55334 5.708165,-10.47695 9.332595,-15.3858 13.025375,-17.64136 13.470619,-23.02535 2.346632,-28.37632 -2.15288,-1.03561 -5.162186,-1.89199 -6.687317,-1.90321 -4.325463,-0.0316 -14.00677,2.61959 -18.616101,5.09782 -3.691553,1.98479 -13.839631,11.76446 -13.839631,13.33711 0,0.32625 -1.600145,2.84867 -3.555879,5.60536 -8.454408,11.91672 -17.690056,35.65394 -19.366258,49.77468 -0.210925,1.77663 -0.82617,4.49618 -1.367271,6.04346 -0.5411,1.54726 -1.706665,7.3617 -2.590105,12.92116 -2.128629,13.39509 -2.513833,50.0634 -0.63457,60.40819 2.768301,15.23876 11.516967,33.36335 20.304841,42.06558 3.565719,3.53095 3.740853,3.93031 2.832932,6.46057 -2.27975,6.35362 -9.669489,44.7026 -10.74591,55.76598 -0.222111,2.28428 -1.068289,8.51413 -1.880088,13.84414 -1.476884,9.69675 -2.012948,37.23757 -0.86229,44.30109 0.289585,1.77662 1.130277,6.55284 1.868541,10.61378 0.738297,4.06092 1.545969,8.62331 1.794897,10.13862 0.643701,3.9188 4.256641,13.97481 6.968408,19.3954 4.397817,8.79103 14.45963,21.07142 22.091692,26.96277 2.113523,1.6315 6.331259,4.95406 9.372787,7.38352 12.35562,9.86927 15.623545,12.32583 21.735022,16.33848 6.126004,4.02226 13.790797,7.44888 18.401797,8.22671 7.4569,1.2579 21.54374,0.48549 31.9608,-1.75251 z M 69.684619,666.19473 c 0,-0.75503 1.484434,-2.36711 3.2987,-3.58229 4.585209,-3.07119 8.615517,-8.19382 9.696683,-12.32475 1.332508,-5.09121 1.123556,-16.7407 -0.429835,-23.96437 -2.211787,-10.28543 -14.788537,-35.74458 -21.40892,-43.33808 -2.243561,-2.57335 -0.467371,-3.97095 2.016036,-1.5863 2.617617,2.51348 10.323185,13.63107 15.272283,22.03484 4.072675,6.91549 8.234137,17.62977 9.31622,23.98591 0.641373,3.76756 0.754296,16.10823 0.171746,18.79018 -1.451872,6.68605 -7.314103,15.4335 -12.809966,19.11467 -3.861136,2.58622 -5.123088,2.80056 -5.123088,0.87019 z m 416.999051,221.9972 c 2.18161,-0.99223 6.0305,-3.22549 8.55308,-4.9628 8.77903,-6.04607 10.23439,-9.09265 4.93369,-10.32795 -5.14224,-1.1984 -6.78349,-9.70452 -2.93927,-15.23314 2.42649,-3.48964 3.62438,-4.37082 7.57637,-5.57341 3.53611,-1.07603 10.20043,0.61796 12.25565,3.11531 1.95399,2.37431 2.43717,1.73235 5.07764,-6.74624 2.34458,-7.52837 3.12518,-24.01971 1.61215,-34.0579 -2.03973,-13.53277 -5.53531,-22.42691 -14.1249,-35.93921 -12.84994,-20.21435 -26.2957,-28.79658 -41.05097,-26.20232 -6.35915,1.1181 -15.29058,5.0495 -15.29058,6.73064 0,0.59472 2.15497,3.55111 4.78887,6.56964 16.85725,19.31922 26.11412,45.28445 27.81679,78.02491 0.64064,12.31878 -0.94346,24.27448 -4.82317,36.40208 -1.40634,4.3961 -2.55697,8.4455 -2.55697,8.99868 0,1.56101 3.80055,1.18972 8.17162,-0.79829 z m 13.55214,-46.23313 c -1.47595,-2.92619 0.51142,-11.47251 3.49043,-15.01013 2.17906,-2.58766 2.7146,-2.80317 4.925,-1.98157 3.56543,1.3252 4.75896,6.66675 2.48887,11.13932 -3.61242,7.11739 -8.84873,9.9277 -10.9043,5.85238 z m 7.68357,-9.87727 c 0.31232,-4.58019 -0.59717,-5.00017 -2.68947,-1.242 -2.11914,3.80632 -1.9474,5.82296 0.46483,5.45944 1.62698,-0.24493 2.00225,-0.95664 2.22464,-4.21744 z m -50.97042,38.01113 c 1.39098,-5.285 0.88653,-28.11931 -0.90829,-41.11766 -1.99959,-14.48168 -5.44529,-26.21212 -11.3363,-38.59303 -4.91948,-10.33927 -6.13587,-11.47372 -9.1166,-8.50255 -3.52555,3.51425 -6.33672,13.4371 -7.09727,25.05205 -0.28251,4.31476 -0.70487,9.50624 -0.93852,11.53674 -0.39234,3.40927 0.68397,10.61915 3.08776,20.68384 1.76033,7.37052 10.06744,23.27814 14.5653,27.89163 3.84087,3.93961 8.20555,6.49276 10.20867,5.97163 0.45233,-0.11799 1.14322,-1.43281 1.53525,-2.92265 z m 48.46346,-4.98751 c 1.48671,-0.65342 4.02406,-0.96056 5.63848,-0.68262 2.73251,0.47049 2.97303,0.30585 3.47988,-2.3831 0.69546,-3.68958 -2.4583,-7.42277 -6.27082,-7.42277 -5.41374,0 -11.86821,8.08935 -9.77144,12.24649 1.20599,2.39087 2.95642,2.86447 3.64762,0.98694 0.31526,-0.85632 1.78957,-2.09158 3.27628,-2.74494 z m 34.27951,-14.24778 c 7.40079,-2.74389 11.54659,-5.77147 19.7077,-14.39186 7.76994,-8.20732 10.8998,-14.00291 12.32532,-22.82316 1.1895,-7.36022 0.14663,-14.72037 -2.63237,-18.57547 l -1.56684,-2.17371 -3.40668,1.84116 c -4.91086,2.6542 -12.2933,4.81363 -16.45617,4.81363 -5.71618,0 -12.32299,-4.1251 -16.26022,-10.15237 -2.55764,-3.91532 -3.72949,-7.08127 -5.12426,-13.84412 -1.92036,-9.31075 -1.78748,-14.66747 0.47909,-19.31801 1.21315,-2.48919 7.75042,-9.62505 11.44034,-12.48788 1.54788,-1.2009 1.55091,-1.32858 0.0734,-3.0613 -2.50384,-2.93562 -12.01102,-7.58234 -16.70145,-8.16306 -8.55442,-1.05908 -19.21163,3.69234 -28.32642,12.62905 -2.36106,2.31496 -4.29013,4.80686 -4.28684,5.53763 8.3e-4,0.73075 1.46936,2.36694 3.25811,3.63596 5.09171,3.61248 10.43206,9.09074 16.19468,16.61293 2.91656,3.80719 5.97651,7.70685 6.79983,8.6659 3.04888,3.55188 9.51919,18.84479 11.75781,27.79022 1.94776,7.78318 2.30508,11.10948 2.28028,21.22761 -0.019,8.20953 -0.48163,13.73525 -1.46137,17.49908 -2.10235,8.07624 -2.06631,8.19227 2.32828,7.49306 2.06814,-0.32907 6.37832,-1.56898 9.57812,-2.75529 z m -3.11766,-21.8493 c -1.95963,-1.21102 -2.06916,-8.97126 -0.20827,-14.75942 2.59092,-8.0591 9.80897,-13.13709 11.38496,-8.0094 1.11204,3.61812 0.59732,13.00744 -0.93298,17.01947 -2.1881,5.73662 -6.42051,8.11209 -10.24362,5.74935 z m 6.5928,-6.60496 c 1.88598,-2.68289 3.25887,-13.62583 1.70944,-13.62583 -2.29666,0 -5.65954,6.34873 -6.66434,12.58148 -0.78487,4.86831 1.87293,5.42845 4.9549,1.04435 z m 7.55101,5.31919 c -0.92537,-2.58261 0.80439,-8.94548 3.19338,-11.74637 3.46904,-4.06733 7.70103,9.7e-4 6.72638,6.47143 -0.71558,4.74812 -3.1336,7.55754 -6.50461,7.55754 -1.96247,0 -2.79712,-0.55782 -3.41515,-2.2826 z m 6.94996,-6.66442 c 0,-1.41077 -0.41512,-2.13856 -1.08732,-1.90626 -1.61207,0.55721 -3.49348,5.19362 -2.83517,6.98687 0.5047,1.37484 0.7703,1.30159 2.24742,-0.61977 0.92127,-1.19835 1.67507,-3.20577 1.67507,-4.46084 z m -8.91695,-84.6833 c 9.6934,-5.25284 9.35435,-4.73518 7.31436,-11.1655 -1.69793,-5.35225 -1.83139,-5.50257 -5.12004,-5.77044 -1.97179,-0.16064 -5.04649,0.48452 -7.39046,1.55057 -4.26634,1.94039 -11.11246,7.91464 -11.11246,9.69726 0,0.58692 1.34914,1.83801 2.99807,2.78018 1.64887,0.94223 3.86997,2.69793 4.93577,3.90165 1.06574,1.20374 2.06479,2.18856 2.22001,2.18856 0.15509,0 2.92486,-1.432 6.15475,-3.18228 z M 502.55208,733.348 c 7.6274,-4.31663 7.79739,-4.36323 16.00129,-4.38393 l 8.29194,-0.0199 3.15211,-3.34382 c 5.2044,-5.52107 12.56137,-9.50401 18.53723,-10.03581 l 5.21909,-0.46446 0.53674,-4.6657 c 1.25598,-10.91781 7.91638,-19.10244 19.46973,-23.92529 9.43401,-3.93814 9.04544,-3.56204 7.99509,-7.73731 -1.46755,-5.83376 0.58126,-15.94385 3.93616,-19.42415 2.69237,-2.79296 10.4485,-6.64557 16.78082,-8.3354 2.69059,-0.71797 3.87513,-1.69586 5.18823,-4.28297 1.28624,-2.5342 8.53616,-10.05121 11.63421,-12.06286 0.39843,-0.25871 4.45328,-17.97023 4.46922,-19.52155 0.0192,-1.91825 -5.6393,-7.03232 -18.39793,-16.62637 -13.53549,-10.17825 -37.50254,-26.0126 -39.37296,-26.0126 -1.15333,0 -5.04106,4.59365 -8.5922,10.15232 -7.64958,11.97417 -10.15353,16.45992 -16.05787,28.76747 -9.06121,18.88828 -11.29045,24.69077 -15.71871,40.91449 -3.75305,13.74994 -4.30086,16.47776 -5.83365,29.04857 -1.81708,14.90195 -2.18514,15.53093 -5.46525,9.3385 -3.06668,-5.78934 -5.46451,-14.76812 -5.99295,-22.44043 -0.26984,-3.91976 -0.81521,-6.91414 -1.21166,-6.65412 -0.83129,0.54511 -7.11291,21.68963 -8.48105,28.54799 -0.50635,2.53812 -1.34516,8.5603 -1.86406,13.38266 -0.51883,4.82228 -1.30777,11.8828 -1.75308,15.68992 -1.65664,14.16256 -1.89799,18.45877 -1.03691,18.45877 0.47141,0 4.32628,-1.9633 8.56642,-4.36291 z M 299.71543,687.77269 c 5.31478,-1.56563 22.63213,-17.93939 28.39286,-26.84583 3.89529,-6.02218 4.1532,-8.04287 1.51053,-11.83544 -2.54357,-3.65037 -9.81057,-6.61723 -27.27952,-11.13726 -1.9296,-0.49929 -7.99678,-0.78951 -13.48259,-0.64498 l -9.97425,0.26279 0.30894,2.30738 c 0.29802,2.22621 0.2498,2.25062 -1.37328,0.69222 -0.92519,-0.88837 -2.08611,-1.61518 -2.57986,-1.61518 -1.68488,0 -2.05875,9.33728 -0.5903,14.74537 5.10792,18.81234 8.62614,26.48642 14.36611,31.33555 4.82024,4.07226 5.53929,4.25602 10.70136,2.73537 z m 356.40934,-35.50943 c 1.80963,-10.80851 -0.10956,-15.60388 -7.99281,-19.97165 -3.89218,-2.15645 -5.46465,-2.54743 -8.43417,-2.09704 -4.878,0.73988 -13.42461,4.36219 -18.5894,7.87863 -4.39622,2.99326 -10.37979,9.40332 -10.37979,11.1196 0,0.69068 2.63263,0.82463 8.48099,0.43136 11.04026,-0.74228 30.26002,2.72237 33.6739,6.07018 1.49107,1.46219 2.62259,0.26423 3.24128,-3.43108 z m -387.75162,-2.79178 c 1.06895,-0.43521 1.37593,-1.96742 1.37593,-6.86754 0,-3.46906 0.41271,-6.57802 0.91711,-6.9088 2.02405,-1.32724 -3.33972,-7.47397 -20.86922,-23.91517 -4.84154,-4.54091 -9.39833,-8.349 -10.12622,-8.46228 -0.72786,-0.11353 -2.96987,-1.8165 -4.98231,-3.78468 -6.62826,-6.48269 -20.51823,-11.25121 -32.93051,-11.30537 l -7.53695,-0.0328 -0.60698,6.87293 c -0.83912,9.5009 0.51598,14.7872 5.62543,21.94546 8.93626,12.5195 23.11464,22.79505 38.44974,27.86589 10.26571,3.39455 27.34708,5.95108 30.68398,4.59243 z m 72.26835,-9.95974 c 5.26261,-1.79772 12.89549,-4.76783 16.96202,-6.60033 4.06652,-1.83253 11.308,-5.02785 16.09216,-7.10071 4.78413,-2.07286 9.73744,-4.5316 11.00732,-5.46388 1.2699,-0.9323 2.53276,-1.69504 2.80631,-1.69504 0.27373,0 5.84857,-3.32257 12.38882,-7.38347 15.62325,-9.70073 16.7239,-9.70997 8.37389,-0.071 -12.74004,14.70727 -15.05842,17.44124 -18.45164,21.75959 -1.99437,2.5381 -4.19403,5.74951 -4.88814,7.13643 l -1.26209,2.52174 6.75565,-3.31265 c 3.71566,-1.82193 8.12572,-3.91764 9.80013,-4.65711 6.35529,-2.80662 10.81419,-5.13953 20.26158,-10.60088 5.36142,-3.09935 13.07526,-7.49291 17.14178,-9.76347 4.06661,-2.27044 7.98085,-4.65877 8.69849,-5.30732 0.71762,-0.6486 2.08764,-1.43154 3.04445,-1.73989 0.95684,-0.30864 4.28401,-2.42615 7.39367,-4.70618 5.64201,-4.13674 10.07326,-7.29883 24.70839,-17.63192 18.3955,-12.98801 19.58847,-13.93323 36.61577,-29.01144 11.40949,-10.10341 29.23452,-29.382 35.83406,-38.7562 3.39497,-4.82235 7.44342,-10.42923 8.99654,-12.4597 3.02041,-3.94895 9.53473,-17.75674 9.53473,-20.20996 0,-0.81354 -0.32881,-1.47914 -0.7307,-1.47914 -3.47845,0 -47.94221,15.48658 -57.98389,20.19564 -2.39209,1.1217 -5.88896,2.74729 -7.77088,3.61234 -6.61976,3.04299 -26.20697,13.78274 -30.93727,16.96308 -2.63126,1.76907 -5.37125,3.49355 -6.0889,3.83204 -0.71762,0.33857 -4.24047,2.675 -7.82863,5.19215 -3.58812,2.51713 -9.06805,6.12051 -12.17781,8.00757 -3.1097,1.88697 -6.6326,4.14586 -7.82859,5.0197 -1.19603,0.87384 -6.84386,4.8513 -12.55077,8.83879 -10.10215,7.05861 -18.86398,13.37804 -31.98541,23.06944 -9.4059,6.94712 -26.56675,20.632 -31.57537,25.17968 -2.39204,2.17195 -5.32777,4.79981 -6.52382,5.83968 -1.196,1.0399 -4.53771,4.21689 -7.42594,7.06004 -2.88824,2.84308 -9.42422,9.07023 -14.52441,13.83794 -5.10015,4.76782 -9.51054,9.32543 -9.8008,10.12805 -0.57573,1.59183 1.94935,4.10687 3.44598,3.4323 0.49776,-0.22413 5.21077,-1.87875 10.47332,-3.67638 z m -16.96194,-1.41392 c 0,-0.8499 8.82051,-10.09641 25.66913,-26.90895 7.76819,-7.75159 15.11324,-14.47388 28.65355,-26.22437 2.33977,-2.03048 6.18224,-5.56074 8.53873,-7.84499 2.35648,-2.28434 6.73377,-6.02221 9.72707,-8.30644 2.9934,-2.28432 8.62252,-6.64524 12.50918,-9.69089 3.88663,-3.04568 9.06313,-6.99127 11.50337,-8.76791 2.44016,-1.77665 6.32212,-4.76281 8.62642,-6.63589 l 4.18979,-3.40565 2.67145,-11.82288 c 3.17353,-14.04464 4.90895,-31.15566 4.89641,-48.27898 -0.0105,-12.75363 -0.97617,-19.8926 -4.12509,-30.45705 -2.24169,-7.52075 -3.39021,-9.48798 -8.89057,-15.22848 -5.16239,-5.38767 -5.72279,-5.86276 -14.5311,-12.3187 -11.08326,-8.12329 -44.95087,-23.90193 -64.86524,-30.22015 -6.36287,-2.01873 -8.04607,-2.90819 -8.04607,-4.25175 0,-1.3792 0.45017,-1.5893 2.39209,-1.11678 3.99645,0.97257 17.85688,5.88529 21.04295,7.45864 1.64654,0.81301 8.01278,3.48808 14.14718,5.94449 18.29054,7.32412 39.80445,19.92322 51.52999,30.17734 5.64636,4.93781 6.20298,5.76608 8.50169,12.65032 1.3529,4.05157 2.87031,9.02782 3.37197,11.05838 4.46026,18.05061 4.4204,49.24648 -0.0929,72.30131 -1.02722,5.24785 -1.70051,9.71883 -1.49619,9.93562 0.20424,0.21666 3.46428,-1.74923 7.24448,-4.36874 13.73103,-9.51512 34.75169,-20.55241 49.0606,-25.76021 3.10969,-1.13178 8.24186,-3.27736 11.40485,-4.768 l 5.75083,-2.71015 -0.36538,-6.62498 c -0.20082,-3.6437 -0.71596,-8.49394 -1.14456,-10.77813 -0.42854,-2.28432 -1.01779,-6.85291 -1.30939,-10.15241 -2.03116,-22.98259 -11.78646,-70.07946 -19.98194,-96.46965 -1.58026,-5.08853 -3.53819,-12.149 -4.35102,-15.68992 -1.60479,-6.99093 -6.94029,-26.11162 -8.42822,-30.20392 -1.0121,-2.78343 -1.03488,-2.79246 -4.95224,-1.9612 -2.01901,0.42846 -2.71941,1.08137 -2.72261,2.53811 -8.3e-4,1.78184 -0.2,1.70796 -2.14264,-0.80754 -2.86438,-3.70893 -4.83294,-10.10682 -6.5262,-21.21018 l -1.40476,-9.21196 -2.95225,4.59728 c -1.62364,2.52847 -6.41161,8.21726 -10.63981,12.64171 -5.93254,6.20801 -9.1804,8.7962 -14.2263,11.33684 -3.59627,1.81081 -7.6352,3.52498 -8.97531,3.80934 -2.3018,0.48849 -2.5408,0.21866 -4.32006,-4.87621 -6.5416,-18.7315 -6.01447,-39.38295 1.45115,-56.85295 3.1587,-7.39172 7.13708,-12.19607 12.47632,-15.06685 2.31551,-1.24497 4.21002,-2.52573 4.21002,-2.8461 0,-0.7663 -34.33615,0.49748 -42.27705,1.55607 -3.39812,0.45303 -11.42251,1.07982 -17.83188,1.39285 -6.40929,0.31306 -15.95902,1.1962 -21.22158,1.96247 -5.26256,0.76632 -12.30833,1.7436 -15.65721,2.17181 -27.04532,3.45789 -43.82621,6.51153 -60.69436,11.04439 -7.06905,1.89962 -13.06789,3.68206 -13.33068,3.96091 -0.26289,0.27889 0.33441,0.78069 1.32731,1.11501 2.14483,0.7223 2.36521,3.45623 0.41691,5.17181 -0.76354,0.67241 -3.5382,4.25349 -6.16594,7.95801 -2.62765,3.70452 -5.10891,6.73546 -5.51381,6.73546 -2.41229,0 -5.19865,-2.00404 -5.19865,-3.73897 0,-2.20944 6.68328,-11.83321 9.72274,-14.00051 1.1111,-0.79224 1.76276,-1.72435 1.44814,-2.07137 -0.74674,-0.82357 -19.97991,4.81841 -21.37695,6.27086 -0.74947,0.77919 -0.84894,2.08336 -0.33002,4.32809 2.70794,11.71504 5.63875,35.41181 6.61842,53.51303 0.84347,15.58461 0.87298,15.68996 4.39197,15.68996 1.65278,0 3.00504,-0.24766 3.00504,-0.55016 0,-0.30274 -0.647,-2.89835 -1.43789,-5.76838 -2.16474,-7.8561 -2.1823,-33.06972 -0.0279,-39.36699 3.73225,-10.90664 13.14477,-15.71238 19.38391,-9.89674 4.60104,4.28877 8.90812,10.70323 12.08398,17.99648 4.5459,10.43948 5.90203,17.76451 5.46485,29.51796 l -0.3693,9.9295 3.10977,0.82249 c 1.71037,0.45242 4.18625,1.07973 5.50189,1.39406 1.31562,0.31444 2.39207,0.99346 2.39207,1.50895 0,1.07689 -13.20403,0.46405 -23.48589,-1.09003 -8.706,-1.31595 -36.78508,-0.39917 -45.23187,1.47687 -14.37555,3.19263 -16.87197,4.98238 -21.99873,15.77124 -5.3216,11.19895 -4.96664,40.18135 0.66733,54.48843 2.37507,6.03138 7.68796,11.7159 13.20587,14.12973 9.15587,4.00531 26.97675,3.60069 43.78912,-0.99414 7.21445,-1.9717 21.59747,-7.60781 25.66049,-10.05534 5.65934,-3.40899 16.70568,-10.47764 19.9415,-12.76063 5.67927,-4.00699 16.67986,-15.51321 19.74289,-20.65061 3.36207,-5.63881 4.24202,-6.44301 5.67198,-5.18379 1.93177,1.70108 -0.90099,7.87992 -6.64822,14.50123 -5.72586,6.59672 -21.98276,20.30438 -29.43892,24.82272 -2.37668,1.4402 -10.56339,9.07575 -18.19281,16.96784 -7.62939,7.89208 -18.43056,18.21601 -24.00275,22.94209 -5.57212,4.72607 -10.13107,8.88371 -10.13107,9.23926 0,1.17998 16.25191,2.78832 28.17501,2.78832 23.37636,0 45.42131,-7.08578 63.90649,-20.54099 12.08291,-8.79513 35.78584,-33.91792 35.78584,-37.92962 0,-1.00471 -0.94247,-1.76661 -2.62769,-2.12421 -5.68272,-1.20595 -3.98054,-4.40627 1.83415,-3.44845 2.99232,0.49291 4.74843,1.59007 7.96976,4.9792 2.27245,2.39082 4.13174,4.82162 4.13174,5.40177 0,1.56024 -3.21133,1.28129 -3.79392,-0.32967 -0.27538,-0.76137 -1.04061,-1.3844 -1.70058,-1.3844 -0.92646,0 -1.31777,2.57617 -1.71737,11.30601 -0.54316,11.86707 -1.11602,15.62929 -4.67298,30.68772 -5.46008,23.11573 -16.66944,37.88198 -36.39162,47.93894 -14.14717,7.21418 -36.15237,14.19056 -50.98467,16.16385 -12.47653,1.65989 -26.57597,1.0715 -34.04272,-1.42067 -1.0827,-0.36141 -1.52222,-9.7e-4 -1.52222,1.24088 0,2.28524 3.664,11.81366 7.91977,20.59585 1.86351,3.84549 3.38825,7.30084 3.38825,7.67841 0,0.37762 -0.85851,0.55385 -1.90782,0.39163 -3.39134,-0.52428 -9.43425,-13.18026 -13.29837,-27.85162 -0.78311,-2.97331 -1.20743,-5.63573 -0.9428,-5.91647 0.26456,-0.28064 2.53844,-0.0264 5.05305,0.56774 10.79481,2.54539 29.19883,3.28357 35.55904,1.42615 1.18813,-0.34698 6.41364,-8.93354 10.89213,-17.89799 4.91321,-9.83456 11.9785,-29.19298 10.90682,-29.88382 -0.32734,-0.21093 -4.90089,0.40326 -10.16345,1.365 -12.98039,2.37214 -23.9235,2.87347 -35.51892,1.62704 -5.3422,-0.57424 -13.1083,-1.15192 -17.258,-1.28377 -11.48188,-0.36487 -12.33657,-1.99997 -3.98051,-7.61514 2.99007,-2.00928 8.77321,-6.30358 12.8514,-9.54286 8.64616,-6.86754 28.91868,-25.79109 28.31543,-26.43121 -0.22699,-0.24097 -1.7049,0.055 -3.28418,0.65718 -4.51415,1.72155 -15.00993,4.50092 -23.20558,6.14498 -8.4872,1.70261 -24.31697,1.25028 -32.2027,-0.92014 l -4.50395,-1.23959 -2.32793,4.25781 c -1.2804,2.34182 -6.74561,11.20626 -12.14487,19.69881 -5.3993,8.49248 -9.81692,15.74599 -9.81692,16.11893 0,0.37296 -0.78058,1.52333 -1.73457,2.55643 -2.75795,2.98653 -5.56719,7.05529 -8.30654,12.03068 -4.49085,8.15659 -3.36659,17.00337 4.51561,35.53315 1.6195,3.80715 3.32305,7.545 3.78565,8.30649 0.46269,0.76141 2.44488,4.08401 4.40493,7.38346 9.23738,15.55004 19.97232,28.62408 28.13053,34.25993 3.39499,2.34534 7.34716,5.60287 8.78234,7.23893 1.43525,1.63606 4.56673,4.37069 6.9588,6.07709 5.16346,3.68329 15.19333,13.77943 23.59637,23.75238 l 6.05319,7.18392 8.33529,-1.04305 c 10.22936,-1.28002 17.48519,-0.26451 29.37954,4.11082 8.95166,3.2931 11.35668,3.81653 11.35668,2.47183 z M 445.52589,381.59104 c -0.69159,-1.37112 -0.33541,-2.24233 1.7924,-4.38396 6.22256,-6.26299 12.62865,-16.59479 13.85651,-22.34778 1.43135,-6.7064 -7.24557,-12.2317 -19.9435,-12.69965 -7.00907,-0.25812 -9.66804,-1.58871 -6.0733,-3.03886 2.28299,-0.921 11.97627,-0.68653 16.65026,0.40267 6.1766,1.43943 14.52595,11.76931 14.52595,17.97156 0,4.3995 -4.97398,13.54104 -10.90328,20.03883 -5.49618,6.02309 -8.32832,7.18321 -9.90504,4.05719 z m -110.53836,-4.03681 c -2.62545,-1.40653 -4.00582,-2.78082 -4.19223,-4.17362 -0.32386,-2.41953 0.19338,-2.50998 4.73527,-0.82876 5.21437,1.92995 16.21041,1.03682 22.04073,-1.79032 6.55469,-3.17838 17.59253,-15.32748 19.90218,-21.90577 1.80021,-5.12755 4.48569,-7.03228 4.48569,-3.18155 0,3.31131 -3.81631,10.7359 -8.31736,16.18148 -11.39718,13.78863 -28.92899,20.90876 -38.65428,15.69854 z m -22.61597,-10.4588 c -5.50426,-2.69763 -7.05144,-4.45116 -10.13038,-11.48139 -4.38669,-10.01637 -5.61148,-16.23536 -5.72582,-29.07264 -0.0883,-9.9059 0.24062,-13.32767 1.88354,-19.6221 1.09465,-4.19311 2.33773,-7.8517 2.7624,-8.13014 0.42462,-0.27859 0.77209,-1.22598 0.77209,-2.10558 0,-2.05012 6.64527,-8.96138 9.8424,-10.23639 3.65525,-1.45776 7.23292,-1.18823 10.95242,0.82517 8.15719,4.41552 12.68514,10.71866 17.08132,23.77805 8.72944,25.93232 2.16763,51.72044 -14.49631,56.97117 -6.07235,1.91335 -7.33157,1.82325 -12.94166,-0.92615 z m 11.82172,-1.766 c 6.77757,-3.00472 9.62605,-7.14558 12.63862,-18.37273 2.79669,-10.42256 2.53374,-20.39646 -0.83712,-31.75529 -2.37749,-8.01147 -3.53081,-10.38528 -7.38547,-15.20049 -2.82884,-3.53393 -6.3198,-6.67743 -9.16946,-8.25701 -4.29861,-2.38267 -4.76575,-2.46056 -7.09473,-1.1826 -4.8091,2.63862 -7.96203,8.58909 -11.2128,21.1614 -2.06569,7.98914 -2.25399,13.63889 -0.7939,23.81734 1.00551,7.00902 2.45741,10.26034 1.76279,3.94748 -0.90523,-8.22777 3.19657,-16.17642 8.34769,-16.17642 3.54183,0 8.50001,6.31345 10.58611,13.47966 2.1401,7.35192 2.22397,10.58252 0.376,14.4851 -3.19742,6.75238 -9.41787,8.29448 -13.81492,3.42478 -3.51171,-3.88917 -3.75777,-2.72073 -0.5456,2.59065 3.33382,5.51232 5.24932,7.41875 8.48952,8.44897 3.67897,1.16985 5.25679,1.09491 8.65327,-0.41084 z m -7.58967,-13.73631 c 3.90479,-4.41018 3.16317,-12.12379 -2.00022,-20.80225 -1.92113,-3.22911 -2.72569,-3.85191 -4.66862,-3.61398 -7.31143,0.89537 -4.22997,26.59123 3.1889,26.59123 0.85477,0 2.42076,-0.97877 3.47994,-2.175 z m 17.51407,-76.90381 c -2.15286,-2.33403 -5.93677,-5.20342 -8.40875,-6.37649 -2.72363,-1.29252 -4.7256,-2.90549 -5.08104,-4.09381 -0.78651,-2.62936 -0.44779,-2.84322 4.56836,-2.88443 7.41845,-0.0611 14.80256,5.41023 17.17212,12.72354 1.37751,4.2515 1.088,4.96419 -1.99567,4.91335 -1.60581,-0.0264 -3.56967,-1.37092 -6.25502,-4.28216 z m 328.46311,354.67255 c 5.31455,-11.87407 4.64178,-22.73478 -1.91154,-30.85818 -5.823,-7.21808 -13.93991,-7.29376 -23.75526,-0.22113 -5.55663,4.00373 -5.76994,4.41177 -9.62803,18.41295 -3.10263,11.2597 -3.36685,14.45558 -1.1176,13.51723 2.68176,-1.11879 14.18008,-3.25451 17.47343,-3.24558 3.41218,0.0112 10.70194,3.92194 13.54095,7.26788 0.91134,1.07407 1.81141,1.95289 1.99996,1.95289 0.1887,0 1.71776,-3.07161 3.39809,-6.82579 z m -11.34219,-9.39162 c -2.4408,-2.58972 -1.72533,-7.5834 1.59054,-11.10159 1.62662,-1.72592 3.53582,-3.13802 4.24271,-3.13802 3.99811,0 4.78045,9.52255 1.10288,13.42453 -2.45444,2.60431 -4.97116,2.90009 -6.93613,0.81508 z m 6.10262,-4.54202 c 0.89625,-1.45131 1.21684,-3.16235 0.86848,-4.63503 -0.47001,-1.987 -0.80659,-2.18994 -2.2615,-1.36379 -2.02154,1.14793 -4.63253,6.12217 -3.88609,7.40363 0.97371,1.67176 3.85222,0.90574 5.27911,-1.40481 z m -11.85455,-25.39226 c 1.69413,-0.4994 4.0588,-0.90799 5.25483,-0.90799 3.23546,0 8.80784,1.81985 10.24652,3.34632 0.69484,0.73726 1.70727,1.17483 2.24976,0.97236 1.69457,-0.63252 0.82093,-11.32106 -1.59857,-19.55806 -2.57587,-8.76937 -5.60707,-12.45907 -10.23559,-12.45907 -4.14313,0 -11.68705,2.84508 -14.75897,5.56623 -2.43474,2.1567 -2.88185,3.29549 -3.68776,9.39281 -0.50442,3.81627 -0.7899,10.06147 -0.63447,13.87818 l 0.2825,6.93949 4.90077,-3.13114 c 2.69534,-1.72215 6.28682,-3.53979 7.98091,-4.03913 z m -2.62949,-30.40625 c 1.43525,-0.95246 4.34493,-1.40618 9.01805,-1.40618 l 6.89921,0 -0.40586,-6.01863 c -0.85889,-12.7367 -7.60716,-19.35712 -16.99664,-16.67447 -6.275,1.79277 -8.99748,9.59542 -7.14007,20.46356 0.55185,3.22905 1.17911,6.1727 1.39387,6.54137 0.42141,0.72346 3.82204,-0.64297 7.23144,-2.90565 z m -0.3792,-27.20737 c 6.98567,-1.01509 7.39571,-1.26598 7.37459,-4.51159 -0.0398,-6.10025 -5.51146,-14.47411 -9.45798,-14.47411 -2.17804,0 -5.90322,4.15819 -7.06166,7.88251 -0.81858,2.6317 -0.80705,4.27582 0.0534,7.65606 1.4414,5.66079 1.555,5.83052 3.27276,4.8866 0.8082,-0.44412 3.42654,-1.09184 5.81866,-1.43947 z M 305.0334,530.03382 c 18.14969,-5.16066 34.93104,-13.46402 47.21462,-23.36166 4.12644,-3.32493 4.451,-3.8222 2.89379,-4.43334 -5.25023,-2.06076 -27.11282,2.30181 -36.65476,7.31427 -6.55366,3.44263 -15.12068,10.89405 -18.74681,16.3056 -4.61977,6.89446 -4.52734,6.96745 5.29316,4.17513 z m 330.43146,-19.0725 c 3.42482,-1.16647 3.59846,-2.29062 0.88286,-5.71495 -1.73366,-2.18603 -3.00195,-2.88495 -5.235,-2.88495 -5.41236,0 -7.26618,7.23752 -2.71938,10.6166 1.52188,1.13108 2.02341,1.14672 3.16258,0.0989 0.74447,-0.68493 2.50355,-1.63702 3.90894,-2.11564 z m -320.99783,-3.45453 c 8.45773,-5.09809 19.28296,-7.90688 32.69831,-8.48406 5.98025,-0.25721 11.73726,-0.65319 12.79355,-0.87974 6.81502,-1.46172 16.91453,-32.3559 18.23252,-55.77265 l 0.44154,-7.845 -5.42842,6.46057 c -15.18173,18.0684 -26.46662,27.49468 -44.08847,36.82682 -5.98513,3.16964 -9.78576,5.72313 -9.78576,6.57475 0,0.76581 -2.33126,6.08622 -5.18062,11.82312 -5.46735,11.00802 -7.44158,15.74135 -6.35175,15.22881 0.36264,-0.17077 3.36372,-1.94027 6.6691,-3.93262 z m 308.67965,-4.12131 c 1.45694,-2.61686 1.44294,-2.69697 -0.73388,-4.21035 -2.86834,-1.99415 -5.08528,-1.50772 -5.44769,1.1952 -0.29612,2.20831 1.97467,5.6828 3.714,5.6828 0.5403,0 1.65072,-1.20039 2.46757,-2.66765 z M 282.96921,352.15296 c 0.54958,-1.39597 1.16432,-5.89067 1.36618,-9.98818 0.61512,-12.49067 -4.57264,-27.17058 -12.79723,-36.21269 -3.97699,-4.37222 -4.79476,-4.86866 -7.60145,-4.61468 -2.39518,0.21664 -3.7527,1.08368 -5.69334,3.63567 -3.21831,4.23221 -4.10468,8.31576 -4.13075,19.03028 -0.0192,8.34332 0.98934,11.25397 2.01549,5.81024 1.27962,-6.7887 10.23036,-6.96737 13.2415,-0.26426 1.91621,4.26569 2.71302,16.46873 1.34686,20.62692 -1.2667,3.85535 -0.39917,4.48206 6.23036,4.50071 4.66312,0.0128 5.09477,-0.16777 6.02238,-2.52393 z m -16.28693,-2.95372 c 1.96541,-4.03264 1.63316,-9.62598 -0.91069,-15.33147 -2.25426,-5.05596 -4.37622,-6.37214 -6.23172,-3.86536 -2.75307,3.71928 -1.56632,14.55414 2.10053,19.17795 2.71344,3.42163 3.38228,3.42409 5.04188,0.0178 z m 164.52603,-26.58031 c 7.65304,-4.42486 19.21669,-16.5819 25.45882,-26.76527 2.56705,-4.18783 5.13593,-7.61423 5.70849,-7.61423 0.65962,0 1.04801,1.60662 1.05975,4.38395 0.0279,6.5209 2.47721,22.33257 4.09173,26.41134 1.39214,3.5169 1.44362,3.54698 3.55652,2.07807 6.37895,-4.43476 14.02052,-16.69407 15.19839,-24.38261 0.81819,-5.34104 2.90246,-4.83244 4.633,1.13048 3.01288,10.38176 7.20095,17.14401 10.6178,17.14401 1.44092,0 6.16732,-7.18924 8.93393,-13.58924 1.73934,-4.02359 2.31677,-6.85884 2.35438,-11.5606 0.0294,-3.52143 0.42794,-6.21796 0.91968,-6.20294 0.47845,0.0144 2.61473,2.57589 4.74727,5.69168 5.20454,7.60407 12.21622,15.54211 16.53012,18.71417 3.46219,2.54574 3.57018,2.56364 5.32052,0.88287 3.09834,-2.97503 9.20025,-13.44446 14.32103,-24.57138 4.40779,-9.57761 5.07185,-11.7983 6.14744,-20.55791 1.05856,-8.62128 1.0421,-10.6879 -0.13444,-16.92338 -1.89428,-10.03672 -5.47481,-17.3401 -11.46527,-23.38634 -7.98213,-8.05651 -15.66109,-12.3583 -26.03463,-14.58467 -4.85932,-1.04292 -10.86133,-1.89619 -13.33776,-1.89619 -12.27141,0 -36.23998,10.53442 -50.18908,22.05862 -4.68737,3.87249 -9.0357,8.17698 -9.6629,9.56555 -0.64248,1.42229 -1.85214,2.52462 -2.77047,2.52462 -1.59046,0 -3.91231,-1.86012 -4.50375,-3.60821 -0.60086,-1.77587 -18.932,-12.83107 -30.30476,-18.27624 -14.59581,-6.98832 -23.75572,-10.41989 -38.91549,-14.5788 -15.57591,-4.27307 -35.29301,-5.92733 -51.54846,-4.325 -14.38351,1.41787 -29.34545,3.46854 -37.45884,5.13412 -8.09507,1.6618 -32.86653,9.9261 -35.17335,11.7345 -0.47836,0.3751 -4.78407,2.34438 -9.56829,4.37623 -8.41252,3.57281 -21.75098,10.54236 -23.44227,12.24896 -1.36627,1.37866 1.10207,0.98807 11.69941,-1.8514 5.50174,-1.47413 13.33037,-3.3017 17.39687,-4.06125 4.06658,-0.75953 13.38988,-2.50028 20.71845,-3.86836 7.32866,-1.3681 13.56294,-2.23473 13.85406,-1.92588 0.71054,0.75393 -2.47215,3.2451 -4.19299,3.28197 -2.12,0.0453 -12.94261,4.1213 -18.68678,7.03755 -19.18823,9.74164 -49.33491,35.30193 -58.20511,49.35002 -1.42189,2.25186 -3.47954,5.27162 -4.57251,6.71058 -2.54277,3.34748 -1.80943,4.59153 1.75411,2.97567 10.64088,-4.82489 14.58367,-6.40256 25.41005,-10.16753 6.69783,-2.32917 12.76498,-4.49536 13.48265,-4.81372 0.71756,-0.31836 2.08763,-0.72024 3.04444,-0.89308 0.95678,-0.17274 4.67541,-1.14313 8.26348,-2.15628 10.54875,-2.97854 23.80522,-6.23364 39.14312,-9.61157 7.89381,-1.73854 17.28817,-3.81315 20.87629,-4.61024 13.61446,-3.02439 45.12582,-6.94712 75.2416,-9.36645 3.34894,-0.26919 7.78761,-0.7143 9.86378,-0.98957 5.48033,-0.72656 60.83314,-0.59968 61.9643,0.14183 1.7422,1.14246 -0.68038,2.53643 -5.65197,3.25227 -19.45579,2.80135 -29.42025,19.11534 -29.55576,48.38919 -0.0477,10.31971 0.22725,12.83724 1.96783,17.99521 1.11283,3.29835 2.20533,6.30944 2.42775,6.69136 0.76098,1.30646 2.68587,0.69203 8.66815,-2.76671 z m -35.38416,684.69477 c 0.87532,-1.7353 -1.0073,-8.66651 -6.02673,-22.18807 -1.88264,-5.07123 -2.1064,-5.98166 -5.12,-20.8332 -0.92705,-4.56839 -2.356,-11.33724 -3.17543,-15.04179 -0.81942,-3.70428 -1.24263,-6.9973 -0.94033,-7.31784 2.43912,-2.58803 27.60048,19.99224 30.12353,27.03322 1.30733,3.6488 1.1675,11.74812 -0.29372,17.01561 -1.31338,4.73426 -6.65281,14.68987 -11.01379,20.53577 -2.22347,2.9802 -4.96491,3.5949 -3.55341,0.7963 z m 5.47145,-9.45845 c 7.28393,-14.07632 8.08808,-17.24771 6.26464,-24.7048 -1.40185,-5.7328 -2.28451,-7.27628 -7.47519,-13.06955 -3.74869,-4.18369 -13.95499,-12.86299 -15.1265,-12.86299 -1.02055,0 0.3695,7.03947 3.43711,17.40577 1.59848,5.40183 3.76827,13.14403 4.82182,17.20495 3.00261,11.57357 5.40757,19.84307 5.77078,19.84307 0.18294,0 1.22118,-1.71711 2.30734,-3.81645 z M 248.9562,949.63218 c -1.41286,-1.80641 -3.37397,-9.73657 -4.89265,-19.78522 -0.71517,-4.73183 -1.72882,-10.54674 -2.25254,-12.92134 -1.03211,-4.67992 -1.61498,-39.85076 -0.66044,-39.85076 0.32013,0 1.85734,2.18042 3.41596,4.84546 5.76027,9.84896 7.30401,12.28176 9.24323,14.5659 1.09123,1.28529 3.55829,5.56484 5.48231,9.50968 3.74301,7.67487 4.30748,11.69079 2.33662,16.62519 -1.76043,4.40757 -3.13964,8.45816 -6.41101,18.8288 -2.93635,9.30872 -4.14501,10.88807 -6.26148,8.18229 z m 3.95814,-14.18158 c 0.73882,-1.90357 1.85937,-4.70701 2.49013,-6.22933 5.01122,-12.09875 3.37849,-19.86054 -7.39447,-35.1519 l -4.35629,-6.18342 0.0121,5.43905 c 0.0249,8.5215 5.87171,45.5867 7.1916,45.5867 0.39059,0 1.31463,-1.55726 2.05341,-3.4611 z M 390.33766,737.48021 c -0.45428,-7.64385 -2.28958,-45.60148 -2.57301,-53.21482 -0.15657,-4.19801 1.08979,-5.79336 2.80805,-3.59532 4.39697,5.62468 9.38415,12.70933 15.05889,21.39235 6.3816,9.7647 6.71188,10.51993 6.74132,15.41643 0.0372,6.17417 -1.86144,9.61425 -11.29287,20.46289 -4.35101,5.00475 -6.82974,7.15274 -8.25414,7.15274 -1.93337,0 -2.05856,-0.38291 -2.48824,-7.61427 z m 12.40673,-10.38308 c 1.88256,-3.04565 3.89912,-7.26611 4.48123,-9.37871 0.94094,-3.41504 0.85345,-4.28536 -0.78863,-7.84501 -1.01588,-2.20217 -4.43999,-7.70808 -7.60908,-12.23548 -4.76291,-6.80428 -5.90354,-7.96327 -6.57829,-6.684 -0.44896,0.85123 -0.63424,1.86018 -0.41172,2.24213 0.37836,0.64954 0.63156,4.82599 1.90591,31.43616 0.27542,5.75086 0.72752,11.08328 1.00473,11.84986 0.59982,1.6585 2.6764,-0.77884 7.99585,-9.38495 z"
       id="path4201"
       inkscape:connector-curvature="0" />
  </g>
</svg>
